<?xml version="1.0" encoding="UTF-8" standalone="no"?>
<!-- Created with Inkscape (http://www.inkscape.org/) -->

<svg
   xmlns:dc="http://purl.org/dc/elements/1.1/"
   xmlns:cc="http://creativecommons.org/ns#"
   xmlns:rdf="http://www.w3.org/1999/02/22-rdf-syntax-ns#"
   xmlns:svg="http://www.w3.org/2000/svg"
   xmlns="http://www.w3.org/2000/svg"
   xmlns:sodipodi="http://sodipodi.sourceforge.net/DTD/sodipodi-0.dtd"
   xmlns:inkscape="http://www.inkscape.org/namespaces/inkscape"
   id="svg3553"
   version="1.1"
   inkscape:version="0.48.4 r9939"
   width="447.99124"
   height="282.61206"
   xml:space="preserve"
   sodipodi:docname="contactConstraint.pdf"><sodipodi:namedview
     pagecolor="#ffffff"
     bordercolor="#666666"
     borderopacity="1"
     objecttolerance="10"
     gridtolerance="10"
     guidetolerance="10"
     inkscape:pageopacity="0"
     inkscape:pageshadow="2"
     inkscape:window-width="1920"
     inkscape:window-height="1057"
     id="namedview3555"
     showgrid="false"
     fit-margin-top="0"
     fit-margin-left="0"
     fit-margin-right="0"
     fit-margin-bottom="0"
     inkscape:zoom="2"
     inkscape:cx="136.0679"
     inkscape:cy="230.49872"
     inkscape:window-x="1600"
     inkscape:window-y="23"
     inkscape:window-maximized="0"
     inkscape:current-layer="g3561" /><metadata
     id="metadata3559"><rdf:RDF><cc:Work
         rdf:about=""><dc:format>image/svg+xml</dc:format><dc:type
           rdf:resource="http://purl.org/dc/dcmitype/StillImage" /><dc:title></dc:title></cc:Work></rdf:RDF></metadata><defs
     id="defs3557"><inkscape:path-effect
       is_visible="true"
       id="path-effect7064"
       effect="spiro" /><marker
       style="overflow:visible"
       id="Arrow1Sstart"
       refX="0.0"
       refY="0.0"
       orient="auto"
       inkscape:stockid="Arrow1Sstart"><path
         transform="scale(0.2) translate(6,0)"
         style="fill-rule:evenodd;stroke:#000000;stroke-width:1.0pt"
         d="M 0.0,0.0 L 5.0,-5.0 L -12.5,0.0 L 5.0,5.0 L 0.0,0.0 z "
         id="path4042" /></marker><marker
       style="overflow:visible"
       id="Arrow1Mstart"
       refX="0.0"
       refY="0.0"
       orient="auto"
       inkscape:stockid="Arrow1Mstart"><path
         transform="scale(0.4) translate(10,0)"
         style="fill-rule:evenodd;stroke:#000000;stroke-width:1.0pt"
         d="M 0.0,0.0 L 5.0,-5.0 L -12.5,0.0 L 5.0,5.0 L 0.0,0.0 z "
         id="path4036" /></marker><marker
       inkscape:stockid="Arrow1Send"
       orient="auto"
       refY="0.0"
       refX="0.0"
       id="Arrow1Send"
       style="overflow:visible;"><path
         id="path4045"
         d="M 0.0,0.0 L 5.0,-5.0 L -12.5,0.0 L 5.0,5.0 L 0.0,0.0 z "
         style="fill-rule:evenodd;stroke:#000000;stroke-width:1.0pt;"
         transform="scale(0.2) rotate(180) translate(6,0)" /></marker><marker
       inkscape:stockid="Arrow1Lend"
       orient="auto"
       refY="0.0"
       refX="0.0"
       id="Arrow1Lend"
       style="overflow:visible;"><path
         id="path4033"
         d="M 0.0,0.0 L 5.0,-5.0 L -12.5,0.0 L 5.0,5.0 L 0.0,0.0 z "
         style="fill-rule:evenodd;stroke:#000000;stroke-width:1.0pt;"
         transform="scale(0.8) rotate(180) translate(12.5,0)" /></marker><inkscape:path-effect
       effect="spiro"
       id="path-effect3256"
       is_visible="true" /><marker
       inkscape:stockid="Arrow1Sendc"
       orient="auto"
       refY="0.0"
       refX="0.0"
       id="Arrow1Sendc"
       style="overflow:visible;"><path
         id="path4668"
         d="M 0.0,0.0 L 5.0,-5.0 L -12.5,0.0 L 5.0,5.0 L 0.0,0.0 z "
         style="stroke:#ff0000;stroke-width:1.0pt;fill:#ff0000;fill-rule:evenodd"
         transform="scale(0.2) rotate(180) translate(6,0)" /></marker><marker
       style="overflow:visible"
       id="Arrow1Sstart9"
       refX="0.0"
       refY="0.0"
       orient="auto"
       inkscape:stockid="Arrow1Sstart9"><path
         transform="scale(0.2) translate(6,0)"
         style="stroke:#ff0000;stroke-width:1.0pt;fill:#ff0000;fill-rule:evenodd"
         d="M 0.0,0.0 L 5.0,-5.0 L -12.5,0.0 L 5.0,5.0 L 0.0,0.0 z "
         id="path5826" /></marker><marker
       inkscape:stockid="Arrow1Sendc6"
       orient="auto"
       refY="0.0"
       refX="0.0"
       id="Arrow1Sendc6"
       style="overflow:visible;"><path
         id="path5829"
         d="M 0.0,0.0 L 5.0,-5.0 L -12.5,0.0 L 5.0,5.0 L 0.0,0.0 z "
         style="fill-rule:evenodd;stroke:#ff0000;stroke-width:1.0pt;fill:#ff0000"
         transform="scale(0.2) rotate(180) translate(6,0)" /></marker><marker
       style="overflow:visible"
       id="Arrow1Sstartt"
       refX="0.0"
       refY="0.0"
       orient="auto"
       inkscape:stockid="Arrow1Sstartt"><path
         transform="scale(0.2) translate(6,0)"
         style="stroke:#ff0000;stroke-width:1.0pt;fill:#ff0000;fill-rule:evenodd"
         d="M 0.0,0.0 L 5.0,-5.0 L -12.5,0.0 L 5.0,5.0 L 0.0,0.0 z "
         id="path6834" /></marker></defs><g
     id="g3561"
     inkscape:groupmode="layer"
     inkscape:label="contactConstraint"
     transform="matrix(1.25,0,0,-1.25,-127.28375,744.76176)"><g
       id="g3563"><g
         id="g3565"
         transform="matrix(1,0,0,-1,0,841.88977)"><path
           d="M 102.227,387.32 228.293,471.77 459.82,355.398 324.863,289.941 102.227,387.32"
           style="fill:none;stroke:#5eff00;stroke-width:0.80000001;stroke-linecap:butt;stroke-linejoin:miter;stroke-miterlimit:4;stroke-opacity:1;stroke-dasharray:none"
           id="path3567"
           inkscape:connector-curvature="0" /></g><path
         d="m 215.801,388.753 -0.028,-0.105 -0.023,-0.098 -0.027,-0.09 -0.047,-0.172 -0.028,-0.074 -0.031,-0.074 -0.027,-0.067 -0.028,-0.062 -0.035,-0.063 -0.039,-0.058 -0.043,-0.051 -0.039,-0.051 -0.051,-0.039 -0.05,-0.047 -0.063,-0.035 -0.062,-0.039 -0.149,-0.055 -0.086,-0.031 -0.09,-0.023 -0.05,-0.012 -0.055,-0.004 -0.051,-0.012 -0.054,-0.011 -0.059,-0.004 -0.055,-0.008 -0.062,-0.004 -0.071,-0.012 -0.062,-0.008 -0.074,-0.003 -0.067,0 -0.074,-0.004 -0.082,-0.008 -0.078,0 -0.082,-0.004 -0.086,0 -0.09,-0.008 -0.484,0 c -0.485,0 -0.77,0 -0.77,-0.57 0,-0.313 0.262,-0.313 0.77,-0.313 l 10.133,0 c 4.484,0 7.836,3.344 7.836,6.133 0,2.039 -1.649,3.688 -4.399,4 2.957,0.543 5.938,2.645 5.938,5.344 0,2.098 -1.879,3.918 -5.289,3.918 l -0.395,-0.883 c 2.496,0 3.09,-1.672 3.09,-2.918 0,-2.504 -2.438,-5.203 -5.899,-5.203 l -4.14,0 -0.172,-0.621 5.363,0 c 2.723,0 3.266,-2.106 3.266,-3.324 0,-2.817 -2.528,-5.563 -5.879,-5.563 l -3.863,0 c -0.391,0 -0.454,0 -0.621,0.024 -0.286,0.027 -0.364,0.058 -0.364,0.285 0,0.078 0,0.14 0.141,0.648 l 1.957,7.93 0.172,0.621 1.754,7.043 c 0.257,0.992 0.308,1.078 1.539,1.078 l 3.656,0 0.395,0.883 -9.536,0 c -0.535,0 -0.82,0 -0.82,-0.57 0,-0.313 0.25,-0.313 0.793,-0.313 0.051,0 0.598,0 1.078,-0.051 0.508,-0.066 0.762,-0.094 0.762,-0.457 0,-0.113 -0.024,-0.207 -0.113,-0.543 l -3.801,-15.242 z"
         style="fill:#70ff00;fill-opacity:1;fill-rule:nonzero;stroke:none"
         id="path3569"
         inkscape:connector-curvature="0" /><path
         d="m 242.824,385.913 -0.672,0 c -0.054,-0.437 -0.261,-1.613 -0.519,-1.812 -0.153,-0.114 -1.68,-0.114 -1.961,-0.114 l -3.656,0 c 2.086,1.84 2.781,2.395 3.972,3.329 1.469,1.179 2.836,2.406 2.836,4.296 0,2.399 -2.097,3.872 -4.644,3.872 -2.457,0 -4.133,-1.731 -4.133,-3.551 0,-1.016 0.855,-1.117 1.062,-1.117 0.473,0 1.047,0.339 1.047,1.054 0,0.352 -0.14,1.047 -1.172,1.047 0.614,1.406 1.965,1.848 2.899,1.848 1.992,0 3.023,-1.547 3.023,-3.153 0,-1.734 -1.234,-3.101 -1.871,-3.812 l -4.781,-4.731 c -0.207,-0.175 -0.207,-0.222 -0.207,-0.773 l 8.187,0 0.59,3.617 z"
         style="fill:#70ff00;fill-opacity:1;fill-rule:nonzero;stroke:none"
         id="path3571"
         inkscape:connector-curvature="0" /><path
         d="m 315.34,580.019 -0.024,-0.082 -0.015,-0.078 -0.02,-0.075 -0.015,-0.07 -0.02,-0.07 -0.019,-0.063 -0.024,-0.058 -0.019,-0.055 -0.024,-0.051 -0.023,-0.055 -0.032,-0.046 -0.031,-0.04 -0.031,-0.042 -0.043,-0.036 -0.039,-0.039 -0.051,-0.027 -0.051,-0.035 -0.117,-0.047 -0.066,-0.027 -0.074,-0.02 -0.043,-0.008 -0.039,-0.008 -0.043,-0.007 -0.047,-0.012 -0.043,-0.008 -0.047,-0.004 -0.051,-0.008 -0.055,-0.007 -0.05,-0.008 -0.176,-0.012 -0.063,-0.008 -0.066,0 -0.063,-0.008 -0.07,-0.004 -0.148,-0.007 -0.071,0 -0.082,-0.004 -0.082,0 -0.082,-0.004 c -0.39,-0.008 -0.621,-0.016 -0.609,-0.477 0.008,-0.254 0.219,-0.246 0.629,-0.238 l 8.187,0.219 c 3.625,0.094 6.262,2.867 6.2,5.121 -0.043,1.648 -1.407,2.945 -3.637,3.137 2.375,0.5 4.742,2.265 4.683,4.445 -0.046,1.695 -1.605,3.125 -4.355,3.055 l -0.301,-0.723 c 2.016,0.051 2.531,-1.285 2.559,-2.293 0.051,-2.023 -1.86,-4.258 -4.657,-4.332 l -3.347,-0.086 -0.125,-0.504 4.332,0.113 c 2.203,0.059 2.683,-1.632 2.711,-2.617 0.058,-2.273 -1.922,-4.547 -4.629,-4.617 l -3.121,-0.082 c -0.321,-0.012 -0.371,-0.012 -0.504,0.004 -0.231,0.015 -0.297,0.039 -0.301,0.223 -0.004,0.062 -0.004,0.113 0.102,0.527 l 1.41,6.449 0.125,0.504 1.269,5.73 c 0.184,0.805 0.227,0.875 1.219,0.903 l 2.957,0.078 0.301,0.723 -7.707,-0.204 c -0.434,-0.011 -0.664,-0.019 -0.649,-0.48 0.004,-0.254 0.207,-0.246 0.645,-0.234 0.043,0 0.484,0.011 0.871,-0.02 0.414,-0.039 0.621,-0.059 0.629,-0.351 0,-0.094 -0.016,-0.168 -0.082,-0.442 l -2.746,-12.398 z"
         style="fill:#00a4fe;fill-opacity:1;fill-rule:nonzero;stroke:none"
         id="path3573"
         inkscape:connector-curvature="0" /><path
         d="m 334.316,585.511 0,0.14 -0.004,0.02 -0.003,0.012 0,0.043 -0.004,0.011 -0.004,0.016 0,0.008 -0.004,0.015 0,0.008 -0.004,0.016 0,0.008 -0.008,0.019 -0.015,0.032 -0.012,0.011 -0.008,0.016 -0.023,0.023 -0.032,0.016 -0.015,0.004 -0.02,0.004 -0.023,0.008 -0.02,0 -0.012,0.003 -0.015,0 -0.008,0.004 -0.055,0 -0.019,0.004 -0.082,0 -0.02,-0.004 -0.078,0 c -1.004,-1.039 -2.461,-1.093 -3.117,-1.109 l 0.012,-0.578 c 0.39,0.012 1.449,0.039 2.312,0.508 l 0.215,-8.18 c 0.012,-0.535 0.02,-0.742 -1.582,-0.785 l -0.606,-0.016 0.016,-0.574 c 0.285,0.02 2.254,0.121 2.852,0.137 0.5,0.015 2.523,0.015 2.871,0.011 l -0.016,0.579 -0.605,-0.02 c -1.61,-0.039 -1.614,0.168 -1.629,0.699 l -0.235,8.891 z"
         style="fill:#00a4fe;fill-opacity:1;fill-rule:nonzero;stroke:none"
         id="path3575"
         inkscape:connector-curvature="0" /><g
         id="g3577"
         transform="matrix(1,0.0496568,0.0496568,-1,0,841.88977)"><path
           d="m 100.808,282.033 c 3.873,20.56 8.863,40.913 14.931,60.937 3.373,11.132 7.211,22.413 14.401,31.559 3.594,4.573 8.013,8.55 13.16,11.263 5.147,2.708 11.038,4.114 16.829,3.589 6.118,-0.559 11.947,-3.258 16.677,-7.176 4.734,-3.917 8.409,-9.012 11.124,-14.525 5.434,-11.023 7.051,-23.463 8.924,-35.608 2.782,-18.022 6.28,-35.93 10.494,-53.674"
           style="fill:none;stroke:#00c0ff;stroke-width:0.79901499;stroke-linecap:butt;stroke-linejoin:miter;stroke-miterlimit:4;stroke-opacity:1;stroke-dasharray:none"
           id="path3579"
           inkscape:connector-curvature="0" /></g><g
         id="g3581"
         transform="matrix(1,0.0496568,0.0496568,-1,0,841.88977)"><path
           d="m 157.708,330.054 0.809,58.923 50.039,-3.632"
           style="fill:none;stroke:#0000ff;stroke-width:0.79901499;stroke-linecap:butt;stroke-linejoin:miter;stroke-miterlimit:4;stroke-opacity:1;stroke-dasharray:none"
           id="path3583"
           inkscape:connector-curvature="0" /></g><g
         id="g3585"
         transform="matrix(0.0633985,-1,-1,-0.0633985,0,841.88977)"><path
           d="m 339.911,-153.056 3.194,-3.192 -11.179,3.194 11.18,3.193 -3.195,-3.195 z"
           style="fill:#0000ff;fill-opacity:1;fill-rule:evenodd;stroke:#0000ff;stroke-width:0.798397;stroke-linecap:butt;stroke-linejoin:miter;stroke-miterlimit:4;stroke-opacity:1;stroke-dasharray:none"
           id="path3587"
           inkscape:connector-curvature="0" /></g><g
         id="g3589"
         transform="matrix(-1,-0.122679,-0.122679,1,0,841.88977)"><path
           d="m -171.057,-396.946 3.179,-3.177 -11.116,3.176 11.114,3.176 -3.177,-3.175 z"
           style="fill:#0000ff;fill-opacity:1;fill-rule:evenodd;stroke:#0000ff;stroke-width:0.794047;stroke-linecap:butt;stroke-linejoin:miter;stroke-miterlimit:4;stroke-opacity:1;stroke-dasharray:none"
           id="path3591"
           inkscape:connector-curvature="0" /></g><g
         id="g3593"
         transform="matrix(1,0.0496568,0.0496568,-1,0,841.88977)"><path
           d="m 158.11,388.976 -15.332,31.477"
           style="fill:none;stroke:#0000ff;stroke-width:0.79901499;stroke-linecap:butt;stroke-linejoin:miter;stroke-miterlimit:4;stroke-opacity:1;stroke-dasharray:none"
           id="path3595"
           inkscape:connector-curvature="0" /></g><g
         id="g3597"
         transform="matrix(0.427188,1,1,-0.427188,0,841.88977)"><path
           d="m -283.093,287.731 2.943,-2.941 -10.298,2.942 10.299,2.94 -2.944,-2.941 z"
           style="fill:#0000ff;fill-opacity:1;fill-rule:evenodd;stroke:#0000ff;stroke-width:0.73568398;stroke-linecap:butt;stroke-linejoin:miter;stroke-miterlimit:4;stroke-opacity:1;stroke-dasharray:none"
           id="path3599"
           inkscape:connector-curvature="0" /></g><g
         id="g3601"
         transform="matrix(1,0.0496568,0.0496568,-1,0,841.88977)"><path
           d="m 221.283,266.394 c 3.878,20.56 8.863,40.913 14.932,60.937 3.373,11.133 7.211,22.413 14.401,31.559 3.593,4.573 8.013,8.55 13.16,11.263 5.146,2.709 11.038,4.114 16.829,3.59 6.122,-0.56 11.947,-3.259 16.681,-7.176 4.729,-3.918 8.408,-9.016 11.123,-14.526 5.431,-11.023 7.048,-23.462 8.921,-35.608 2.782,-18.022 6.284,-35.93 10.493,-53.674"
           style="fill:none;stroke:#00c0ff;stroke-width:0.79901499;stroke-linecap:butt;stroke-linejoin:miter;stroke-miterlimit:4;stroke-opacity:1;stroke-dasharray:none"
           id="path3603"
           inkscape:connector-curvature="0" /></g><path
         d="m 218.52,456.655 0.011,0.059 0.016,0.074 0.019,0.074 0.016,0.086 0.023,0.09 0.028,0.098 0.027,0.105 0.028,0.102 0.035,0.109 0.039,0.114 0.043,0.121 0.047,0.113 0.046,0.117 0.055,0.121 0.059,0.117 0.062,0.121 0.133,0.227 0.078,0.109 0.164,0.211 0.09,0.098 0.098,0.09 0.101,0.09 0.106,0.078 0.113,0.066 0.055,0.035 0.062,0.032 0.067,0.023 0.058,0.027 0.067,0.024 0.062,0.019 0.07,0.016 0.071,0.02 0.07,0.007 0.074,0.012 0.078,0.008 0.075,0.004 c 0.117,0 0.675,0.015 1.172,-0.274 -0.649,-0.132 -1.106,-0.73 -1.09,-1.289 0.011,-0.371 0.281,-0.816 0.91,-0.8 0.515,0.015 1.25,0.453 1.226,1.39 -0.031,1.223 -1.422,1.504 -2.214,1.485 -1.356,-0.04 -2.145,-1.297 -2.407,-1.84 -0.629,1.523 -1.898,1.726 -2.566,1.707 -2.438,-0.063 -3.695,-3.114 -3.68,-3.7 0.004,-0.234 0.242,-0.226 0.293,-0.226 0.184,0.004 0.258,0.059 0.293,0.266 0.727,2.5 2.262,3.125 3.055,3.148 0.445,0.012 1.262,-0.176 1.297,-1.531 0.019,-0.723 -0.332,-2.305 -1.11,-5.598 -0.336,-1.461 -1.129,-2.465 -2.16,-2.492 -0.14,0 -0.676,-0.016 -1.172,0.277 0.582,0.125 1.082,0.629 1.063,1.289 -0.016,0.629 -0.531,0.801 -0.883,0.789 -0.703,-0.015 -1.273,-0.636 -1.254,-1.39 0.027,-1.071 1.211,-1.508 2.234,-1.481 1.551,0.043 2.344,1.703 2.415,1.84 0.3,-0.855 1.167,-1.746 2.566,-1.707 2.41,0.063 3.672,3.109 3.656,3.695 -0.008,0.239 -0.219,0.231 -0.293,0.231 -0.207,-0.008 -0.258,-0.102 -0.293,-0.262 -0.707,-2.523 -2.281,-3.129 -3.031,-3.148 -0.918,-0.024 -1.313,0.715 -1.332,1.511 -0.016,0.516 0.113,1.032 0.348,2.067 l 0.711,3.226 z"
         style="fill:#0000ff;fill-opacity:1;fill-rule:nonzero;stroke:none"
         id="path3605"
         inkscape:connector-curvature="0" /><path
         d="m 229.539,456.788 -0.004,0.02 0,0.125 -0.004,0.019 0,0.016 -0.004,0.012 0,0.031 -0.004,0.012 -0.003,0.015 0,0.008 -0.004,0.016 0,0.007 -0.004,0.016 0,0.008 -0.016,0.039 -0.012,0.012 -0.007,0.015 -0.012,0.012 -0.008,0.016 -0.016,0.007 -0.011,0.008 -0.016,0.012 -0.039,0.008 -0.023,0.008 -0.02,0 -0.012,0.004 -0.015,0 -0.008,0.003 -0.059,0 -0.019,0.004 -0.047,0 -0.016,-0.004 -0.117,0 c -1.027,-1.062 -2.504,-1.113 -3.18,-1.132 l 0.016,-0.586 c 0.395,0.011 1.473,0.039 2.352,0.515 l 0.222,-8.336 c 0.012,-0.547 0.02,-0.757 -1.613,-0.8 l -0.617,-0.016 0.015,-0.586 c 0.293,0.02 2.297,0.125 2.911,0.141 0.503,0.015 2.566,0.015 2.929,0.011 l -0.015,0.586 -0.625,-0.015 c -1.637,-0.043 -1.645,0.168 -1.657,0.711 l -0.238,9.058 z"
         style="fill:#0000ff;fill-opacity:1;fill-rule:nonzero;stroke:none"
         id="path3607"
         inkscape:connector-curvature="0" /><path
         d="m 182.95824,443.91715 0.004,0.019 0.004,0.012 0.004,0.027 0.008,0.024 0.003,0.031 0.004,0.023 0.008,0.016 0.008,0.023 0.008,0.04 0,0.015 0.008,0.039 0.004,0.016 0,0.012 0.003,0.015 0,0.012 0.004,0.016 0,0.011 0.004,0.024 -0.004,0.027 0,0.047 0.004,0.023 0,0.055 c -0.011,0.422 -0.336,0.617 -0.683,0.605 -0.231,-0.003 -0.594,-0.152 -0.793,-0.503 -0.043,-0.118 -0.211,-0.829 -0.285,-1.25 -0.153,-0.602 -0.293,-1.227 -0.414,-1.852 l -0.93,-4.168 c -0.078,-0.348 -1.024,-1.98 -2.543,-2.019 -1.176,-0.032 -1.461,0.968 -1.481,1.82 -0.027,1.058 0.332,2.5 1.059,4.539 0.344,0.957 0.43,1.211 0.418,1.672 -0.027,1.031 -0.785,1.863 -1.938,1.832 -2.191,-0.059 -2.953,-3.41 -2.945,-3.621 0.004,-0.231 0.234,-0.227 0.285,-0.227 0.235,0.008 0.25,0.059 0.356,0.43 0.566,2.183 1.461,2.89 2.246,2.91 0.187,0.008 0.578,0.016 0.597,-0.719 0.016,-0.574 -0.199,-1.172 -0.351,-1.621 -0.852,-2.461 -1.238,-3.785 -1.211,-4.867 0.055,-2.043 1.527,-2.695 2.879,-2.66 0.906,0.023 1.672,0.437 2.297,1.094 -0.266,-1.2 -0.508,-2.336 -1.399,-3.586 -0.578,-0.789 -1.433,-1.489 -2.492,-1.516 -0.32,-0.008 -1.359,0.039 -1.777,0.926 0.371,0.008 0.676,0.015 0.984,0.304 0.223,0.207 0.446,0.516 0.434,0.95 -0.016,0.718 -0.637,0.793 -0.871,0.789 -0.524,-0.016 -1.282,-0.407 -1.25,-1.532 0.027,-1.156 1.07,-1.976 2.492,-1.941 2.375,0.063 4.683,2.227 5.265,4.84 l 1.977,8.844 z"
         style="fill:#0000ff;fill-opacity:1;fill-rule:nonzero;stroke:none"
         id="path3609"
         inkscape:connector-curvature="0" /><path
         d="m 188.51724,442.09615 0,0.11 -0.004,0.019 0,0.032 -0.004,0.011 0,0.043 -0.008,0.016 0,0.023 -0.004,0.012 0,0.008 -0.004,0.015 -0.004,0.008 -0.008,0.02 -0.003,0.019 -0.012,0.012 -0.008,0.016 -0.012,0.011 -0.007,0.016 -0.016,0.008 -0.012,0.008 -0.015,0.007 -0.02,0.004 -0.016,0.008 -0.023,0.008 -0.02,0 -0.015,0.004 -0.012,0 -0.012,0.004 -0.027,0 -0.012,-0.004 -0.015,0 -0.02,0.004 -0.117,0 -0.023,-0.004 -0.043,0 c -1.004,-1.043 -2.461,-1.094 -3.122,-1.113 l 0.016,-0.575 c 0.387,0.008 1.449,0.036 2.316,0.508 l 0.215,-8.203 c 0.012,-0.539 0.02,-0.746 -1.589,-0.789 l -0.602,-0.016 0.016,-0.574 c 0.285,0.02 2.257,0.121 2.859,0.137 0.5,0.015 2.527,0.015 2.879,0.012 l -0.016,0.578 -0.609,-0.016 c -1.613,-0.043 -1.617,0.164 -1.633,0.699 l -0.234,8.914 z"
         style="fill:#0000ff;fill-opacity:1;fill-rule:nonzero;stroke:none"
         id="path3611"
         inkscape:connector-curvature="0" /><g
         id="g3617"
         transform="matrix(1,0,0,-1,0,841.88977)"><path
           d="m 296.582,287.922 0.402,72.73 69.903,-27.07"
           style="fill:none;stroke:#00ff00;stroke-width:0.80000001;stroke-linecap:butt;stroke-linejoin:miter;stroke-miterlimit:4;stroke-opacity:1;stroke-dasharray:none"
           id="path3619"
           inkscape:connector-curvature="0" /></g><g
         id="g3621"
         transform="matrix(0.00555549,-1,-1,-0.00555549,0,841.88977)"><path
           d="m 297.561,-294.972 3.201,-3.201 -11.201,3.2 11.201,3.202 -3.201,-3.201 z"
           style="fill:#00ff00;fill-opacity:1;fill-rule:evenodd;stroke:#00ff00;stroke-width:0.79998797;stroke-linecap:butt;stroke-linejoin:miter;stroke-miterlimit:4;stroke-opacity:1;stroke-dasharray:none"
           id="path3623"
           inkscape:connector-curvature="0" /></g><g
         id="g3625"
         transform="matrix(-1,-0.387283,-0.387283,1,0,841.88977)"><path
           d="m -199.234,-413.629 2.984,-2.985 -10.444,2.983 10.441,2.985 -2.981,-2.983 z"
           style="fill:#00ff00;fill-opacity:1;fill-rule:evenodd;stroke:#00ff00;stroke-width:0.74600798;stroke-linecap:butt;stroke-linejoin:miter;stroke-miterlimit:4;stroke-opacity:1;stroke-dasharray:none"
           id="path3627"
           inkscape:connector-curvature="0" /></g><g
         id="g3629"
         transform="matrix(1,0,0,-1,0,841.88977)"><path
           d="m 296.832,360.805 54.699,35.808"
           style="fill:none;stroke:#00ff00;stroke-width:0.80000001;stroke-linecap:butt;stroke-linejoin:miter;stroke-miterlimit:4;stroke-opacity:1;stroke-dasharray:none"
           id="path3631"
           inkscape:connector-curvature="0" /></g><g
         id="g3633"
         transform="matrix(-1,0.654663,0.654663,1,0,841.88977)"><path
           d="m -421.131,-116.535 2.678,-2.676 -9.369,2.677 9.371,2.678 -2.68,-2.679 z"
           style="fill:#00ff00;fill-opacity:1;fill-rule:evenodd;stroke:#00ff00;stroke-width:0.66932499;stroke-linecap:butt;stroke-linejoin:miter;stroke-miterlimit:4;stroke-opacity:1;stroke-dasharray:none"
           id="path3635"
           inkscape:connector-curvature="0" /></g><path
         d="m 370.68,500.937 0.011,0.054 0.02,0.067 0.016,0.066 0.015,0.078 0.028,0.078 0.023,0.09 0.027,0.094 0.032,0.094 0.031,0.097 0.039,0.102 0.043,0.105 0.043,0.102 0.047,0.105 0.05,0.11 0.055,0.105 0.059,0.106 0.062,0.101 0.067,0.102 0.07,0.098 0.078,0.093 0.074,0.094 0.086,0.086 0.09,0.078 0.094,0.078 0.098,0.067 0.105,0.058 0.051,0.031 0.054,0.028 0.059,0.019 0.055,0.02 0.062,0.023 0.059,0.016 0.062,0.012 0.063,0.015 0.133,0.016 0.07,0.004 0.066,0 c 0.106,0 0.61,0 1.051,-0.27 -0.59,-0.109 -1.012,-0.636 -1.012,-1.144 0,-0.336 0.231,-0.742 0.801,-0.742 0.469,0 1.141,0.378 1.141,1.226 0,1.106 -1.246,1.395 -1.965,1.395 -1.227,0 -1.969,-1.121 -2.219,-1.606 -0.531,1.391 -1.672,1.606 -2.281,1.606 -2.203,0 -3.41,-2.727 -3.41,-3.258 0,-0.211 0.211,-0.211 0.258,-0.211 0.164,0 0.234,0.047 0.273,0.234 0.715,2.239 2.117,2.77 2.832,2.77 0.406,0 1.141,-0.188 1.141,-1.414 0,-0.653 -0.36,-2.074 -1.141,-5.035 -0.34,-1.309 -1.078,-2.196 -2.012,-2.196 -0.125,0 -0.609,0 -1.05,0.274 0.531,0.101 0.992,0.543 0.992,1.14 0,0.571 -0.461,0.735 -0.781,0.735 -0.637,0 -1.168,-0.547 -1.168,-1.227 0,-0.965 1.062,-1.39 1.988,-1.39 1.402,0 2.156,1.48 2.223,1.605 0.25,-0.781 1.015,-1.605 2.281,-1.605 2.179,0 3.39,2.726 3.39,3.253 0,0.215 -0.191,0.215 -0.257,0.215 -0.188,0 -0.235,-0.086 -0.274,-0.23 -0.695,-2.262 -2.133,-2.77 -2.812,-2.77 -0.828,0 -1.168,0.672 -1.168,1.395 0,0.469 0.129,0.93 0.363,1.859 l 0.719,2.899 z"
         style="fill:#00ff00;fill-opacity:1;fill-rule:nonzero;stroke:none"
         id="path3637"
         inkscape:connector-curvature="0" /><path
         d="m 383.156,494.085 -0.5,0 c -0.043,-0.324 -0.195,-1.199 -0.386,-1.348 -0.11,-0.086 -1.254,-0.086 -1.461,-0.086 l -2.727,0 c 1.555,1.372 2.074,1.782 2.961,2.481 1.094,0.879 2.113,1.789 2.113,3.199 0,1.785 -1.562,2.883 -3.461,2.883 -1.828,0 -3.078,-1.285 -3.078,-2.645 0,-0.757 0.637,-0.832 0.793,-0.832 0.352,0 0.778,0.254 0.778,0.786 0,0.261 -0.106,0.781 -0.872,0.781 0.457,1.047 1.465,1.375 2.161,1.375 1.48,0 2.25,-1.153 2.25,-2.348 0,-1.289 -0.918,-2.308 -1.395,-2.84 l -3.559,-3.523 c -0.156,-0.133 -0.156,-0.164 -0.156,-0.578 l 6.098,0 0.441,2.695 z"
         style="fill:#00ff00;fill-opacity:1;fill-rule:nonzero;stroke:none"
         id="path3639"
         inkscape:connector-curvature="0" /><path
         d="m 374.008,463.87 0.004,0.02 0.004,0.011 0.004,0.024 0.007,0.019 0.004,0.028 0.004,0.019 0.012,0.016 0.008,0.039 0.004,0.016 0,0.015 0.003,0.016 0.004,0.019 0.004,0.012 0,0.012 0.004,0.012 0,0.011 0.004,0.012 0,0.012 0.004,0.023 0,0.067 0.004,0.019 0,0.051 c 0,0.371 -0.285,0.555 -0.594,0.555 -0.203,0 -0.535,-0.125 -0.719,-0.434 -0.043,-0.102 -0.207,-0.73 -0.285,-1.105 -0.148,-0.532 -0.285,-1.086 -0.41,-1.641 l -0.926,-3.692 c -0.078,-0.308 -0.961,-1.742 -2.312,-1.742 -1.047,0 -1.278,0.899 -1.278,1.66 0,0.942 0.356,2.219 1.051,4.016 0.328,0.844 0.41,1.07 0.41,1.484 0,0.918 -0.652,1.676 -1.683,1.676 -1.949,0 -2.707,-2.969 -2.707,-3.16 0,-0.203 0.203,-0.203 0.25,-0.203 0.207,0 0.222,0.043 0.324,0.375 0.559,1.93 1.371,2.539 2.07,2.539 0.164,0 0.516,0 0.516,-0.656 0,-0.512 -0.207,-1.039 -0.352,-1.434 -0.816,-2.176 -1.191,-3.344 -1.191,-4.312 0,-1.817 1.297,-2.434 2.504,-2.434 0.805,0 1.496,0.348 2.07,0.922 -0.265,-1.063 -0.508,-2.07 -1.332,-3.164 -0.535,-0.692 -1.312,-1.293 -2.254,-1.293 -0.285,0 -1.211,0.066 -1.562,0.867 0.332,0 0.601,0 0.883,0.25 0.207,0.176 0.41,0.449 0.41,0.836 0,0.637 -0.551,0.719 -0.758,0.719 -0.469,0 -1.152,-0.328 -1.152,-1.332 0,-1.031 0.91,-1.785 2.179,-1.785 2.114,0 4.223,1.871 4.801,4.183 l 1.969,7.832 z"
         style="fill:#00ff00;fill-opacity:1;fill-rule:nonzero;stroke:none"
         id="path3641"
         inkscape:connector-curvature="0" /><path
         d="m 381.355,455.612 -0.484,0 c -0.043,-0.32 -0.191,-1.168 -0.375,-1.308 -0.113,-0.086 -1.215,-0.086 -1.418,-0.086 l -2.64,0 c 1.503,1.332 2.007,1.73 2.867,2.406 1.062,0.852 2.05,1.735 2.05,3.102 0,1.734 -1.515,2.797 -3.355,2.797 -1.777,0 -2.984,-1.247 -2.984,-2.567 0,-0.73 0.617,-0.805 0.765,-0.805 0.344,0 0.758,0.247 0.758,0.762 0,0.254 -0.101,0.758 -0.848,0.758 0.446,1.016 1.422,1.332 2.094,1.332 1.438,0 2.184,-1.117 2.184,-2.277 0,-1.25 -0.891,-2.239 -1.352,-2.754 l -3.453,-3.414 c -0.148,-0.129 -0.148,-0.16 -0.148,-0.559 l 5.91,0 0.429,2.613 z"
         style="fill:#00ff00;fill-opacity:1;fill-rule:nonzero;stroke:none"
         id="path3643"
         inkscape:connector-curvature="0" /><path
         d="m 303.352,543.745 0.109,0.121 0.211,0.219 0.101,0.106 0.094,0.101 0.098,0.094 0.094,0.098 0.086,0.093 0.089,0.086 0.086,0.086 0.086,0.082 0.082,0.082 0.078,0.074 0.082,0.082 0.157,0.145 0.148,0.141 0.289,0.257 0.141,0.125 0.285,0.247 0.144,0.128 0.145,0.122 c 0,0.023 1.352,1.183 2.141,1.972 2.078,2.035 2.558,3.082 2.558,3.164 0,0.219 -0.199,0.219 -0.242,0.219 -0.152,0 -0.219,-0.039 -0.328,-0.238 -0.652,-1.047 -1.109,-1.399 -1.641,-1.399 -0.527,0 -0.785,0.328 -1.113,0.696 -0.414,0.511 -0.781,0.941 -1.512,0.941 -1.636,0 -2.64,-2.027 -2.64,-2.488 0,-0.11 0.062,-0.239 0.265,-0.239 0.196,0 0.235,0.11 0.278,0.239 0.418,1.008 1.687,1.031 1.859,1.031 0.457,0 0.875,-0.16 1.375,-0.328 0.879,-0.332 1.121,-0.332 1.691,-0.332 -0.789,-0.938 -2.628,-2.516 -3.039,-2.863 l -1.968,-1.836 c -1.489,-1.465 -2.254,-2.711 -2.254,-2.864 0,-0.218 0.218,-0.218 0.258,-0.218 0.179,0 0.218,0.043 0.351,0.281 0.508,0.765 1.156,1.359 1.859,1.359 0.504,0 0.723,-0.203 1.27,-0.832 0.375,-0.461 0.766,-0.808 1.395,-0.808 2.168,0 3.433,2.777 3.433,3.363 0,0.109 -0.086,0.219 -0.258,0.219 -0.199,0 -0.242,-0.125 -0.312,-0.286 -0.5,-1.421 -1.895,-1.828 -2.621,-1.828 -0.43,0 -0.832,0.125 -1.293,0.282 -0.735,0.281 -1.063,0.367 -1.524,0.367 -0.047,0 -0.39,0 -0.593,-0.063 z"
         style="fill:#00ff00;fill-opacity:1;fill-rule:nonzero;stroke:none"
         id="path3645"
         inkscape:connector-curvature="0" /><path
         d="m 318.328,541.452 -0.519,0 c -0.043,-0.34 -0.204,-1.242 -0.399,-1.394 -0.117,-0.09 -1.293,-0.09 -1.508,-0.09 l -2.82,0 c 1.609,1.418 2.145,1.844 3.059,2.562 1.132,0.911 2.187,1.852 2.187,3.309 0,1.848 -1.617,2.98 -3.578,2.98 -1.895,0 -3.18,-1.328 -3.18,-2.734 0,-0.781 0.657,-0.859 0.817,-0.859 0.359,0 0.804,0.261 0.804,0.812 0,0.27 -0.109,0.805 -0.902,0.805 0.473,1.086 1.516,1.422 2.234,1.422 1.532,0 2.325,-1.188 2.325,-2.426 0,-1.332 -0.946,-2.387 -1.438,-2.934 l -3.683,-3.644 c -0.157,-0.133 -0.157,-0.168 -0.157,-0.594 l 6.301,0 0.457,2.785 z"
         style="fill:#00ff00;fill-opacity:1;fill-rule:nonzero;stroke:none"
         id="path3647"
         inkscape:connector-curvature="0" /><path
         d="m 308.559,466.523 0.003,0.019 0.004,0.012 0.004,0.031 0.008,0.024 0.004,0.027 0.004,0.023 0.008,0.016 0.004,0.023 0.007,0.039 0,0.02 0.004,0.016 0.004,0.019 0.008,0.016 -0.004,0.011 0.008,0.016 -0.004,0.012 0.008,0.015 -0.004,0.016 0.004,0.02 0,0.074 0.004,0.023 0,0.055 c -0.012,0.422 -0.336,0.617 -0.684,0.609 -0.23,-0.008 -0.597,-0.156 -0.793,-0.508 -0.043,-0.117 -0.211,-0.828 -0.289,-1.25 -0.148,-0.601 -0.289,-1.226 -0.41,-1.851 l -0.93,-4.168 c -0.082,-0.348 -1.027,-1.981 -2.547,-2.02 -1.171,-0.031 -1.457,0.969 -1.476,1.821 -0.031,1.058 0.328,2.5 1.058,4.539 0.344,0.957 0.43,1.211 0.418,1.676 -0.027,1.027 -0.785,1.859 -1.941,1.828 -2.187,-0.059 -2.949,-3.41 -2.941,-3.621 0.004,-0.231 0.234,-0.227 0.285,-0.223 0.23,0.004 0.25,0.055 0.355,0.43 0.567,2.179 1.461,2.886 2.246,2.91 0.184,0.004 0.578,0.012 0.598,-0.719 0.016,-0.578 -0.199,-1.176 -0.352,-1.625 -0.855,-2.461 -1.238,-3.781 -1.21,-4.867 0.054,-2.043 1.527,-2.695 2.878,-2.66 0.907,0.023 1.672,0.437 2.297,1.093 -0.265,-1.199 -0.507,-2.335 -1.398,-3.582 -0.582,-0.793 -1.438,-1.488 -2.492,-1.519 -0.321,-0.008 -1.36,0.039 -1.778,0.926 0.371,0.007 0.676,0.015 0.981,0.308 0.226,0.203 0.449,0.516 0.437,0.949 -0.019,0.715 -0.64,0.79 -0.871,0.786 -0.523,-0.016 -1.281,-0.407 -1.254,-1.532 0.032,-1.152 1.075,-1.976 2.496,-1.937 2.375,0.062 4.684,2.223 5.266,4.836 l 1.977,8.844 z"
         style="fill:#0000ff;fill-opacity:1;fill-rule:nonzero;stroke:none"
         id="path3649"
         inkscape:connector-curvature="0" /><path
         d="m 314.117,464.702 0,0.078 -0.004,0.012 0,0.07 -0.004,0.016 0,0.027 -0.004,0.012 -0.003,0.016 0,0.023 -0.004,0.012 0,0.012 -0.008,0.011 0,0.008 -0.008,0.02 -0.004,0.019 -0.012,0.012 -0.007,0.016 -0.012,0.011 -0.008,0.016 -0.031,0.016 -0.012,0.011 -0.039,0.008 -0.023,0.008 -0.016,0 -0.016,0.004 -0.011,0 -0.012,0.004 -0.055,0 -0.019,0.004 -0.012,-0.004 -0.129,0 -0.019,-0.004 -0.024,0 c -1.004,-1.043 -2.461,-1.094 -3.121,-1.11 l 0.016,-0.578 c 0.386,0.008 1.449,0.039 2.312,0.508 l 0.219,-8.203 c 0.012,-0.535 0.019,-0.746 -1.59,-0.785 l -0.605,-0.016 0.015,-0.578 c 0.289,0.02 2.262,0.125 2.863,0.141 0.497,0.011 2.528,0.015 2.879,0.007 l -0.015,0.579 -0.61,-0.016 c -1.613,-0.043 -1.617,0.164 -1.632,0.703 l -0.235,8.91 z"
         style="fill:#0000ff;fill-opacity:1;fill-rule:nonzero;stroke:none"
         id="path3651"
         inkscape:connector-curvature="0" /><path
         d="m 338.426,489.468 0.012,0.062 0.019,0.071 0.016,0.074 0.015,0.086 0.028,0.09 0.023,0.097 0.027,0.106 0.032,0.105 0.074,0.223 0.043,0.117 0.043,0.113 0.051,0.118 0.05,0.121 0.059,0.117 0.062,0.121 0.067,0.113 0.07,0.114 0.074,0.113 0.164,0.211 0.09,0.094 0.098,0.093 0.102,0.086 0.105,0.078 0.117,0.071 0.055,0.031 0.058,0.031 0.067,0.024 0.058,0.027 0.133,0.047 0.141,0.031 0.07,0.012 0.149,0.015 0.074,0.004 c 0.117,0 0.676,0.016 1.172,-0.269 -0.649,-0.137 -1.102,-0.735 -1.086,-1.293 0.008,-0.371 0.277,-0.817 0.906,-0.797 0.516,0.012 1.25,0.449 1.227,1.387 -0.032,1.222 -1.418,1.504 -2.211,1.484 -1.36,-0.035 -2.149,-1.297 -2.41,-1.84 -0.625,1.524 -1.895,1.727 -2.567,1.707 -2.437,-0.062 -3.695,-3.109 -3.68,-3.699 0.008,-0.234 0.243,-0.227 0.293,-0.227 0.184,0.004 0.258,0.059 0.293,0.266 0.731,2.5 2.262,3.129 3.055,3.148 0.445,0.012 1.266,-0.171 1.301,-1.531 0.019,-0.722 -0.336,-2.304 -1.113,-5.597 -0.336,-1.461 -1.125,-2.461 -2.161,-2.489 -0.14,-0.004 -0.675,-0.019 -1.171,0.274 0.585,0.129 1.082,0.629 1.066,1.289 -0.016,0.629 -0.535,0.801 -0.887,0.793 -0.703,-0.02 -1.273,-0.641 -1.254,-1.391 0.028,-1.07 1.215,-1.512 2.239,-1.484 1.546,0.043 2.339,1.703 2.41,1.84 0.301,-0.856 1.168,-1.746 2.566,-1.707 2.414,0.062 3.672,3.113 3.656,3.699 -0.007,0.234 -0.218,0.226 -0.293,0.226 -0.207,-0.007 -0.253,-0.101 -0.293,-0.261 -0.703,-2.524 -2.281,-3.129 -3.031,-3.149 -0.914,-0.023 -1.308,0.715 -1.332,1.512 -0.012,0.516 0.113,1.031 0.352,2.066 l 0.707,3.227 z"
         style="fill:#0000ff;fill-opacity:1;fill-rule:nonzero;stroke:none"
         id="path3653"
         inkscape:connector-curvature="0" /><path
         d="m 349.445,489.601 0,0.062 -0.004,0.02 0,0.097 -0.007,0.016 0,0.027 -0.004,0.012 0,0.024 -0.004,0.015 -0.004,0.008 -0.004,0.016 0,0.007 -0.004,0.02 -0.012,0.019 -0.007,0.012 -0.012,0.016 -0.008,0.015 -0.012,0.012 -0.011,0.008 -0.016,0.012 -0.016,0.007 -0.019,0.004 -0.016,0.004 -0.023,0.008 -0.02,0 -0.015,0.004 -0.016,0 -0.008,0.004 -0.055,0 -0.019,0.004 -0.086,0 -0.02,-0.004 -0.078,0 c -1.023,-1.063 -2.504,-1.113 -3.179,-1.133 l 0.015,-0.586 c 0.395,0.012 1.477,0.039 2.356,0.52 l 0.218,-8.34 c 0.016,-0.547 0.02,-0.758 -1.613,-0.801 l -0.613,-0.016 0.016,-0.585 c 0.289,0.023 2.296,0.125 2.906,0.14 0.508,0.016 2.57,0.02 2.929,0.012 l -0.015,0.59 -0.625,-0.02 c -1.637,-0.043 -1.641,0.168 -1.656,0.715 l -0.239,9.055 z"
         style="fill:#0000ff;fill-opacity:1;fill-rule:nonzero;stroke:none"
         id="path3655"
         inkscape:connector-curvature="0" /><path
         d="m 302.66,515.886 0.117,0.129 0.11,0.121 0.109,0.125 0.106,0.113 0.101,0.113 0.102,0.106 0.097,0.109 0.09,0.102 0.188,0.187 0.086,0.094 0.086,0.09 0.171,0.172 0.165,0.16 0.156,0.156 0.152,0.145 0.152,0.14 0.149,0.145 0.301,0.269 0.152,0.145 0.152,0.137 c -0.004,0.023 1.422,1.308 2.25,2.183 2.18,2.254 2.672,3.399 2.668,3.485 -0.004,0.234 -0.222,0.23 -0.265,0.23 -0.164,-0.008 -0.235,-0.051 -0.348,-0.266 -0.676,-1.148 -1.156,-1.542 -1.73,-1.554 -0.567,-0.016 -0.856,0.332 -1.219,0.719 -0.461,0.539 -0.871,0.992 -1.656,0.968 -1.766,-0.047 -2.79,-2.261 -2.778,-2.758 0.004,-0.117 0.074,-0.253 0.293,-0.246 0.211,0.004 0.25,0.125 0.293,0.262 0.422,1.102 1.789,1.16 1.973,1.164 0.496,0.016 0.953,-0.144 1.496,-0.312 0.953,-0.332 1.215,-0.325 1.832,-0.309 -0.828,-1.035 -2.766,-2.789 -3.195,-3.176 l -2.071,-2.035 c -1.562,-1.621 -2.355,-2.984 -2.351,-3.152 0.008,-0.235 0.242,-0.231 0.285,-0.227 0.195,0.004 0.234,0.051 0.371,0.313 0.527,0.84 1.211,1.496 1.969,1.519 0.543,0.012 0.785,-0.199 1.39,-0.859 0.418,-0.488 0.852,-0.856 1.528,-0.836 2.336,0.062 3.625,3.094 3.609,3.727 -0.004,0.117 -0.101,0.234 -0.285,0.23 -0.219,-0.008 -0.258,-0.145 -0.328,-0.316 -0.5,-1.551 -1.992,-2.028 -2.778,-2.051 -0.464,-0.012 -0.898,0.117 -1.398,0.269 -0.805,0.282 -1.16,0.368 -1.66,0.352 -0.047,0 -0.418,-0.012 -0.637,-0.082 z"
         style="fill:#0000ff;fill-opacity:1;fill-rule:nonzero;stroke:none"
         id="path3657"
         inkscape:connector-curvature="0" /><path
         d="m 315.875,521.241 0,0.098 -0.004,0.016 0,0.054 -0.004,0.012 0,0.043 -0.008,0.016 0,0.023 -0.004,0.012 0,0.011 -0.007,0.012 0,0.012 -0.008,0.019 -0.016,0.032 -0.012,0.015 -0.007,0.012 -0.012,0.016 -0.012,0.007 -0.015,0.008 -0.016,0.012 -0.039,0.008 -0.023,0.008 -0.016,0 -0.016,0.004 -0.015,0 -0.008,0.003 -0.059,0 -0.019,0.004 -0.047,0 -0.02,-0.004 -0.121,0 c -1.027,-1.07 -2.523,-1.125 -3.199,-1.14 l 0.016,-0.594 c 0.398,0.012 1.484,0.039 2.371,0.524 l 0.222,-8.407 c 0.016,-0.551 0.02,-0.761 -1.625,-0.804 l -0.621,-0.02 0.016,-0.59 c 0.293,0.024 2.316,0.129 2.93,0.145 0.511,0.011 2.589,0.015 2.949,0.011 l -0.016,0.59 -0.621,-0.015 c -1.652,-0.043 -1.66,0.168 -1.672,0.718 l -0.242,9.129 z"
         style="fill:#0000ff;fill-opacity:1;fill-rule:nonzero;stroke:none"
         id="path3659"
         inkscape:connector-curvature="0" /><g
         id="g3661"
         transform="matrix(1,0,0,-1,0,841.88977)"><path
           d="m 296.801,311.273 0.238,49.438 39.785,-15.375"
           style="fill:none;stroke:#0000ff;stroke-width:0.80000001;stroke-linecap:butt;stroke-linejoin:miter;stroke-miterlimit:4;stroke-opacity:1;stroke-dasharray:none"
           id="path3663"
           inkscape:connector-curvature="0" /></g><g
         id="g3665"
         transform="matrix(0.00478771,-1,-1,-0.00478771,0,841.88977)"><path
           d="m 320.687,-295.304 3.199,-3.2 -11.199,3.2 11.2,3.198 -3.2,-3.198 z"
           style="fill:#0000ff;fill-opacity:1;fill-rule:evenodd;stroke:#0000ff;stroke-width:0.79999101;stroke-linecap:butt;stroke-linejoin:miter;stroke-miterlimit:4;stroke-opacity:1;stroke-dasharray:none"
           id="path3667"
           inkscape:connector-curvature="0" /></g><g
         id="g3669"
         transform="matrix(-1,-0.386469,-0.386469,1,0,841.88977)"><path
           d="m -169.475,-413.716 2.986,-2.986 -10.447,2.986 10.444,2.985 -2.983,-2.985 z"
           style="fill:#0000ff;fill-opacity:1;fill-rule:evenodd;stroke:#0000ff;stroke-width:0.74621201;stroke-linecap:butt;stroke-linejoin:miter;stroke-miterlimit:4;stroke-opacity:1;stroke-dasharray:none"
           id="path3671"
           inkscape:connector-curvature="0" /></g><g
         id="g3673"
         transform="matrix(1,0,0,-1,0,841.88977)"><path
           d="m 296.957,360.934 35.852,23.332"
           style="fill:none;stroke:#0000ff;stroke-width:0.80000001;stroke-linecap:butt;stroke-linejoin:miter;stroke-miterlimit:4;stroke-opacity:1;stroke-dasharray:none"
           id="path3675"
           inkscape:connector-curvature="0" /></g><g
         id="g3677"
         transform="matrix(-1,0.650761,0.650761,1,0,841.88977)"><path
           d="m -402.764,-117.799 2.683,-2.684 -9.387,2.683 9.385,2.682 -2.681,-2.681 z"
           style="fill:#0000ff;fill-opacity:1;fill-rule:evenodd;stroke:#0000ff;stroke-width:0.67052197;stroke-linecap:butt;stroke-linejoin:miter;stroke-miterlimit:4;stroke-opacity:1;stroke-dasharray:none"
           id="path3679"
           inkscape:connector-curvature="0" /></g><path
         d="m 188.996,554.558 -0.019,-0.082 -0.016,-0.078 -0.023,-0.075 -0.032,-0.14 -0.023,-0.059 -0.02,-0.062 -0.023,-0.055 -0.02,-0.051 -0.027,-0.051 -0.031,-0.046 -0.063,-0.086 -0.039,-0.036 -0.043,-0.035 -0.051,-0.031 -0.046,-0.031 -0.059,-0.028 -0.063,-0.023 -0.066,-0.023 -0.074,-0.02 -0.039,-0.012 -0.086,-0.015 -0.043,-0.012 -0.047,-0.004 -0.047,-0.008 -0.051,-0.004 -0.054,-0.011 -0.051,-0.008 -0.059,-0.004 -0.054,-0.004 -0.063,-0.004 -0.062,-0.008 -0.067,0 -0.062,-0.008 -0.071,0 -0.074,-0.007 -0.07,0 -0.074,-0.004 -0.079,0 -0.082,-0.004 -0.085,-0.004 c -0.391,-0.008 -0.622,-0.016 -0.61,-0.477 0.008,-0.254 0.219,-0.246 0.629,-0.234 l 8.188,0.215 c 3.625,0.094 6.261,2.871 6.203,5.121 -0.043,1.648 -1.41,2.945 -3.641,3.141 2.379,0.5 4.742,2.261 4.684,4.445 -0.043,1.695 -1.602,3.121 -4.356,3.051 l -0.301,-0.723 c 2.02,0.055 2.532,-1.285 2.559,-2.293 0.055,-2.02 -1.859,-4.254 -4.656,-4.328 l -3.348,-0.09 -0.125,-0.504 4.336,0.113 c 2.199,0.059 2.684,-1.628 2.707,-2.617 0.059,-2.273 -1.922,-4.547 -4.629,-4.617 l -3.121,-0.082 c -0.32,-0.008 -0.371,-0.012 -0.504,0.004 -0.23,0.019 -0.297,0.039 -0.301,0.223 0,0.066 -0.004,0.117 0.102,0.527 l 1.41,6.449 0.125,0.504 1.27,5.731 c 0.187,0.804 0.226,0.875 1.218,0.902 l 2.957,0.078 0.301,0.723 -7.703,-0.203 c -0.434,-0.012 -0.664,-0.02 -0.652,-0.477 0.008,-0.254 0.207,-0.25 0.644,-0.238 0.043,0 0.485,0.011 0.875,-0.02 0.41,-0.039 0.617,-0.055 0.625,-0.351 0.004,-0.09 -0.015,-0.164 -0.082,-0.438 l -2.746,-12.402 z"
         style="fill:#00a4fe;fill-opacity:1;fill-rule:nonzero;stroke:none"
         id="path3681"
         inkscape:connector-curvature="0" /><path
         d="m 207.977,560.05 0,0.035 -0.004,0.024 0,0.101 -0.008,0.016 0,0.039 -0.004,0.015 0,0.024 -0.008,0.012 0,0.007 -0.004,0.016 0,0.008 -0.004,0.019 -0.011,0.02 -0.008,0.012 -0.012,0.015 -0.008,0.012 -0.011,0.016 -0.012,0.007 -0.016,0.008 -0.012,0.008 -0.039,0.008 -0.023,0.012 -0.02,0 -0.011,0.003 -0.016,0 -0.008,0.004 -0.015,0 -0.012,-0.004 -0.027,0 -0.02,0.004 -0.121,0 -0.02,-0.004 -0.039,0 c -1.004,-1.039 -2.461,-1.089 -3.117,-1.109 l 0.016,-0.574 c 0.387,0.008 1.445,0.035 2.308,0.508 l 0.215,-8.184 c 0.016,-0.535 0.02,-0.742 -1.582,-0.785 l -0.605,-0.016 0.015,-0.574 c 0.286,0.02 2.254,0.125 2.856,0.141 0.496,0.011 2.519,0.015 2.871,0.007 l -0.016,0.579 -0.609,-0.016 c -1.606,-0.043 -1.613,0.164 -1.625,0.699 l -0.234,8.887 z"
         style="fill:#00a4fe;fill-opacity:1;fill-rule:nonzero;stroke:none"
         id="path3683"
         inkscape:connector-curvature="0" /><path
         d="m 113.07,544.128 -9.293,0 0,-0.523 0.411,0 c 1.3,0 1.335,-0.184 1.335,-0.789 l 0,-8.868 c 0,-0.613 -0.035,-0.797 -1.335,-0.797 l -0.411,0 0,-0.527 c 0.594,0.055 1.918,0.055 2.575,0.055 0.699,0 2.234,0 2.843,-0.055 l 0,0.527 -0.558,0 c -1.61,0 -1.61,0.219 -1.61,0.813 l 0,4.16 1.457,0 c 1.625,0 1.793,-0.543 1.793,-1.98 l 0.422,0 0,4.484 -0.422,0 c 0,-1.422 -0.168,-1.98 -1.793,-1.98 l -1.457,0 0,4.281 c 0,0.558 0.035,0.676 0.832,0.676 l 2.028,0 c 2.543,0 2.961,-0.942 3.23,-3.278 l 0.426,0 -0.473,3.801 z"
         style="fill:#000000;fill-opacity:1;fill-rule:nonzero;stroke:none"
         id="path3685"
         inkscape:connector-curvature="0" /><path
         d="m 117.258,544.37 -2.434,-0.187 0,-0.528 c 1.18,0 1.321,-0.113 1.321,-0.945 l 0,-8.801 c 0,-0.758 -0.188,-0.758 -1.321,-0.758 l 0,-0.527 c 0.555,0.02 1.453,0.055 1.879,0.055 0.422,0 1.25,-0.035 1.875,-0.055 l 0,0.527 c -1.133,0 -1.32,0 -1.32,0.758 l 0,10.461 z"
         style="fill:#000000;fill-opacity:1;fill-rule:nonzero;stroke:none"
         id="path3687"
         inkscape:connector-curvature="0" /><path
         d="m 126.922,536.245 -0.004,0.203 -0.016,0.2 -0.023,0.195 -0.031,0.195 -0.047,0.192 -0.047,0.183 -0.059,0.184 -0.07,0.179 -0.074,0.176 -0.172,0.336 -0.098,0.16 -0.105,0.157 -0.114,0.148 -0.121,0.145 -0.121,0.136 -0.132,0.133 -0.137,0.125 -0.137,0.121 -0.148,0.106 -0.153,0.105 -0.156,0.098 -0.16,0.086 -0.168,0.082 -0.168,0.074 -0.172,0.059 -0.18,0.054 -0.179,0.043 -0.184,0.039 -0.184,0.024 -0.191,0.015 -0.187,0.004 -0.02,-0.371 c 0.746,0 1.473,-0.371 1.914,-1.097 0.438,-0.727 0.438,-1.711 0.438,-2.352 0,-0.609 0,-1.52 -0.371,-2.266 -0.372,-0.761 -1.114,-1.254 -1.961,-1.254 -0.731,0 -1.473,0.36 -1.926,1.133 -0.426,0.746 -0.426,1.778 -0.426,2.387 0,0.66 0,1.574 0.398,2.32 0.465,0.774 1.254,1.129 1.934,1.129 l 0.02,0.371 c -2.114,0 -3.758,-1.84 -3.758,-3.957 0,-2.183 1.758,-3.804 3.738,-3.804 2.047,0 3.758,1.656 3.758,3.804 z"
         style="fill:#000000;fill-opacity:1;fill-rule:nonzero;stroke:none"
         id="path3689"
         inkscape:connector-curvature="0" /><path
         d="m 133.066,533.909 0.004,-0.062 0.012,-0.063 0.012,-0.066 0.015,-0.059 0.016,-0.066 0.02,-0.059 0.019,-0.062 0.024,-0.063 0.054,-0.117 0.031,-0.062 0.063,-0.11 0.039,-0.051 0.035,-0.054 0.043,-0.051 0.086,-0.094 0.051,-0.043 0.047,-0.043 0.051,-0.039 0.054,-0.035 0.11,-0.062 0.058,-0.028 0.067,-0.023 0.058,-0.024 0.07,-0.015 0.063,-0.012 0.074,-0.012 0.07,-0.008 0.075,-0.003 c 0.347,0 1.383,0.242 1.383,1.613 l 0,0.941 -0.426,0 0,-0.941 c 0,-0.985 -0.418,-1.086 -0.61,-1.086 -0.554,0 -0.625,0.758 -0.625,0.844 l 0,3.386 c 0,0.711 0,1.368 -0.605,1.996 -0.664,0.657 -1.504,0.926 -2.32,0.926 -1.391,0 -2.559,-0.789 -2.559,-1.906 0,-0.508 0.34,-0.801 0.781,-0.801 0.473,0 0.782,0.34 0.782,0.781 0,0.204 -0.083,0.758 -0.864,0.782 0.457,0.59 1.281,0.773 1.824,0.773 0.832,0 1.793,-0.656 1.793,-2.164 l 0,-2.676 c 0,-1.609 -1.214,-2.179 -1.98,-2.179 -0.828,0 -1.52,0.593 -1.52,1.437 0,0.926 0.711,2.336 3.5,2.434 l 0,0.359 c -0.859,-0.047 -2.043,-0.101 -3.109,-0.613 -1.266,-0.574 -1.691,-1.453 -1.691,-2.195 0,-1.372 1.64,-1.793 2.703,-1.793 1.121,0 1.894,0.675 2.222,1.468 z"
         style="fill:#000000;fill-opacity:1;fill-rule:nonzero;stroke:none"
         id="path3691"
         inkscape:connector-curvature="0" /><path
         d="m 138.836,539.39 2.418,0 0,0.527 -2.418,0 0,3.117 -0.43,0 c -0.011,-1.386 -0.523,-3.203 -2.179,-3.265 l 0,-0.379 1.441,0 0,-4.668 c 0,-2.078 1.57,-2.281 2.18,-2.281 1.199,0 1.679,1.199 1.679,2.281 l 0,0.965 -0.425,0 0,-0.93 c 0,-1.25 -0.512,-1.895 -1.137,-1.895 -1.129,0 -1.129,1.539 -1.129,1.829 l 0,4.699 z"
         style="fill:#000000;fill-opacity:1;fill-rule:nonzero;stroke:none"
         id="path3693"
         inkscape:connector-curvature="0" /><path
         d="m 145.457,540.101 -2.367,-0.184 0,-0.527 c 1.101,0 1.254,-0.102 1.254,-0.926 l 0,-4.555 c 0,-0.758 -0.188,-0.758 -1.321,-0.758 l 0,-0.527 c 0.539,0.02 1.454,0.055 1.86,0.055 0.597,0 1.187,-0.035 1.765,-0.055 l 0,0.527 c -1.121,0 -1.191,0.086 -1.191,0.743 l 0,6.207 z"
         style="fill:#000000;fill-opacity:1;fill-rule:nonzero;stroke:none"
         id="path3695"
         inkscape:connector-curvature="0" /><path
         d="m 145.527,543.05 0,0.047 -0.004,0.051 -0.015,0.093 -0.012,0.047 -0.012,0.043 -0.031,0.086 -0.019,0.039 -0.02,0.043 -0.07,0.106 -0.028,0.031 -0.031,0.035 -0.031,0.027 -0.031,0.032 -0.032,0.027 -0.105,0.07 -0.039,0.02 -0.035,0.019 -0.043,0.016 -0.039,0.012 -0.043,0.015 -0.039,0.008 -0.043,0.012 -0.043,0.008 -0.086,0.007 -0.047,0 c -0.524,0 -0.895,-0.457 -0.895,-0.894 0,-0.461 0.371,-0.899 0.895,-0.899 0.473,0 0.898,0.356 0.898,0.899 z"
         style="fill:#000000;fill-opacity:1;fill-rule:nonzero;stroke:none"
         id="path3697"
         inkscape:connector-curvature="0" /><path
         d="m 149.016,538.448 0,-4.539 c 0,-0.758 -0.188,-0.758 -1.325,-0.758 l 0,-0.527 c 0.598,0.02 1.457,0.055 1.911,0.055 0.441,0 1.32,-0.035 1.894,-0.055 l 0,0.527 c -1.129,0 -1.316,0 -1.316,0.758 l 0,3.114 c 0,1.765 1.203,2.707 2.281,2.707 1.07,0 1.254,-0.911 1.254,-1.875 l 0,-3.946 c 0,-0.758 -0.184,-0.758 -1.32,-0.758 l 0,-0.527 c 0.593,0.02 1.46,0.055 1.914,0.055 0.441,0 1.32,-0.035 1.894,-0.055 l 0,0.527 c -0.879,0 -1.305,0 -1.32,0.512 l 0,3.231 c 0,1.453 0,1.976 -0.528,2.582 -0.23,0.293 -0.793,0.625 -1.769,0.625 -1.238,0 -2.031,-0.727 -2.504,-1.77 l 0,1.77 -2.391,-0.184 0,-0.527 c 1.184,0 1.325,-0.114 1.325,-0.942 z"
         style="fill:#000000;fill-opacity:1;fill-rule:nonzero;stroke:none"
         id="path3699"
         inkscape:connector-curvature="0" /><path
         d="m 158.359,534.874 0,0.09 0.004,0.02 0,0.015 0.016,0.094 0.008,0.055 0.015,0.054 0.008,0.024 0.008,0.031 0.012,0.031 0.008,0.031 0.015,0.032 0.012,0.031 0.031,0.062 0.02,0.036 0.015,0.031 0.039,0.062 0.024,0.036 0.054,0.062 c 0.661,-0.469 1.352,-0.523 1.676,-0.523 l 0,0.386 c -1.476,0 -1.476,1.696 -1.476,2.086 0,0.457 0.019,0.996 0.269,1.414 0.137,0.207 0.528,0.68 1.207,0.68 1.469,0 1.469,-1.691 1.469,-2.078 0,-0.457 -0.016,-1 -0.27,-1.422 -0.136,-0.203 -0.527,-0.68 -1.199,-0.68 l 0,-0.386 c 1.571,0 2.738,1.168 2.738,2.472 0,0.625 -0.273,1.25 -0.691,1.641 0.606,0.57 1.215,0.656 1.524,0.656 0.031,0 0.113,0 0.167,-0.016 -0.187,-0.07 -0.269,-0.253 -0.269,-0.457 0,-0.289 0.215,-0.488 0.488,-0.488 0.168,0 0.489,0.117 0.489,0.504 0,0.289 -0.2,0.828 -0.86,0.828 -0.34,0 -1.082,-0.101 -1.793,-0.793 -0.711,0.559 -1.422,0.606 -1.793,0.606 -1.578,0 -2.746,-1.164 -2.746,-2.465 0,-0.742 0.371,-1.391 0.797,-1.746 -0.219,-0.25 -0.527,-0.813 -0.527,-1.403 0,-0.523 0.226,-1.164 0.75,-1.503 -1.02,-0.29 -1.563,-1.016 -1.563,-1.696 0,-1.215 1.68,-2.148 3.746,-2.148 l 0.012,0.386 c -1.707,0 -2.875,0.864 -2.875,1.762 0,0.781 0.644,1.406 1.391,1.453 l 1,0 c 1.453,0 3.347,0 3.347,-1.453 0,-0.914 -1.199,-1.762 -2.863,-1.762 l -0.012,-0.386 c 1.992,0 3.754,0.863 3.754,2.183 0,0.594 -0.238,1.457 -1.097,1.926 -0.895,0.473 -1.879,0.473 -2.915,0.473 -0.421,0 -1.148,0 -1.269,0.019 -0.539,0.067 -0.895,0.594 -0.895,1.133 z"
         style="fill:#000000;fill-opacity:1;fill-rule:nonzero;stroke:none"
         id="path3701"
         inkscape:connector-curvature="0" /><path
         d="m 171.617,538.409 0.008,-0.324 0.023,-0.32 0.036,-0.317 0.054,-0.308 0.071,-0.301 0.082,-0.297 0.093,-0.289 0.11,-0.281 0.121,-0.278 0.133,-0.261 0.14,-0.258 0.157,-0.254 0.171,-0.238 0.176,-0.231 0.188,-0.222 0.195,-0.211 0.207,-0.2 0.219,-0.191 0.222,-0.18 0.235,-0.172 0.234,-0.156 0.25,-0.144 0.25,-0.133 0.262,-0.117 0.266,-0.11 0.269,-0.093 0.273,-0.079 0.282,-0.07 0.281,-0.051 0.289,-0.035 0.293,-0.027 0.293,-0.004 c 2.762,0 4.414,2.348 4.414,4.312 0,0.168 0,0.286 -0.215,0.286 -0.187,0 -0.187,-0.098 -0.203,-0.27 -0.137,-2.422 -1.949,-3.805 -3.793,-3.805 -1.031,0 -4.348,0.575 -4.348,5.614 0,5.062 3.301,5.636 4.333,5.636 1.847,0 3.355,-1.539 3.687,-4.015 0.039,-0.231 0.039,-0.285 0.273,-0.285 0.266,0 0.266,0.054 0.266,0.41 l 0,4.008 c 0,0.289 0,0.406 -0.184,0.406 -0.062,0 -0.136,0 -0.269,-0.199 l -0.844,-1.254 c -0.629,0.609 -1.492,1.453 -3.117,1.453 -3.164,0 -5.883,-2.692 -5.883,-6.145 z"
         style="fill:#000000;fill-opacity:1;fill-rule:nonzero;stroke:none"
         id="path3703"
         inkscape:connector-curvature="0" /><path
         d="m 190.863,536.245 -0.004,0.203 -0.015,0.2 -0.024,0.195 -0.035,0.195 -0.039,0.192 -0.051,0.183 -0.062,0.184 -0.067,0.179 -0.074,0.176 -0.082,0.168 -0.094,0.168 -0.097,0.16 -0.106,0.157 -0.113,0.148 -0.113,0.145 -0.125,0.136 -0.129,0.133 -0.137,0.125 -0.144,0.121 -0.145,0.106 -0.152,0.105 -0.157,0.098 -0.164,0.086 -0.164,0.082 -0.168,0.074 -0.172,0.059 -0.179,0.054 -0.18,0.043 -0.183,0.039 -0.188,0.024 -0.188,0.015 -0.191,0.004 -0.016,-0.371 c 0.743,0 1.469,-0.371 1.911,-1.097 0.441,-0.727 0.441,-1.711 0.441,-2.352 0,-0.609 0,-1.52 -0.371,-2.266 -0.371,-0.761 -1.117,-1.254 -1.965,-1.254 -0.726,0 -1.469,0.36 -1.926,1.133 -0.425,0.746 -0.425,1.778 -0.425,2.387 0,0.66 0,1.574 0.406,2.32 0.461,0.774 1.25,1.129 1.929,1.129 l 0.016,0.371 c -2.113,0 -3.758,-1.84 -3.758,-3.957 0,-2.183 1.766,-3.804 3.742,-3.804 2.047,0 3.758,1.656 3.758,3.804 z"
         style="fill:#000000;fill-opacity:1;fill-rule:nonzero;stroke:none"
         id="path3705"
         inkscape:connector-curvature="0" /><path
         d="m 193.23,538.448 0,-4.539 c 0,-0.758 -0.187,-0.758 -1.32,-0.758 l 0,-0.527 c 0.594,0.02 1.453,0.055 1.91,0.055 0.442,0 1.321,-0.035 1.895,-0.055 l 0,0.527 c -1.133,0 -1.317,0 -1.317,0.758 l 0,3.114 c 0,1.765 1.2,2.707 2.286,2.707 1.066,0 1.25,-0.911 1.25,-1.875 l 0,-3.946 c 0,-0.758 -0.184,-0.758 -1.325,-0.758 l 0,-0.527 c 0.598,0.02 1.461,0.055 1.918,0.055 0.442,0 1.317,-0.035 1.895,-0.055 l 0,0.527 c -0.879,0 -1.305,0 -1.32,0.512 l 0,3.231 c 0,1.453 0,1.976 -0.528,2.582 -0.23,0.293 -0.797,0.625 -1.773,0.625 -1.235,0 -2.031,-0.727 -2.504,-1.77 l 0,1.77 -2.387,-0.184 0,-0.527 c 1.184,0 1.32,-0.114 1.32,-0.942 z"
         style="fill:#000000;fill-opacity:1;fill-rule:nonzero;stroke:none"
         id="path3707"
         inkscape:connector-curvature="0" /><path
         d="m 203.223,539.39 2.422,0 0,0.527 -2.422,0 0,3.117 -0.422,0 c -0.02,-1.386 -0.528,-3.203 -2.184,-3.265 l 0,-0.379 1.438,0 0,-4.668 c 0,-2.078 1.574,-2.281 2.183,-2.281 1.2,0 1.676,1.199 1.676,2.281 l 0,0.965 -0.426,0 0,-0.93 c 0,-1.25 -0.508,-1.895 -1.133,-1.895 -1.132,0 -1.132,1.539 -1.132,1.829 l 0,4.699 z"
         style="fill:#000000;fill-opacity:1;fill-rule:nonzero;stroke:none"
         id="path3709"
         inkscape:connector-curvature="0" /><path
         d="m 212.492,533.909 0.016,-0.125 0.012,-0.066 0.015,-0.059 0.016,-0.066 0.019,-0.059 0.02,-0.062 0.023,-0.063 0.024,-0.058 0.031,-0.059 0.027,-0.062 0.071,-0.11 0.035,-0.051 0.039,-0.054 0.039,-0.051 0.043,-0.047 0.09,-0.09 0.05,-0.043 0.051,-0.039 0.055,-0.035 0.055,-0.031 0.058,-0.031 0.055,-0.028 0.062,-0.023 0.067,-0.024 0.066,-0.015 0.067,-0.012 0.07,-0.012 0.07,-0.008 0.074,-0.003 c 0.352,0 1.387,0.242 1.387,1.613 l 0,0.941 -0.426,0 0,-0.941 c 0,-0.985 -0.421,-1.086 -0.609,-1.086 -0.559,0 -0.629,0.758 -0.629,0.844 l 0,3.386 c 0,0.711 0,1.368 -0.605,1.996 -0.66,0.657 -1.508,0.926 -2.317,0.926 -1.39,0 -2.558,-0.789 -2.558,-1.906 0,-0.508 0.34,-0.801 0.781,-0.801 0.469,0 0.781,0.34 0.781,0.781 0,0.204 -0.086,0.758 -0.867,0.782 0.453,0.59 1.285,0.773 1.824,0.773 0.836,0 1.797,-0.656 1.797,-2.164 l 0,-2.676 c 0,-1.609 -1.219,-2.179 -1.98,-2.179 -0.829,0 -1.528,0.593 -1.528,1.437 0,0.926 0.715,2.336 3.508,2.434 l 0,0.359 c -0.863,-0.047 -2.047,-0.101 -3.113,-0.613 -1.266,-0.574 -1.692,-1.453 -1.692,-2.195 0,-1.372 1.637,-1.793 2.707,-1.793 1.118,0 1.895,0.675 2.219,1.468 z"
         style="fill:#000000;fill-opacity:1;fill-rule:nonzero;stroke:none"
         id="path3711"
         inkscape:connector-curvature="0" /><path
         d="m 217.312,536.316 0,0.128 0.012,0.364 0.012,0.113 0.008,0.117 0.015,0.11 0.012,0.109 0.02,0.105 0.015,0.102 0.016,0.098 0.023,0.097 0.047,0.188 0.051,0.172 0.059,0.168 0.058,0.156 0.067,0.144 0.07,0.137 0.074,0.129 0.078,0.117 0.082,0.11 0.086,0.101 0.086,0.098 0.094,0.086 0.09,0.078 0.093,0.074 0.094,0.063 0.098,0.054 0.094,0.051 0.097,0.043 0.094,0.043 0.098,0.031 0.093,0.028 0.094,0.019 0.094,0.016 0.09,0.011 0.172,0.008 c 0.148,0 1.214,-0.015 1.808,-0.629 -0.695,-0.05 -0.793,-0.554 -0.793,-0.777 0,-0.441 0.301,-0.781 0.778,-0.781 0.433,0 0.773,0.293 0.773,0.797 0,1.152 -1.281,1.808 -2.586,1.808 -2.113,0 -3.672,-1.824 -3.672,-3.922 0,-2.164 1.672,-3.839 3.641,-3.839 2.265,0 2.805,2.031 2.805,2.195 0,0.172 -0.168,0.172 -0.219,0.172 -0.153,0 -0.184,-0.067 -0.223,-0.172 -0.484,-1.567 -1.586,-1.774 -2.211,-1.774 -0.898,0 -2.387,0.727 -2.387,3.454 z"
         style="fill:#000000;fill-opacity:1;fill-rule:nonzero;stroke:none"
         id="path3713"
         inkscape:connector-curvature="0" /><path
         d="m 225.758,539.39 2.422,0 0,0.527 -2.422,0 0,3.117 -0.426,0 c -0.012,-1.386 -0.52,-3.203 -2.18,-3.265 l 0,-0.379 1.442,0 0,-4.668 c 0,-2.078 1.57,-2.281 2.179,-2.281 1.2,0 1.676,1.199 1.676,2.281 l 0,0.965 -0.426,0 0,-0.93 c 0,-1.25 -0.507,-1.895 -1.132,-1.895 -1.133,0 -1.133,1.539 -1.133,1.829 l 0,4.699 z"
         style="fill:#000000;fill-opacity:1;fill-rule:nonzero;stroke:none"
         id="path3715"
         inkscape:connector-curvature="0" /><path
         d="m 247.453,569.573 -9.527,0 0,-0.535 0.418,0 c 1.336,0 1.371,-0.191 1.371,-0.812 l 0,-9.09 c 0,-0.629 -0.035,-0.817 -1.371,-0.817 l -0.418,0 0,-0.539 c 0.609,0.055 1.965,0.055 2.64,0.055 0.715,0 2.293,0 2.914,-0.055 l 0,0.539 -0.574,0 c -1.648,0 -1.648,0.223 -1.648,0.832 l 0,4.266 1.496,0 c 1.664,0 1.84,-0.558 1.84,-2.031 l 0.429,0 0,4.598 -0.429,0 c 0,-1.458 -0.176,-2.032 -1.84,-2.032 l -1.496,0 0,4.395 c 0,0.57 0.035,0.691 0.855,0.691 l 2.075,0 c 2.609,0 3.039,-0.969 3.316,-3.363 l 0.434,0 -0.485,3.898 z"
         style="fill:#000000;fill-opacity:1;fill-rule:nonzero;stroke:none"
         id="path3717"
         inkscape:connector-curvature="0" /><path
         d="m 251.75,565.444 -2.43,-0.187 0,-0.539 c 1.129,0 1.285,-0.106 1.285,-0.953 l 0,-4.668 c 0,-0.778 -0.191,-0.778 -1.355,-0.778 l 0,-0.539 c 0.555,0.016 1.492,0.055 1.91,0.055 0.61,0 1.215,-0.039 1.809,-0.055 l 0,0.539 c -1.153,0 -1.219,0.086 -1.219,0.758 l 0,6.367 z"
         style="fill:#000000;fill-opacity:1;fill-rule:nonzero;stroke:none"
         id="path3719"
         inkscape:connector-curvature="0" /><path
         d="m 251.816,568.468 0,0.101 -0.007,0.047 -0.008,0.051 -0.012,0.043 -0.012,0.047 -0.031,0.086 -0.023,0.043 -0.039,0.078 -0.11,0.141 -0.031,0.027 -0.035,0.031 -0.031,0.028 -0.036,0.023 -0.039,0.027 -0.035,0.024 -0.078,0.039 -0.043,0.015 -0.039,0.016 -0.129,0.035 -0.043,0.004 -0.047,0.004 -0.043,0.004 -0.047,0.004 c -0.535,0 -0.918,-0.469 -0.918,-0.918 0,-0.473 0.383,-0.922 0.918,-0.922 0.485,0 0.918,0.363 0.918,0.922 z"
         style="fill:#000000;fill-opacity:1;fill-rule:nonzero;stroke:none"
         id="path3721"
         inkscape:connector-curvature="0" /><path
         d="m 258.461,561.855 0.101,0.125 0.102,0.129 0.106,0.132 0.105,0.137 0.215,0.27 0.105,0.132 0.106,0.137 0.211,0.258 0.097,0.121 0.102,0.117 0.043,0.055 0.051,0.058 0.043,0.055 0.043,0.051 0.047,0.051 0.039,0.047 0.043,0.046 0.039,0.043 c 0.539,0.618 1.25,0.879 2.066,0.899 l 0,0.539 c -0.453,-0.035 -0.973,-0.051 -1.426,-0.051 -0.515,0 -1.433,0.031 -1.664,0.051 l 0,-0.539 c 0.363,-0.031 0.508,-0.254 0.508,-0.535 0,-0.278 -0.176,-0.504 -0.262,-0.61 l -1.078,-1.355 -1.348,1.754 c -0.16,0.172 -0.16,0.211 -0.16,0.316 0,0.262 0.258,0.41 0.606,0.43 l 0,0.539 c -0.446,-0.02 -1.598,-0.051 -1.875,-0.051 -0.364,0 -1.18,0.016 -1.649,0.051 l 0,-0.539 c 1.215,0 1.239,-0.02 2.047,-1.055 l 1.719,-2.238 -1.633,-2.066 c -0.832,-1.008 -1.851,-1.04 -2.219,-1.04 l 0,-0.539 c 0.454,0.032 0.989,0.055 1.442,0.055 0.504,0 1.23,-0.039 1.648,-0.055 l 0,0.539 c -0.379,0.047 -0.504,0.274 -0.504,0.536 0,0.382 0.504,0.953 1.563,2.207 l 1.32,-1.735 c 0.137,-0.191 0.363,-0.472 0.363,-0.574 0,-0.16 -0.156,-0.422 -0.625,-0.434 l 0,-0.539 c 0.52,0.016 1.493,0.055 1.875,0.055 0.465,0 1.145,-0.023 1.665,-0.055 l 0,0.539 c -0.938,0 -1.247,0.032 -1.653,0.536 l -2.324,3 z"
         style="fill:#000000;fill-opacity:1;fill-rule:nonzero;stroke:none"
         id="path3723"
         inkscape:connector-curvature="0" /><path
         d="m 264.562,561.788 0.016,0.363 c 0.106,2.586 1.563,3.02 2.156,3.02 1.782,0 1.957,-2.344 1.957,-3.02 l -4.113,0 -0.016,-0.363 4.844,0 c 0.383,0 0.426,0 0.426,0.363 0,1.715 -0.934,3.399 -3.098,3.399 -2.011,0 -3.617,-1.785 -3.617,-3.957 0,-2.324 1.828,-4.004 3.821,-4.004 2.117,0 2.894,1.926 2.894,2.254 0,0.172 -0.133,0.211 -0.219,0.211 -0.16,0 -0.191,-0.106 -0.23,-0.246 -0.606,-1.785 -2.164,-1.785 -2.34,-1.785 -0.871,0 -1.563,0.519 -1.957,1.16 -0.524,0.832 -0.524,1.98 -0.524,2.605 z"
         style="fill:#000000;fill-opacity:1;fill-rule:nonzero;stroke:none"
         id="path3725"
         inkscape:connector-curvature="0" /><path
         d="m 276.922,558.73 0,-1.141 2.543,0.191 0,0.539 c -1.211,0 -1.348,0.118 -1.348,0.969 l 0,10.535 -2.496,-0.191 0,-0.543 c 1.211,0 1.348,-0.117 1.348,-0.969 l 0,-3.746 c -0.5,0.621 -1.246,1.07 -2.188,1.07 l 0.071,-0.378 c 0.609,0 1.336,-0.262 1.875,-1.04 0.195,-0.296 0.195,-0.332 0.195,-0.644 l 0,-3.559 c 0,-0.308 0,-0.347 -0.195,-0.64 -0.52,-0.832 -1.305,-1.211 -2.051,-1.211 -0.774,0 -1.403,0.449 -1.817,1.105 -0.449,0.715 -0.504,1.703 -0.504,2.414 0,0.641 0.032,1.688 0.54,2.461 0.363,0.543 1.019,1.114 1.957,1.114 l -0.071,0.378 c -2.047,0 -3.867,-1.695 -3.867,-3.933 0,-2.203 1.703,-3.922 3.676,-3.922 1.109,0 1.894,0.586 2.332,1.141 z"
         style="fill:#000000;fill-opacity:1;fill-rule:nonzero;stroke:none"
         id="path3727"
         inkscape:connector-curvature="0" /><path
         d="m 286.762,563.71 0.008,-0.336 0.023,-0.324 0.039,-0.324 0.055,-0.317 0.07,-0.312 0.082,-0.301 0.098,-0.297 0.113,-0.289 0.125,-0.281 0.137,-0.274 0.148,-0.265 0.16,-0.258 0.172,-0.242 0.18,-0.239 0.191,-0.226 0.207,-0.219 0.207,-0.203 0.223,-0.195 0.23,-0.188 0.239,-0.172 0.242,-0.16 0.254,-0.148 0.262,-0.137 0.265,-0.121 0.27,-0.113 0.281,-0.098 0.281,-0.078 0.285,-0.07 0.293,-0.055 0.293,-0.035 0.297,-0.028 0.305,-0.004 c 2.828,0 4.527,2.407 4.527,4.422 0,0.172 0,0.293 -0.226,0.293 -0.188,0 -0.188,-0.101 -0.207,-0.277 -0.141,-2.48 -1.996,-3.902 -3.887,-3.902 -1.059,0 -4.461,0.589 -4.461,5.757 0,5.192 3.387,5.778 4.441,5.778 1.895,0 3.442,-1.574 3.782,-4.113 0.039,-0.239 0.039,-0.293 0.281,-0.293 0.277,0 0.277,0.054 0.277,0.418 l 0,4.109 c 0,0.297 0,0.418 -0.191,0.418 -0.067,0 -0.137,0 -0.278,-0.207 l -0.867,-1.285 c -0.644,0.629 -1.527,1.492 -3.191,1.492 -3.246,0 -6.035,-2.758 -6.035,-6.301 z"
         style="fill:#000000;fill-opacity:1;fill-rule:nonzero;stroke:none"
         id="path3729"
         inkscape:connector-curvature="0" /><path
         d="m 306.496,561.491 -0.008,0.207 -0.011,0.203 -0.024,0.204 -0.035,0.199 -0.043,0.195 -0.051,0.192 -0.066,0.187 -0.063,0.184 -0.082,0.179 -0.082,0.172 -0.093,0.172 -0.102,0.164 -0.109,0.16 -0.11,0.153 -0.125,0.148 -0.129,0.141 -0.133,0.136 -0.136,0.129 -0.149,0.121 -0.148,0.114 -0.156,0.105 -0.161,0.098 -0.164,0.09 -0.171,0.086 -0.172,0.07 -0.18,0.062 -0.18,0.059 -0.183,0.043 -0.188,0.039 -0.191,0.023 -0.196,0.02 -0.195,0.004 -0.015,-0.379 c 0.757,0 1.503,-0.387 1.957,-1.129 0.453,-0.746 0.453,-1.754 0.453,-2.41 0,-0.629 0,-1.563 -0.383,-2.324 -0.379,-0.782 -1.141,-1.285 -2.012,-1.285 -0.746,0 -1.504,0.367 -1.976,1.16 -0.434,0.765 -0.434,1.82 -0.434,2.449 0,0.676 0,1.613 0.414,2.379 0.473,0.793 1.285,1.16 1.981,1.16 l 0.015,0.379 c -2.168,0 -3.851,-1.887 -3.851,-4.059 0,-2.238 1.804,-3.902 3.836,-3.902 2.101,0 3.851,1.699 3.851,3.902 z"
         style="fill:#000000;fill-opacity:1;fill-rule:nonzero;stroke:none"
         id="path3731"
         inkscape:connector-curvature="0" /><path
         d="m 308.922,563.749 0,-4.652 c 0,-0.778 -0.192,-0.778 -1.352,-0.778 l 0,-0.539 c 0.61,0.016 1.489,0.055 1.961,0.055 0.449,0 1.352,-0.039 1.938,-0.055 l 0,0.539 c -1.157,0 -1.348,0 -1.348,0.778 l 0,3.191 c 0,1.809 1.231,2.778 2.34,2.778 1.094,0 1.285,-0.938 1.285,-1.926 l 0,-4.043 c 0,-0.778 -0.191,-0.778 -1.355,-0.778 l 0,-0.539 c 0.609,0.016 1.496,0.055 1.961,0.055 0.453,0 1.351,-0.039 1.945,-0.055 l 0,0.539 c -0.902,0 -1.34,0 -1.356,0.524 l 0,3.308 c 0,1.493 0,2.032 -0.535,2.653 -0.242,0.301 -0.82,0.64 -1.82,0.64 -1.266,0 -2.086,-0.746 -2.57,-1.816 l 0,1.816 -2.446,-0.187 0,-0.539 c 1.211,0 1.352,-0.121 1.352,-0.969 z"
         style="fill:#000000;fill-opacity:1;fill-rule:nonzero;stroke:none"
         id="path3733"
         inkscape:connector-curvature="0" /><path
         d="m 319.168,564.718 2.484,0 0,0.539 -2.484,0 0,3.191 -0.434,0 c -0.015,-1.418 -0.535,-3.277 -2.234,-3.343 l 0,-0.387 1.477,0 0,-4.789 c 0,-2.133 1.605,-2.34 2.234,-2.34 1.23,0 1.719,1.227 1.719,2.34 l 0,0.988 -0.438,0 0,-0.949 c 0,-1.285 -0.523,-1.945 -1.164,-1.945 -1.16,0 -1.16,1.578 -1.16,1.875 l 0,4.82 z"
         style="fill:#000000;fill-opacity:1;fill-rule:nonzero;stroke:none"
         id="path3735"
         inkscape:connector-curvature="0" /><path
         d="m 328.672,559.097 0.008,-0.067 0.011,-0.062 0.012,-0.067 0.016,-0.062 0.015,-0.066 0.039,-0.125 0.024,-0.063 0.027,-0.062 0.063,-0.125 0.031,-0.055 0.07,-0.109 0.039,-0.059 0.043,-0.047 0.043,-0.051 0.047,-0.047 0.051,-0.046 0.047,-0.04 0.051,-0.043 0.058,-0.035 0.055,-0.035 0.058,-0.031 0.063,-0.027 0.125,-0.047 0.141,-0.032 0.14,-0.015 0.078,-0.004 c 0.36,0 1.422,0.246 1.422,1.652 l 0,0.965 -0.437,0 0,-0.965 c 0,-1.008 -0.43,-1.113 -0.625,-1.113 -0.571,0 -0.641,0.777 -0.641,0.863 l 0,3.473 c 0,0.73 0,1.402 -0.625,2.047 -0.68,0.672 -1.543,0.953 -2.375,0.953 -1.426,0 -2.621,-0.813 -2.621,-1.957 0,-0.52 0.348,-0.82 0.797,-0.82 0.484,0 0.801,0.347 0.801,0.8 0,0.207 -0.086,0.778 -0.887,0.801 0.469,0.602 1.316,0.797 1.871,0.797 0.855,0 1.84,-0.676 1.84,-2.223 l 0,-2.742 c 0,-1.648 -1.246,-2.234 -2.031,-2.234 -0.848,0 -1.559,0.609 -1.559,1.472 0,0.95 0.727,2.395 3.59,2.497 l 0,0.367 c -0.879,-0.051 -2.098,-0.106 -3.188,-0.629 -1.3,-0.586 -1.734,-1.488 -1.734,-2.254 0,-1.402 1.68,-1.836 2.773,-1.836 1.145,0 1.942,0.691 2.274,1.508 z"
         style="fill:#000000;fill-opacity:1;fill-rule:nonzero;stroke:none"
         id="path3737"
         inkscape:connector-curvature="0" /><path
         d="m 333.613,561.562 0,0.132 0.004,0.125 0.008,0.125 0.016,0.243 0.007,0.117 0.016,0.109 0.012,0.113 0.019,0.11 0.016,0.101 0.019,0.102 0.024,0.102 0.047,0.191 0.051,0.176 0.058,0.172 0.063,0.16 0.07,0.148 0.07,0.141 0.075,0.133 0.085,0.121 0.082,0.113 0.086,0.105 0.09,0.094 0.094,0.094 0.094,0.078 0.093,0.074 0.098,0.067 0.098,0.054 0.097,0.051 0.102,0.047 0.098,0.043 0.097,0.031 0.098,0.028 0.098,0.019 0.093,0.02 0.18,0.015 0.086,0.004 c 0.156,0 1.246,-0.015 1.855,-0.644 -0.707,-0.051 -0.812,-0.571 -0.812,-0.797 0,-0.453 0.309,-0.801 0.801,-0.801 0.445,0 0.793,0.301 0.793,0.816 0,1.18 -1.317,1.856 -2.656,1.856 -2.168,0 -3.766,-1.871 -3.766,-4.024 0,-2.218 1.723,-3.937 3.734,-3.937 2.324,0 2.875,2.086 2.875,2.254 0,0.172 -0.172,0.172 -0.222,0.172 -0.157,0 -0.188,-0.067 -0.227,-0.172 -0.5,-1.609 -1.629,-1.82 -2.27,-1.82 -0.917,0 -2.449,0.746 -2.449,3.539 z"
         style="fill:#000000;fill-opacity:1;fill-rule:nonzero;stroke:none"
         id="path3739"
         inkscape:connector-curvature="0" /><path
         d="m 342.277,564.718 2.481,0 0,0.539 -2.481,0 0,3.191 -0.437,0 c -0.016,-1.418 -0.535,-3.277 -2.235,-3.343 l 0,-0.387 1.477,0 0,-4.789 c 0,-2.133 1.609,-2.34 2.234,-2.34 1.231,0 1.719,1.227 1.719,2.34 l 0,0.988 -0.433,0 0,-0.949 c 0,-1.285 -0.524,-1.945 -1.168,-1.945 -1.157,0 -1.157,1.578 -1.157,1.875 l 0,4.82 z"
         style="fill:#000000;fill-opacity:1;fill-rule:nonzero;stroke:none"
         id="path3741"
         inkscape:connector-curvature="0" /></g><path
       style="stroke-linejoin:miter;marker-end:url(#Arrow1Sendc6);stroke-opacity:0.5981735;marker-start:url(#Arrow1Sstart9);stroke:#ff0000;stroke-linecap:butt;stroke-miterlimit:4;stroke-dasharray:none;stroke-width:3.55836296000000019;marker-mid:none;fill:none"
       d="M 230.04797,486.18328 178.25785,461.75768 219.827,437.71976"
       id="path3254"
       inkscape:path-effect="#path-effect3256"
       inkscape:original-d="M 230.04797,486.18328 178.25785,461.75768 219.827,437.71976"
       inkscape:connector-curvature="0" /><path
       sodipodi:type="arc"
       style="stroke-linejoin:round;marker-end:none;stroke-opacity:0.59817348999999997;fill-opacity:0.31050230000000001;marker-start:url(#Arrow1Sstartt);stroke-dashoffset:0;stroke:#ff0000;stroke-linecap:butt;stroke-miterlimit:4;stroke-dasharray:none;stroke-width:4;fill:none"
       id="path6036"
       sodipodi:cx="96"
       sodipodi:cy="124.36206"
       sodipodi:rx="22"
       sodipodi:ry="9.75"
       d="m 111.00826,131.49098 c -8.88393,3.67346 -22.805203,3.45966 -31.094035,-0.47753 -8.288833,-3.9372 -7.806412,-10.10685 1.077516,-13.78031 8.820221,-3.64712 22.622329,-3.46623 30.940839,0.4055"
       transform="matrix(0.8,0,0,-0.8,98.627,596.60941)"
       sodipodi:start="0.82003777"
       sodipodi:end="5.5222747"
       sodipodi:open="true" /><path
       d="m 180.22701,500.25474 0.113,0.129 0.114,0.121 0.109,0.121 0.105,0.117 0.102,0.113 0.102,0.106 0.097,0.105 0.09,0.102 0.094,0.098 0.18,0.187 0.085,0.09 0.489,0.488 0.152,0.145 0.152,0.14 0.149,0.141 0.301,0.273 0.152,0.141 0.152,0.137 c 0,0.023 1.426,1.312 2.254,2.187 2.18,2.254 2.672,3.399 2.668,3.485 -0.008,0.234 -0.222,0.23 -0.265,0.226 -0.168,-0.004 -0.235,-0.047 -0.348,-0.262 -0.676,-1.152 -1.156,-1.542 -1.731,-1.558 -0.566,-0.016 -0.855,0.332 -1.222,0.723 -0.457,0.535 -0.867,0.988 -1.653,0.968 -1.765,-0.047 -2.792,-2.261 -2.777,-2.758 0.004,-0.117 0.07,-0.253 0.289,-0.246 0.215,0.004 0.254,0.125 0.297,0.262 0.422,1.102 1.789,1.16 1.973,1.164 0.496,0.016 0.949,-0.144 1.492,-0.316 0.957,-0.328 1.219,-0.321 1.832,-0.305 -0.824,-1.035 -2.762,-2.793 -3.191,-3.176 l -2.075,-2.035 c -1.562,-1.621 -2.351,-2.988 -2.347,-3.152 0.004,-0.238 0.242,-0.231 0.285,-0.231 0.191,0.008 0.234,0.055 0.371,0.313 0.523,0.844 1.207,1.5 1.965,1.519 0.543,0.016 0.789,-0.195 1.39,-0.855 0.422,-0.488 0.852,-0.856 1.528,-0.836 2.34,0.059 3.625,3.09 3.609,3.727 -0.004,0.117 -0.101,0.234 -0.285,0.226 -0.219,-0.004 -0.258,-0.144 -0.328,-0.316 -0.5,-1.547 -1.992,-2.024 -2.778,-2.047 -0.46,-0.012 -0.898,0.113 -1.398,0.265 -0.801,0.286 -1.16,0.368 -1.656,0.356 -0.047,0 -0.422,-0.012 -0.637,-0.082 z"
       style="fill:#0000ff;fill-opacity:1;fill-rule:nonzero;stroke:none"
       id="path3613-3"
       inkscape:connector-curvature="0" /><path
       d="m 193.44201,505.60974 0,0.039 -0.004,0.024 0,0.101 -0.008,0.016 0,0.043 -0.004,0.016 0,0.023 -0.008,0.012 0,0.011 -0.003,0.012 0,0.012 -0.012,0.016 -0.004,0.019 -0.012,0.016 -0.008,0.011 -0.011,0.016 -0.008,0.016 -0.016,0.007 -0.011,0.008 -0.016,0.012 -0.039,0.008 -0.024,0.008 -0.019,0 -0.016,0.004 -0.011,0 -0.012,0.003 -0.055,0 -0.019,0.004 -0.016,0 -0.02,-0.004 -0.128,0 -0.024,-0.003 c -1.031,-1.067 -2.523,-1.122 -3.199,-1.137 l 0.015,-0.594 c 0.395,0.012 1.485,0.039 2.372,0.524 l 0.222,-8.407 c 0.012,-0.551 0.02,-0.761 -1.629,-0.808 l -0.617,-0.016 0.016,-0.59 c 0.293,0.02 2.316,0.125 2.929,0.145 0.512,0.011 2.59,0.015 2.95,0.011 l -0.016,0.59 -0.625,-0.015 c -1.652,-0.043 -1.656,0.168 -1.672,0.718 l -0.238,9.129 z"
       style="fill:#0000ff;fill-opacity:1;fill-rule:nonzero;stroke:none"
       id="path3615-6"
       inkscape:connector-curvature="0" /><path
       sodipodi:nodetypes="cc"
       transform="matrix(0.8,0,0,-0.8,101.827,595.80941)"
       inkscape:connector-curvature="0"
       inkscape:original-d="m 91.71875,116.93237 -0.476562,-7.39062"
       inkscape:path-effect="#path-effect7064"
       id="path7062"
       d="m 91.71875,116.93237 -0.476562,-7.39062"
       style="fill:none;stroke:#0000ff;stroke-width:1px;stroke-linecap:butt;stroke-linejoin:miter;stroke-opacity:1" /><text
       transform="matrix(0.8,0,0,-0.8,101.827,595.80941)"
       sodipodi:linespacing="125%"
       id="text7066"
       y="140.83714"
       x="111.72287"
       style="font-size:12px;font-style:normal;font-weight:normal;line-height:125%;letter-spacing:0px;word-spacing:0px;fill:#000000;fill-opacity:1;stroke:none;font-family:Sans"
       xml:space="preserve"><tspan
         y="140.83714"
         x="111.72287"
         id="tspan7068"
         sodipodi:role="line" /></text>
<g
       id="g7188"
       transform="matrix(0.71530734,0,0,-0.776764,39.871502,549.49688)"
       style="fill:#ff0000;fill-opacity:1;stroke:none"><g
         word-spacing="normal"
         letter-spacing="normal"
         font-size-adjust="none"
         font-stretch="normal"
         font-weight="normal"
         font-variant="normal"
         font-style="normal"
         stroke-miterlimit="10.433"
         xml:space="preserve"
         transform="matrix(0.40373151,0,0,-0.40373151,-70.653015,335.99343)"
         id="content"
         style="font-style:normal;font-variant:normal;font-weight:normal;font-stretch:normal;letter-spacing:normal;word-spacing:normal;text-anchor:start;fill:#ff0000;fill-opacity:1;stroke:none"><path
           id="path7191"
           d="m 462.3,410.09 0,-0.16 0,-0.16 0,-0.15 -0.01,-0.15 -0.01,-0.13 -0.01,-0.13 -0.02,-0.13 -0.03,-0.11 -0.03,-0.12 -0.03,-0.1 -0.04,-0.1 -0.06,-0.09 -0.06,-0.09 -0.06,-0.08 -0.08,-0.08 -0.09,-0.07 -0.1,-0.06 -0.12,-0.06 -0.06,-0.03 -0.06,-0.03 -0.07,-0.02 -0.07,-0.03 -0.07,-0.02 -0.08,-0.02 -0.08,-0.02 -0.09,-0.02 -0.09,-0.02 -0.09,-0.02 -0.1,-0.02 -0.1,-0.01 -0.1,-0.01 -0.11,-0.02 -0.11,-0.01 -0.12,-0.01 -0.12,-0.01 -0.13,-0.01 -0.13,-0.01 -0.14,-0.01 -0.14,0 -0.15,-0.01 -0.15,0 -0.15,-0.01 -0.16,0 -0.17,0 -0.17,0 -0.18,0 h -1.2 v -1.55 h 28.75 l 2.09,12.86 h -1.25 c -1.23,-7.67 -2.39,-11.31 -10.95,-11.31 h -6.62 c -2.35,0 -2.46,0.34 -2.46,1.98 v 13.31 h 4.49 c 4.84,0 5.39,-1.59 5.39,-5.83 h 1.23 v 13.21 h -1.23 c 0,-4.3 -0.55,-5.83 -5.39,-5.83 h -4.49 v 11.95 c 0,1.64 0.11,1.99 2.46,1.99 h 6.42 c 7.62,0 8.97,-2.74 9.76,-9.66 h 1.25 l -1.4,11.2 h -28.05 v -1.54 h 1.2 c 3.83,0 3.94,-0.55 3.94,-2.33 z"
           inkscape:connector-curvature="0"
           style="fill:#ff0000;fill-opacity:1;stroke:none" /><path
           id="path7193"
           d="m 494.96,423.34 v -13.36 c 0,-2.23 -0.55,-2.23 -3.89,-2.23 v -1.55 c 1.75,0.05 4.28,0.16 5.63,0.16 1.29,0 3.89,-0.11 5.57,-0.16 v 1.55 c -3.32,0 -3.87,0 -3.87,2.23 v 9.17 c 0,5.19 3.53,7.97 6.72,7.97 3.14,0 3.68,-2.69 3.68,-5.53 v -11.61 c 0,-2.23 -0.54,-2.23 -3.89,-2.23 v -1.55 c 1.75,0.05 4.3,0.16 5.64,0.16 1.3,0 3.88,-0.11 5.58,-0.16 v 1.55 c -2.59,0 -3.84,0 -3.89,1.5 v 9.51 c 0,4.28 0,5.83 -1.54,7.61 -0.69,0.86 -2.35,1.84 -5.22,1.84 -3.64,0 -5.99,-2.14 -7.38,-5.21 v 5.21 l -7.03,-0.54 v -1.55 c 3.48,0 3.89,-0.34 3.89,-2.78 z"
           inkscape:connector-curvature="0"
           style="fill:#ff0000;fill-opacity:1;stroke:none" /><path
           id="path7195"
           d="m 533.79,409.98 0.02,-0.19 0.03,-0.18 0.04,-0.19 0.04,-0.18 0.05,-0.19 0.05,-0.18 0.06,-0.18 0.07,-0.18 0.08,-0.18 0.08,-0.17 0.09,-0.18 0.09,-0.16 0.1,-0.16 0.11,-0.16 0.11,-0.16 0.12,-0.14 0.13,-0.14 0.13,-0.14 0.14,-0.13 0.14,-0.12 0.15,-0.12 0.16,-0.1 0.16,-0.1 0.17,-0.09 0.18,-0.08 0.18,-0.07 0.19,-0.06 0.19,-0.05 0.2,-0.04 0.2,-0.03 0.21,-0.02 0.22,-0.01 c 1.03,0 4.08,0.71 4.08,4.74 v 2.78 h -1.25 v -2.78 c 0,-2.89 -1.24,-3.19 -1.8,-3.19 -1.64,0 -1.84,2.23 -1.84,2.48 v 9.97 c 0,2.1 0,4.03 -1.78,5.88 -1.96,1.93 -4.44,2.73 -6.83,2.73 -4.1,0 -7.53,-2.33 -7.53,-5.62 0,-1.49 1,-2.35 2.29,-2.35 1.39,0 2.3,1 2.3,2.3 0,0.59 -0.25,2.23 -2.55,2.3 1.35,1.73 3.78,2.28 5.38,2.28 2.45,0 5.28,-1.94 5.28,-6.38 v -1.84 -1.05 -4.98 c 0,-4.74 -3.58,-6.42 -5.83,-6.42 -2.44,0 -4.48,1.75 -4.48,4.23 0,2.73 2.09,6.88 10.31,7.17 h 0 v 1.05 c -2.53,-0.14 -6.02,-0.3 -9.16,-1.8 -3.73,-1.69 -4.98,-4.28 -4.98,-6.47 0,-4.03 4.83,-5.28 7.97,-5.28 3.29,0 5.58,1.99 6.53,4.33 z"
           inkscape:connector-curvature="0"
           style="fill:#ff0000;fill-opacity:1;stroke:none" /><path
           id="path7197"
           d="m 550.72,424.98 v 15.8 l -7.18,-0.55 v -1.55 c 3.49,0 3.89,-0.34 3.89,-2.79 V 406.2 h 1.25 c 0.05,0.05 0.44,0.75 1.79,3.09 0.75,-1.15 2.84,-3.64 6.53,-3.64 l -0.21,1.1 c -2.23,0 -4.03,1.2 -5.22,3.04 -0.7,1.05 -0.7,1.19 -0.7,2.08 h 0 v 10.27 c 0,0.95 0,1 0.55,1.79 1.93,2.8 4.68,3.19 5.87,3.19 2.25,0 4.05,-1.3 5.24,-3.19 1.29,-2.04 1.45,-4.87 1.45,-6.92 0,-1.84 -0.11,-4.83 -1.55,-7.08 -1.04,-1.54 -2.93,-3.18 -5.64,-3.18 l 0.21,-1.1 c 5.93,0 11.1,4.88 11.1,11.31 0,6.33 -4.87,11.25 -10.56,11.25 -3.87,0 -6.03,-2.34 -6.82,-3.23 z"
           inkscape:connector-curvature="0"
           style="fill:#ff0000;fill-opacity:1;stroke:none" /><path
           id="path7199"
           d="m 578.68,440.78 -7.17,-0.55 v -1.55 c 3.49,0 3.89,-0.34 3.89,-2.79 v -25.91 c 0,-2.23 -0.55,-2.23 -3.89,-2.23 v -1.55 c 1.64,0.05 4.28,0.16 5.53,0.16 1.25,0 3.69,-0.11 5.53,-0.16 v 1.55 c -3.34,0 -3.89,0 -3.89,2.23 z"
           inkscape:connector-curvature="0"
           style="fill:#ff0000;fill-opacity:1;stroke:none" /><path
           id="path7201"
           d="m 589.2,417.71 0.05,1.05 c 0.29,7.42 4.48,8.66 6.18,8.66 5.13,0 5.63,-6.72 5.63,-8.66 h -11.81 l -0.05,-1.05 h 13.9 c 1.1,0 1.24,0 1.24,1.05 0,4.92 -2.69,9.75 -8.91,9.75 -5.78,0 -10.37,-5.12 -10.37,-11.36 0,-6.67 5.23,-11.5 10.97,-11.5 6.07,0 8.31,5.53 8.31,6.47 0,0.5 -0.39,0.61 -0.64,0.61 -0.45,0 -0.55,-0.3 -0.66,-0.7 -1.73,-5.13 -6.22,-5.13 -6.72,-5.13 -2.5,0 -4.48,1.49 -5.62,3.33 -1.5,2.39 -1.5,5.69 -1.5,7.48 z"
           inkscape:connector-curvature="0"
           style="fill:#ff0000;fill-opacity:1;stroke:none" /><path
           id="path7203"
           d="m 624.68,408.93 v -3.28 l 7.32,0.55 v 1.55 c -3.49,0 -3.88,0.34 -3.88,2.78 v 30.25 l -7.17,-0.55 v -1.55 c 3.48,0 3.87,-0.34 3.87,-2.79 v -10.75 c -1.43,1.78 -3.57,3.07 -6.28,3.07 l 0.21,-1.09 c 1.75,0 3.84,-0.75 5.39,-2.98 0.54,-0.85 0.54,-0.96 0.54,-1.85 h 0 v -10.22 c 0,-0.89 0,-1 -0.54,-1.84 -1.5,-2.39 -3.75,-3.48 -5.89,-3.48 -2.24,0 -4.03,1.29 -5.22,3.18 -1.3,2.05 -1.46,4.89 -1.46,6.93 0,1.84 0.1,4.84 1.55,7.07 1.05,1.55 2.94,3.19 5.63,3.19 l -0.21,1.09 c -5.87,0 -11.11,-4.87 -11.11,-11.29 0,-6.33 4.89,-11.27 10.57,-11.27 3.18,0 5.43,1.69 6.68,3.28 z"
           inkscape:connector-curvature="0"
           style="fill:#ff0000;fill-opacity:1;stroke:none" /><path
           id="path7205"
           d="m 661.91,439.14 -0.02,0.05 -0.02,0.05 -0.02,0.04 -0.02,0.05 -0.04,0.09 -0.04,0.08 -0.03,0.07 -0.04,0.07 -0.03,0.07 -0.04,0.06 -0.03,0.05 -0.04,0.05 -0.04,0.05 -0.03,0.04 -0.04,0.04 -0.04,0.04 -0.04,0.03 -0.05,0.02 -0.04,0.03 -0.05,0.02 -0.05,0.02 -0.05,0.01 -0.06,0.02 -0.06,0.01 -0.06,0.01 -0.07,0 -0.07,0.01 -0.07,0 -0.08,0.01 -0.08,0 -0.09,0 -0.1,0 -0.09,0 -0.11,0 h -8.42 v -1.55 h 1.2 c 3.83,0 3.93,-0.54 3.93,-2.34 v -24.91 c 0,-1.34 0,-3.68 -5.13,-3.68 v -1.55 c 1.75,0.05 4.19,0.16 5.83,0.16 1.64,0 4.09,-0.11 5.83,-0.16 v 1.55 c -5.13,0 -5.13,2.34 -5.13,3.68 v 26.85 h 0.05 l 12,-30.99 c 0.25,-0.64 0.5,-1.09 1,-1.09 0.55,0 0.7,0.41 0.89,0.95 l 12.26,31.53 h 0.05 v -28.59 c 0,-1.8 -0.09,-2.34 -3.94,-2.34 h -1.18 v -1.55 c 1.84,0.16 5.21,0.16 7.17,0.16 1.94,0 5.28,0 7.12,-0.16 v 1.55 h -1.2 c -3.83,0 -3.94,0.54 -3.94,2.34 v 26.25 c 0,1.8 0.11,2.34 3.94,2.34 h 1.2 v 1.55 h -8.42 c -1.3,0 -1.3,-0.05 -1.64,-0.95 l -10.92,-28.05 z"
           inkscape:connector-curvature="0"
           style="fill:#ff0000;fill-opacity:1;stroke:none" /><path
           id="path7207"
           d="m 719.09,416.86 -0.01,0.59 -0.04,0.59 -0.07,0.58 -0.1,0.57 -0.13,0.56 -0.15,0.55 -0.17,0.54 -0.2,0.53 -0.22,0.51 -0.25,0.5 -0.26,0.49 -0.29,0.47 -0.31,0.46 -0.33,0.44 -0.35,0.43 -0.36,0.4 -0.39,0.39 -0.4,0.37 -0.41,0.35 -0.44,0.32 -0.44,0.31 -0.46,0.28 -0.48,0.26 -0.49,0.24 -0.5,0.21 -0.51,0.18 -0.52,0.16 -0.53,0.13 -0.54,0.11 -0.54,0.07 -0.56,0.05 -0.56,0.01 -0.05,-1.09 c 2.19,0 4.33,-1.1 5.63,-3.24 1.29,-2.14 1.29,-5.03 1.29,-6.92 0,-1.8 0,-4.48 -1.09,-6.67 -1.09,-2.25 -3.28,-3.69 -5.78,-3.69 h 0 c -2.14,0 -4.33,1.05 -5.67,3.33 -1.25,2.2 -1.25,5.23 -1.25,7.03 0,1.94 0,4.63 1.18,6.83 1.36,2.28 3.69,3.33 5.69,3.33 l 0.05,1.09 c -6.22,0 -11.06,-5.42 -11.06,-11.65 0,-6.43 5.18,-11.21 11.01,-11.21 6.03,0 11.06,4.88 11.06,11.21 z"
           inkscape:connector-curvature="0"
           style="fill:#ff0000;fill-opacity:1;stroke:none" /><path
           id="path7209"
           d="m 729.21,426.12 h 7.12 v 1.55 h -7.12 v 9.17 h -1.25 c -0.05,-4.08 -1.55,-9.42 -6.43,-9.61 v -1.11 h 4.24 v -13.75 c 0,-6.12 4.63,-6.72 6.42,-6.72 3.53,0 4.94,3.53 4.94,6.72 v 2.84 h -1.25 v -2.73 c 0,-3.69 -1.5,-5.58 -3.35,-5.58 -3.32,0 -3.32,4.53 -3.32,5.38 z"
           inkscape:connector-curvature="0"
           style="fill:#ff0000;fill-opacity:1;stroke:none" /><path
           id="path7211"
           d="m 748.71,428.21 -6.97,-0.54 v -1.55 c 3.24,0 3.69,-0.3 3.69,-2.73 v -13.41 c 0,-2.23 -0.55,-2.23 -3.89,-2.23 v -1.55 c 1.59,0.05 4.28,0.16 5.48,0.16 1.75,0 3.49,-0.11 5.19,-0.16 v 1.55 c -3.3,0 -3.5,0.25 -3.5,2.18 z"
           inkscape:connector-curvature="0"
           style="fill:#ff0000;fill-opacity:1;stroke:none" /><path
           id="path7213"
           d="m 748.91,436.89 0,0.14 -0.01,0.15 -0.02,0.14 -0.02,0.14 -0.03,0.13 -0.04,0.13 -0.04,0.13 -0.05,0.12 -0.06,0.12 -0.06,0.12 -0.06,0.11 -0.07,0.1 -0.08,0.1 -0.08,0.1 -0.09,0.1 -0.08,0.08 -0.1,0.09 -0.1,0.08 -0.1,0.07 -0.1,0.07 -0.11,0.07 -0.11,0.06 -0.11,0.05 -0.12,0.05 -0.12,0.04 -0.12,0.04 -0.12,0.03 -0.12,0.03 -0.13,0.02 -0.13,0.01 -0.13,0.01 -0.13,0.01 c -1.54,0 -2.64,-1.35 -2.64,-2.64 0,-1.35 1.1,-2.64 2.64,-2.64 1.39,0 2.64,1.04 2.64,2.64 z"
           inkscape:connector-curvature="0"
           style="fill:#ff0000;fill-opacity:1;stroke:none" /><path
           id="path7215"
           d="m 777.16,416.86 -0.01,0.59 -0.04,0.59 -0.07,0.58 -0.1,0.57 -0.13,0.56 -0.15,0.55 -0.17,0.54 -0.2,0.53 -0.22,0.51 -0.25,0.5 -0.26,0.49 -0.29,0.47 -0.31,0.46 -0.33,0.44 -0.35,0.43 -0.36,0.4 -0.39,0.39 -0.4,0.37 -0.41,0.35 -0.44,0.32 -0.44,0.31 -0.46,0.28 -0.48,0.26 -0.49,0.24 -0.5,0.21 -0.51,0.18 -0.52,0.16 -0.53,0.13 -0.54,0.11 -0.54,0.07 -0.56,0.05 -0.56,0.01 -0.05,-1.09 c 2.19,0 4.33,-1.1 5.63,-3.24 1.29,-2.14 1.29,-5.03 1.29,-6.92 0,-1.8 0,-4.48 -1.09,-6.67 -1.09,-2.25 -3.28,-3.69 -5.78,-3.69 h 0 c -2.14,0 -4.33,1.05 -5.67,3.33 -1.25,2.2 -1.25,5.23 -1.25,7.03 0,1.94 0,4.63 1.18,6.83 1.36,2.28 3.69,3.33 5.69,3.33 l 0.05,1.09 c -6.22,0 -11.06,-5.42 -11.06,-11.65 0,-6.43 5.18,-11.21 11.01,-11.21 6.03,0 11.06,4.88 11.06,11.21 z"
           inkscape:connector-curvature="0"
           style="fill:#ff0000;fill-opacity:1;stroke:none" /><path
           id="path7217"
           d="m 784.14,423.34 v -13.36 c 0,-2.23 -0.55,-2.23 -3.89,-2.23 v -1.55 c 1.75,0.05 4.28,0.16 5.62,0.16 1.3,0 3.89,-0.11 5.58,-0.16 v 1.55 c -3.33,0 -3.88,0 -3.88,2.23 v 9.17 c 0,5.19 3.53,7.97 6.72,7.97 3.14,0 3.69,-2.69 3.69,-5.53 v -11.61 c 0,-2.23 -0.55,-2.23 -3.89,-2.23 v -1.55 c 1.75,0.05 4.3,0.16 5.64,0.16 1.3,0 3.87,-0.11 5.58,-0.16 v 1.55 c -2.59,0 -3.84,0 -3.89,1.5 v 9.51 c 0,4.28 0,5.83 -1.55,7.61 -0.69,0.86 -2.34,1.84 -5.22,1.84 -3.64,0 -5.98,-2.14 -7.37,-5.21 v 5.21 l -7.03,-0.54 v -1.55 c 3.48,0 3.89,-0.34 3.89,-2.78 z"
           inkscape:connector-curvature="0"
           style="fill:#ff0000;fill-opacity:1;stroke:none" /><path
           id="path7219"
           d="m 816.73,415.87 0.11,-0.02 0.13,-0.02 0.14,-0.03 0.16,-0.04 0.17,-0.04 0.18,-0.04 0.18,-0.05 0.2,-0.06 0.21,-0.06 0.21,-0.07 0.21,-0.08 0.22,-0.08 0.22,-0.1 0.22,-0.1 0.23,-0.11 0.21,-0.12 0.22,-0.14 0.21,-0.14 0.21,-0.15 0.19,-0.16 0.19,-0.18 0.19,-0.19 0.16,-0.2 0.16,-0.21 0.14,-0.22 0.07,-0.12 0.06,-0.12 0.06,-0.13 0.06,-0.12 0.04,-0.14 0.05,-0.13 0.04,-0.14 0.04,-0.14 0.03,-0.15 0.02,-0.15 0.02,-0.16 0.02,-0.15 0.01,-0.17 0,-0.16 c 0,-2.53 -1.75,-4.53 -5.63,-4.53 -4.19,0 -5.98,2.84 -6.94,7.07 -0.13,0.64 -0.18,0.85 -0.68,0.85 -0.66,0 -0.66,-0.35 -0.66,-1.25 v -6.58 c 0,-0.84 0,-1.19 0.55,-1.19 0.25,0 0.29,0.05 1.25,1 0.09,0.1 0.09,0.19 1,1.14 2.19,-2.09 4.44,-2.14 5.48,-2.14 5.72,0 8.02,3.35 8.02,6.92 0,2.64 -1.5,4.14 -2.09,4.74 -1.65,1.59 -3.6,2 -5.69,2.39 -2.78,0.55 -6.13,1.2 -6.13,4.09 0,1.74 1.3,3.78 5.58,3.78 5.49,0 5.74,-4.48 5.83,-6.03 0.06,-0.45 0.5,-0.45 0.61,-0.45 0.64,0 0.64,0.25 0.64,1.2 v 5.03 c 0,0.85 0,1.19 -0.55,1.19 -0.25,0 -0.34,0 -1,-0.59 -0.14,-0.21 -0.64,-0.64 -0.84,-0.8 -1.89,1.39 -3.94,1.39 -4.69,1.39 -6.08,0 -7.97,-3.33 -7.97,-6.12 0,-1.74 0.8,-3.14 2.14,-4.24 1.6,-1.29 3,-1.59 6.58,-2.28 z"
           inkscape:connector-curvature="0"
           style="fill:#ff0000;fill-opacity:1;stroke:none" /></g></g></g></svg>