<?xml version="1.0" encoding="UTF-8" standalone="no"?>
<!-- Created with Inkscape (http://www.inkscape.org/) -->

<svg
   xmlns:dc="http://purl.org/dc/elements/1.1/"
   xmlns:cc="http://creativecommons.org/ns#"
   xmlns:rdf="http://www.w3.org/1999/02/22-rdf-syntax-ns#"
   xmlns:svg="http://www.w3.org/2000/svg"
   xmlns="http://www.w3.org/2000/svg"
   xmlns:sodipodi="http://sodipodi.sourceforge.net/DTD/sodipodi-0.dtd"
   xmlns:inkscape="http://www.inkscape.org/namespaces/inkscape"
   id="svg3800"
   version="1.1"
   inkscape:version="0.48.4 r9939"
   width="447.99124"
   height="255.26654"
   xml:space="preserve"
   sodipodi:docname="frictionCone.pdf"><metadata
     id="metadata3806"><rdf:RDF><cc:Work
         rdf:about=""><dc:format>image/svg+xml</dc:format><dc:type
           rdf:resource="http://purl.org/dc/dcmitype/StillImage" /><dc:title></dc:title></cc:Work></rdf:RDF></metadata><defs
     id="defs3804" /><sodipodi:namedview
     pagecolor="#ffffff"
     bordercolor="#666666"
     borderopacity="1"
     objecttolerance="10"
     gridtolerance="10"
     guidetolerance="10"
     inkscape:pageopacity="0"
     inkscape:pageshadow="2"
     inkscape:window-width="1920"
     inkscape:window-height="1057"
     id="namedview3802"
     showgrid="false"
     fit-margin-top="0"
     fit-margin-left="0"
     fit-margin-right="0"
     fit-margin-bottom="0"
     inkscape:zoom="0.22425739"
     inkscape:cx="244.76349"
     inkscape:cy="64.031396"
     inkscape:window-x="1600"
     inkscape:window-y="23"
     inkscape:window-maximized="0"
     inkscape:current-layer="g3808" /><g
     id="g3808"
     inkscape:groupmode="layer"
     inkscape:label="frictionCone"
     transform="matrix(1.25,0,0,-1.25,-127.28375,717.41625)"><g
       id="g3810"><g
         id="g3812"
         transform="matrix(1,0,0,-1,0,841.88977)"><path
           d="M 102.227,387.32 228.293,471.77 459.82,355.398 324.863,289.941 102.227,387.32"
           style="fill:none;stroke:#5eff00;stroke-width:0.80000001;stroke-linecap:butt;stroke-linejoin:miter;stroke-miterlimit:4;stroke-opacity:1;stroke-dasharray:none"
           id="path3814"
           inkscape:connector-curvature="0" /></g><g
         id="g3816"
         transform="matrix(1,0,0,-1,0,841.88977)"><path
           d="m 261.426,309.336 0.406,72.73 69.902,-27.07"
           style="fill:none;stroke:#00ff00;stroke-width:0.80000001;stroke-linecap:butt;stroke-linejoin:miter;stroke-miterlimit:4;stroke-opacity:1;stroke-dasharray:none"
           id="path3818"
           inkscape:connector-curvature="0" /></g><g
         id="g3820"
         transform="matrix(0.00555549,-1,-1,-0.00555549,0,841.88977)"><path
           d="m 318.779,-259.702 3.201,-3.201 -11.201,3.204 11.201,3.199 -3.201,-3.202 z"
           style="fill:#00ff00;fill-opacity:1;fill-rule:evenodd;stroke:#00ff00;stroke-width:0.79998797;stroke-linecap:butt;stroke-linejoin:miter;stroke-miterlimit:4;stroke-opacity:1;stroke-dasharray:none"
           id="path3822"
           inkscape:connector-curvature="0" /></g><g
         id="g3824"
         transform="matrix(-1,-0.387283,-0.387283,1,0,841.88977)"><path
           d="m -161.454,-420.415 2.983,-2.982 -10.444,2.983 10.446,2.983 -2.985,-2.984 z"
           style="fill:#00ff00;fill-opacity:1;fill-rule:evenodd;stroke:#00ff00;stroke-width:0.74600798;stroke-linecap:butt;stroke-linejoin:miter;stroke-miterlimit:4;stroke-opacity:1;stroke-dasharray:none"
           id="path3826"
           inkscape:connector-curvature="0" /></g><g
         id="g3828"
         transform="matrix(1,0,0,-1,0,841.88977)"><path
           d="m 261.68,382.219 54.699,35.812"
           style="fill:none;stroke:#00ff00;stroke-width:0.80000001;stroke-linecap:butt;stroke-linejoin:miter;stroke-miterlimit:4;stroke-opacity:1;stroke-dasharray:none"
           id="path3830"
           inkscape:connector-curvature="0" /></g><g
         id="g3832"
         transform="matrix(-1,0.654663,0.654663,1,0,841.88977)"><path
           d="m -406.338,-147.634 2.676,-2.678 -9.368,2.676 9.37,2.678 -2.678,-2.676 z"
           style="fill:#00ff00;fill-opacity:1;fill-rule:evenodd;stroke:#00ff00;stroke-width:0.66932499;stroke-linecap:butt;stroke-linejoin:miter;stroke-miterlimit:4;stroke-opacity:1;stroke-dasharray:none"
           id="path3834"
           inkscape:connector-curvature="0" /></g><g
         id="g3836"
         transform="matrix(1,0.023297,0.023297,-1,0,841.88977)"><path
           d="m 195.729,280.068 c 3.88,20.578 8.87,40.952 14.946,60.996 3.377,11.142 7.22,22.434 14.417,31.586 3.596,4.58 8.019,8.562 13.171,11.276 5.151,2.714 11.048,4.12 16.846,3.591 6.126,-0.556 11.958,-3.26 16.694,-7.181 4.736,-3.921 8.418,-9.023 11.136,-14.537 5.437,-11.034 7.055,-23.488 8.932,-35.644 2.779,-18.037 6.287,-35.967 10.501,-53.724"
           style="fill:none;stroke:#00c0ff;stroke-width:0.79978299;stroke-linecap:butt;stroke-linejoin:miter;stroke-miterlimit:4;stroke-opacity:1;stroke-dasharray:none"
           id="path3838"
           inkscape:connector-curvature="0" /></g><g
         id="g3840"
         transform="matrix(1,0.023297,0.023297,-1,0,841.88977)"><path
           d="m 252.687,328.137 0.806,58.976 50.093,-3.634"
           style="fill:none;stroke:#0000ff;stroke-width:0.79978299;stroke-linecap:butt;stroke-linejoin:miter;stroke-miterlimit:4;stroke-opacity:1;stroke-dasharray:none"
           id="path3842"
           inkscape:connector-curvature="0" /></g><g
         id="g3844"
         transform="matrix(0.0370074,-1,-1,-0.0370074,0,841.88977)"><path
           d="m 339.422,-248.064 3.201,-3.198 -11.193,3.195 11.191,3.2 -3.199,-3.197 z"
           style="fill:#0000ff;fill-opacity:1;fill-rule:evenodd;stroke:#0000ff;stroke-width:0.79945302;stroke-linecap:butt;stroke-linejoin:miter;stroke-miterlimit:4;stroke-opacity:1;stroke-dasharray:none"
           id="path3846"
           inkscape:connector-curvature="0" /></g><g
         id="g3848"
         transform="matrix(-1,-0.09604,-0.09604,1,0,841.88977)"><path
           d="m -265.879,-402.703 3.185,-3.186 -11.15,3.183 11.151,3.188 -3.186,-3.185 z"
           style="fill:#0000ff;fill-opacity:1;fill-rule:evenodd;stroke:#0000ff;stroke-width:0.796336;stroke-linecap:butt;stroke-linejoin:miter;stroke-miterlimit:4;stroke-opacity:1;stroke-dasharray:none"
           id="path3850"
           inkscape:connector-curvature="0" /></g><g
         id="g3852"
         transform="matrix(1,0.023297,0.023297,-1,0,841.88977)"><path
           d="m 253.091,387.111 -15.351,31.51"
           style="fill:none;stroke:#0000ff;stroke-width:0.79978299;stroke-linecap:butt;stroke-linejoin:miter;stroke-miterlimit:4;stroke-opacity:1;stroke-dasharray:none"
           id="path3854"
           inkscape:connector-curvature="0" /></g><g
         id="g3856"
         transform="matrix(0.458677,1,1,-0.458677,0,841.88977)"><path
           d="m -240.224,361.013 2.911,-2.909 -10.181,2.908 10.178,2.91 -2.908,-2.909 z"
           style="fill:#0000ff;fill-opacity:1;fill-rule:evenodd;stroke:#0000ff;stroke-width:0.727157;stroke-linecap:butt;stroke-linejoin:miter;stroke-miterlimit:4;stroke-opacity:1;stroke-dasharray:none"
           id="path3858"
           inkscape:connector-curvature="0" /></g><g
         id="g3860"
         transform="matrix(1,0,0,-1,0,841.88977)"><path
           d="M 261.832,382.066 226.879,294.387"
           style="fill:none;stroke:#ff0000;stroke-width:0.80000001;stroke-linecap:butt;stroke-linejoin:miter;stroke-miterlimit:4;stroke-opacity:1;stroke-dasharray:none"
           id="path3862"
           inkscape:connector-curvature="0" /></g><g
         id="g3864"
         transform="matrix(0.398618,-1,-1,-0.398618,0,841.88977)"><path
           d="m 339.496,-94.515 2.97,-2.972 -10.405,2.974 10.406,2.972 -2.971,-2.974 z"
           style="fill:#ff0000;fill-opacity:1;fill-rule:evenodd;stroke:#ff0000;stroke-width:0.74313498;stroke-linecap:butt;stroke-linejoin:miter;stroke-miterlimit:4;stroke-opacity:1;stroke-dasharray:none"
           id="path3866"
           inkscape:connector-curvature="0" /></g><g
         id="g3868"
         transform="matrix(1,0,0,-1,0,841.88977)"><path
           d="m 230.402,322.078 c -9.562,-4.824 -2.785,-10.82 15.133,-13.394 17.914,-2.575 40.188,-0.75 49.746,4.074 9.563,4.824 2.785,10.82 -15.133,13.394 -17.898,2.571 -40.148,0.754 -49.722,-4.062"
           style="fill:none;stroke:#ff6800;stroke-width:1.60000002;stroke-linecap:butt;stroke-linejoin:round;stroke-miterlimit:4;stroke-opacity:1;stroke-dasharray:none"
           id="path3870"
           inkscape:connector-curvature="0" /></g><g
         id="g3872"
         transform="matrix(1,0,0,-1,0,841.88977)"><path
           d="m 225.738,318.207 36.164,63.715 37.766,-63.192"
           style="fill:none;stroke:#ff6800;stroke-width:0.80000001;stroke-linecap:butt;stroke-linejoin:miter;stroke-miterlimit:4;stroke-opacity:1;stroke-dasharray:none"
           id="path3874"
           inkscape:connector-curvature="0" /></g><path
         d="m 281.828,560.046 -0.023,-0.082 -0.02,-0.078 -0.019,-0.074 -0.02,-0.067 -0.019,-0.07 -0.024,-0.059 -0.023,-0.062 -0.024,-0.055 -0.019,-0.051 -0.032,-0.05 -0.031,-0.047 -0.031,-0.039 -0.031,-0.043 -0.043,-0.032 -0.043,-0.039 -0.051,-0.027 -0.051,-0.031 -0.117,-0.047 -0.07,-0.024 -0.075,-0.015 -0.039,-0.012 -0.043,-0.004 -0.042,-0.008 -0.043,-0.011 -0.094,-0.008 -0.051,-0.004 -0.055,-0.012 -0.05,-0.004 -0.059,-0.004 -0.059,0 -0.058,-0.003 -0.063,-0.004 -0.066,0 -0.063,-0.004 -0.07,0 -0.074,-0.008 -0.391,0 c -0.39,0 -0.621,0 -0.621,-0.461 0,-0.25 0.211,-0.25 0.621,-0.25 l 8.192,0 c 3.625,0 6.332,2.703 6.332,4.957 0,1.648 -1.332,2.98 -3.555,3.23 2.391,0.438 4.797,2.141 4.797,4.325 0,1.695 -1.52,3.164 -4.274,3.164 l -0.316,-0.715 c 2.016,0 2.496,-1.352 2.496,-2.359 0,-2.024 -1.973,-4.208 -4.769,-4.208 l -3.348,0 -0.137,-0.5 4.332,0 c 2.203,0 2.641,-1.699 2.641,-2.687 0,-2.273 -2.039,-4.496 -4.75,-4.496 l -3.121,0 c -0.321,0 -0.371,0 -0.504,0.019 -0.231,0.024 -0.293,0.047 -0.293,0.231 0,0.066 0,0.117 0.113,0.527 l 1.582,6.406 0.137,0.5 1.418,5.696 c 0.207,0.801 0.25,0.871 1.246,0.871 l 2.957,0 0.316,0.715 -7.707,0 c -0.433,0 -0.664,0 -0.664,-0.461 0,-0.254 0.203,-0.254 0.641,-0.254 0.043,0 0.484,0 0.871,-0.043 0.41,-0.051 0.617,-0.074 0.617,-0.367 0,-0.094 -0.019,-0.164 -0.09,-0.438 l -3.074,-12.324 z"
         style="fill:#00a4fe;fill-opacity:1;fill-rule:nonzero;stroke:none"
         id="path3876"
         inkscape:connector-curvature="0" /><path
         d="m 300.945,565.038 0,0.16 -0.004,0.012 0,0.043 -0.003,0.012 0,0.023 -0.004,0.016 0,0.008 -0.008,0.015 0,0.008 -0.004,0.02 -0.008,0.019 -0.012,0.012 -0.007,0.015 -0.008,0.012 -0.012,0.016 -0.012,0.008 -0.015,0.007 -0.012,0.012 -0.039,0.008 -0.024,0.012 -0.015,0 -0.016,0.004 -0.012,0 -0.011,0.004 -0.055,0 -0.019,0.003 -0.18,0 c -1.031,-1.011 -2.485,-1.027 -3.145,-1.027 l 0,-0.574 c 0.387,0 1.446,0 2.321,0.445 l 0,-8.183 c 0,-0.536 0,-0.743 -1.602,-0.743 l -0.605,0 0,-0.578 c 0.289,0.016 2.257,0.067 2.859,0.067 0.496,0 2.519,-0.051 2.867,-0.067 l 0,0.578 -0.605,0 c -1.61,0 -1.61,0.207 -1.61,0.743 l 0,8.89 z"
         style="fill:#00a4fe;fill-opacity:1;fill-rule:nonzero;stroke:none"
         id="path3878"
         inkscape:connector-curvature="0" /><path
         d="m 215.801,388.753 -0.028,-0.105 -0.023,-0.098 -0.027,-0.09 -0.047,-0.172 -0.028,-0.074 -0.031,-0.074 -0.027,-0.067 -0.028,-0.062 -0.035,-0.063 -0.039,-0.058 -0.043,-0.051 -0.039,-0.051 -0.051,-0.039 -0.05,-0.047 -0.063,-0.035 -0.062,-0.039 -0.149,-0.055 -0.086,-0.031 -0.09,-0.023 -0.05,-0.012 -0.055,-0.004 -0.051,-0.012 -0.054,-0.011 -0.059,-0.004 -0.055,-0.008 -0.062,-0.004 -0.071,-0.012 -0.062,-0.008 -0.074,-0.003 -0.067,0 -0.074,-0.004 -0.082,-0.008 -0.078,0 -0.082,-0.004 -0.086,0 -0.09,-0.008 -0.484,0 c -0.485,0 -0.77,0 -0.77,-0.57 0,-0.313 0.262,-0.313 0.77,-0.313 l 10.133,0 c 4.484,0 7.836,3.344 7.836,6.133 0,2.039 -1.649,3.688 -4.399,4 2.957,0.543 5.938,2.645 5.938,5.344 0,2.098 -1.879,3.918 -5.289,3.918 l -0.395,-0.883 c 2.496,0 3.09,-1.672 3.09,-2.918 0,-2.504 -2.438,-5.203 -5.899,-5.203 l -4.14,0 -0.172,-0.621 5.363,0 c 2.723,0 3.266,-2.106 3.266,-3.324 0,-2.817 -2.528,-5.563 -5.879,-5.563 l -3.863,0 c -0.391,0 -0.454,0 -0.621,0.024 -0.286,0.027 -0.364,0.058 -0.364,0.285 0,0.078 0,0.14 0.141,0.648 l 1.957,7.93 0.172,0.621 1.754,7.043 c 0.257,0.992 0.308,1.078 1.539,1.078 l 3.656,0 0.395,0.883 -9.536,0 c -0.535,0 -0.82,0 -0.82,-0.57 0,-0.313 0.25,-0.313 0.793,-0.313 0.051,0 0.598,0 1.078,-0.051 0.508,-0.066 0.762,-0.094 0.762,-0.457 0,-0.113 -0.024,-0.207 -0.113,-0.543 l -3.801,-15.242 z"
         style="fill:#70ff00;fill-opacity:1;fill-rule:nonzero;stroke:none"
         id="path3880"
         inkscape:connector-curvature="0" /><path
         d="m 242.824,385.913 -0.672,0 c -0.054,-0.437 -0.261,-1.613 -0.519,-1.812 -0.153,-0.114 -1.68,-0.114 -1.961,-0.114 l -3.656,0 c 2.086,1.84 2.781,2.395 3.972,3.329 1.469,1.179 2.836,2.406 2.836,4.296 0,2.399 -2.097,3.872 -4.644,3.872 -2.457,0 -4.133,-1.731 -4.133,-3.551 0,-1.016 0.855,-1.117 1.062,-1.117 0.473,0 1.047,0.339 1.047,1.054 0,0.352 -0.14,1.047 -1.172,1.047 0.614,1.406 1.965,1.848 2.899,1.848 1.992,0 3.023,-1.547 3.023,-3.153 0,-1.734 -1.234,-3.101 -1.871,-3.812 l -4.781,-4.731 c -0.207,-0.175 -0.207,-0.222 -0.207,-0.773 l 8.187,0 0.59,3.617 z"
         style="fill:#70ff00;fill-opacity:1;fill-rule:nonzero;stroke:none"
         id="path3882"
         inkscape:connector-curvature="0" /><path
         d="m 303.078,455.484 0.012,0.058 0.019,0.07 0.02,0.075 0.019,0.086 0.028,0.089 0.027,0.098 0.027,0.106 0.036,0.101 0.035,0.109 0.043,0.114 0.047,0.117 0.047,0.109 0.054,0.118 0.055,0.121 0.125,0.234 0.07,0.109 0.07,0.114 0.083,0.109 0.085,0.102 0.082,0.105 0.094,0.094 0.098,0.09 0.105,0.082 0.11,0.078 0.117,0.062 0.055,0.035 0.062,0.028 0.125,0.047 0.067,0.023 0.066,0.02 0.07,0.011 0.071,0.016 0.07,0.008 0.074,0.012 0.074,0.003 0.078,0 c 0.118,0 0.676,0 1.164,-0.3 -0.652,-0.118 -1.124,-0.703 -1.124,-1.262 0,-0.371 0.257,-0.82 0.886,-0.82 0.52,0 1.266,0.418 1.266,1.355 0,1.219 -1.383,1.539 -2.176,1.539 -1.355,0 -2.176,-1.238 -2.453,-1.773 -0.586,1.539 -1.852,1.773 -2.523,1.773 -2.434,0 -3.774,-3.015 -3.774,-3.601 0,-0.235 0.234,-0.235 0.285,-0.235 0.184,0 0.262,0.051 0.301,0.258 0.793,2.48 2.344,3.066 3.137,3.066 0.445,0 1.258,-0.207 1.258,-1.562 0,-0.723 -0.395,-2.297 -1.258,-5.57 -0.375,-1.45 -1.192,-2.43 -2.227,-2.43 -0.14,0 -0.676,0 -1.164,0.305 0.59,0.113 1.102,0.601 1.102,1.261 0,0.629 -0.512,0.813 -0.864,0.813 -0.707,0 -1.293,-0.606 -1.293,-1.356 0,-1.07 1.172,-1.539 2.196,-1.539 1.551,0 2.386,1.637 2.461,1.774 0.277,-0.864 1.121,-1.774 2.523,-1.774 2.41,0 3.75,3.012 3.75,3.602 0,0.234 -0.211,0.234 -0.285,0.234 -0.207,0 -0.262,-0.094 -0.301,-0.254 -0.769,-2.504 -2.363,-3.066 -3.113,-3.066 -0.918,0 -1.293,0.746 -1.293,1.543 0,0.519 0.141,1.031 0.406,2.058 l 0.793,3.208 z"
         style="fill:#0000ff;fill-opacity:1;fill-rule:nonzero;stroke:none"
         id="path3884"
         inkscape:connector-curvature="0" /><path
         d="m 314.098,455.327 0,0.18 -0.008,0.012 0,0.027 -0.004,0.016 0,0.023 -0.004,0.016 0,0.008 -0.004,0.015 0,0.008 -0.004,0.019 -0.012,0.02 -0.007,0.012 -0.012,0.015 -0.008,0.012 -0.012,0.016 -0.011,0.008 -0.016,0.011 -0.012,0.008 -0.019,0.008 -0.02,0.004 -0.023,0.008 -0.02,0 -0.011,0.003 -0.016,0 -0.008,0.008 -0.058,0 -0.02,0.004 -0.18,0 c -1.054,-1.035 -2.531,-1.047 -3.207,-1.047 l 0,-0.59 c 0.395,0 1.473,0 2.364,0.458 l 0,-8.344 c 0,-0.543 0,-0.754 -1.633,-0.754 l -0.613,0 0,-0.586 c 0.289,0.012 2.3,0.062 2.91,0.062 0.508,0 2.566,-0.05 2.929,-0.062 l 0,0.586 -0.625,0 c -1.636,0 -1.636,0.211 -1.636,0.754 l 0,9.062 z"
         style="fill:#0000ff;fill-opacity:1;fill-rule:nonzero;stroke:none"
         id="path3886"
         inkscape:connector-curvature="0" /><path
         d="m 335.527,479.523 0.012,0.054 0.016,0.063 0.019,0.07 0.016,0.074 0.027,0.082 0.024,0.09 0.054,0.188 0.035,0.097 0.04,0.102 0.042,0.105 0.043,0.102 0.043,0.105 0.11,0.211 0.058,0.11 0.125,0.203 0.075,0.097 0.078,0.094 0.074,0.094 0.086,0.082 0.09,0.082 0.094,0.074 0.097,0.071 0.106,0.058 0.05,0.031 0.055,0.024 0.059,0.023 0.054,0.02 0.059,0.023 0.062,0.016 0.125,0.023 0.067,0.012 0.066,0.008 0.067,0.004 0.07,0 c 0.105,0 0.609,0 1.051,-0.274 -0.59,-0.105 -1.016,-0.636 -1.016,-1.14 0,-0.336 0.235,-0.742 0.805,-0.742 0.465,0 1.14,0.375 1.14,1.226 0,1.102 -1.246,1.391 -1.964,1.391 -1.227,0 -1.969,-1.121 -2.219,-1.606 -0.531,1.395 -1.672,1.606 -2.281,1.606 -2.203,0 -3.414,-2.723 -3.414,-3.254 0,-0.215 0.214,-0.215 0.261,-0.215 0.164,0 0.231,0.047 0.27,0.234 0.719,2.243 2.121,2.774 2.836,2.774 0.402,0 1.136,-0.188 1.136,-1.414 0,-0.653 -0.355,-2.075 -1.136,-5.035 -0.34,-1.313 -1.078,-2.2 -2.012,-2.2 -0.129,0 -0.609,0 -1.051,0.278 0.528,0.101 0.992,0.543 0.992,1.14 0,0.571 -0.464,0.735 -0.781,0.735 -0.637,0 -1.168,-0.547 -1.168,-1.227 0,-0.969 1.063,-1.391 1.988,-1.391 1.399,0 2.157,1.481 2.223,1.602 0.25,-0.781 1.016,-1.602 2.281,-1.602 2.18,0 3.391,2.723 3.391,3.254 0,0.215 -0.191,0.215 -0.258,0.215 -0.187,0 -0.234,-0.086 -0.273,-0.23 -0.696,-2.262 -2.137,-2.774 -2.813,-2.774 -0.828,0 -1.168,0.676 -1.168,1.399 0,0.465 0.125,0.929 0.364,1.859 l 0.718,2.899 z"
         style="fill:#00ff00;fill-opacity:1;fill-rule:nonzero;stroke:none"
         id="path3888"
         inkscape:connector-curvature="0" /><path
         d="m 348.004,472.671 -0.504,0 c -0.039,-0.328 -0.195,-1.203 -0.383,-1.352 -0.113,-0.082 -1.254,-0.082 -1.461,-0.082 l -2.726,0 c 1.554,1.372 2.07,1.782 2.961,2.477 1.093,0.879 2.113,1.793 2.113,3.203 0,1.785 -1.563,2.883 -3.461,2.883 -1.828,0 -3.078,-1.289 -3.078,-2.645 0,-0.757 0.637,-0.832 0.789,-0.832 0.351,0 0.781,0.254 0.781,0.786 0,0.261 -0.105,0.781 -0.875,0.781 0.461,1.047 1.465,1.375 2.164,1.375 1.481,0 2.246,-1.153 2.246,-2.348 0,-1.293 -0.914,-2.308 -1.39,-2.84 l -3.563,-3.523 c -0.152,-0.133 -0.152,-0.168 -0.152,-0.578 l 6.097,0 0.442,2.695 z"
         style="fill:#00ff00;fill-opacity:1;fill-rule:nonzero;stroke:none"
         id="path3890"
         inkscape:connector-curvature="0" /><path
         d="m 338.855,442.456 0.004,0.016 0.004,0.012 0.004,0.027 0.008,0.019 0.008,0.047 0.008,0.016 0.004,0.019 0.003,0.016 0.008,0.02 0,0.015 0.008,0.031 0.004,0.012 0,0.016 0.004,0.012 0,0.011 0.004,0.012 0,0.012 0.004,0.019 0,0.067 0.004,0.023 0,0.047 c 0,0.375 -0.286,0.555 -0.594,0.555 -0.207,0 -0.535,-0.121 -0.719,-0.43 -0.043,-0.106 -0.207,-0.734 -0.285,-1.109 -0.148,-0.532 -0.289,-1.086 -0.41,-1.637 L 336,436.612 c -0.078,-0.308 -0.961,-1.742 -2.316,-1.742 -1.043,0 -1.274,0.899 -1.274,1.66 0,0.942 0.352,2.219 1.047,4.016 0.332,0.844 0.414,1.07 0.414,1.484 0,0.914 -0.656,1.672 -1.683,1.672 -1.954,0 -2.708,-2.965 -2.708,-3.156 0,-0.207 0.204,-0.207 0.25,-0.207 0.204,0 0.223,0.047 0.325,0.375 0.554,1.934 1.371,2.543 2.07,2.543 0.164,0 0.516,0 0.516,-0.656 0,-0.516 -0.207,-1.043 -0.352,-1.438 -0.816,-2.172 -1.191,-3.34 -1.191,-4.308 0,-1.821 1.297,-2.438 2.5,-2.438 0.808,0 1.5,0.352 2.07,0.922 -0.262,-1.063 -0.504,-2.07 -1.328,-3.16 -0.535,-0.692 -1.313,-1.293 -2.254,-1.293 -0.285,0 -1.211,0.066 -1.563,0.863 0.329,0 0.602,0 0.883,0.254 0.203,0.176 0.41,0.449 0.41,0.836 0,0.637 -0.55,0.719 -0.757,0.719 -0.469,0 -1.153,-0.328 -1.153,-1.332 0,-1.032 0.91,-1.789 2.18,-1.789 2.113,0 4.223,1.875 4.801,4.187 l 1.968,7.832 z"
         style="fill:#00ff00;fill-opacity:1;fill-rule:nonzero;stroke:none"
         id="path3892"
         inkscape:connector-curvature="0" /><path
         d="m 346.203,434.194 -0.488,0 c -0.039,-0.316 -0.188,-1.164 -0.371,-1.308 -0.114,-0.082 -1.215,-0.082 -1.418,-0.082 l -2.641,0 c 1.504,1.332 2.008,1.73 2.867,2.406 1.063,0.852 2.051,1.734 2.051,3.102 0,1.734 -1.515,2.793 -3.355,2.793 -1.778,0 -2.985,-1.246 -2.985,-2.563 0,-0.734 0.617,-0.805 0.766,-0.805 0.34,0 0.758,0.247 0.758,0.758 0,0.258 -0.102,0.758 -0.848,0.758 0.445,1.02 1.418,1.336 2.094,1.336 1.437,0 2.183,-1.117 2.183,-2.277 0,-1.25 -0.89,-2.239 -1.351,-2.754 l -3.453,-3.414 c -0.149,-0.129 -0.149,-0.164 -0.149,-0.563 l 5.91,0 0.43,2.613 z"
         style="fill:#00ff00;fill-opacity:1;fill-rule:nonzero;stroke:none"
         id="path3894"
         inkscape:connector-curvature="0" /><path
         d="m 266.059,435.441 0.007,0.031 0.004,0.027 0.008,0.024 0.008,0.027 0.004,0.023 0.008,0.02 0.004,0.023 0.007,0.016 0.004,0.019 0,0.02 0.004,0.016 0.004,0.019 0.004,0.016 0,0.012 0.004,0.015 0,0.012 0.008,0.015 0,0.012 0.004,0.024 0,0.074 0.004,0.023 0,0.055 c 0,0.422 -0.321,0.625 -0.665,0.625 -0.23,0 -0.601,-0.137 -0.808,-0.484 -0.047,-0.118 -0.231,-0.825 -0.32,-1.243 -0.164,-0.597 -0.325,-1.218 -0.461,-1.839 l -1.039,-4.141 c -0.086,-0.348 -1.079,-1.957 -2.598,-1.957 -1.172,0 -1.43,1.008 -1.43,1.863 0,1.059 0.399,2.488 1.176,4.508 0.371,0.945 0.465,1.199 0.465,1.664 0,1.027 -0.735,1.879 -1.891,1.879 -2.187,0 -3.039,-3.332 -3.039,-3.543 0,-0.23 0.231,-0.23 0.281,-0.23 0.231,0 0.25,0.05 0.368,0.418 0.621,2.167 1.535,2.851 2.32,2.851 0.187,0 0.578,0 0.578,-0.734 0,-0.578 -0.23,-1.168 -0.391,-1.614 -0.921,-2.437 -1.339,-3.75 -1.339,-4.836 0,-2.039 1.453,-2.734 2.808,-2.734 0.902,0 1.68,0.395 2.32,1.035 -0.292,-1.191 -0.566,-2.32 -1.492,-3.547 -0.597,-0.773 -1.472,-1.449 -2.527,-1.449 -0.32,0 -1.359,0.074 -1.754,0.969 0.371,0 0.676,0 0.988,0.281 0.235,0.199 0.465,0.504 0.465,0.938 0,0.718 -0.621,0.808 -0.851,0.808 -0.528,0 -1.293,-0.367 -1.293,-1.496 0,-1.152 1.019,-2.004 2.445,-2.004 2.371,0 4.738,2.102 5.387,4.699 l 2.211,8.79 z"
         style="fill:#0000ff;fill-opacity:1;fill-rule:nonzero;stroke:none"
         id="path3896"
         inkscape:connector-curvature="0" /><path
         d="m 271.566,433.472 0,0.16 -0.004,0.016 0,0.043 -0.003,0.011 0,0.024 -0.004,0.015 0,0.008 -0.008,0.012 0,0.012 -0.008,0.019 -0.004,0.016 -0.008,0.015 -0.011,0.012 -0.008,0.016 -0.024,0.023 -0.015,0.008 -0.012,0.012 -0.039,0.007 -0.023,0.008 -0.016,0 -0.016,0.004 -0.011,0 -0.012,0.008 -0.055,0 -0.019,0.004 -0.184,0 c -1.031,-1.016 -2.488,-1.031 -3.148,-1.031 l 0,-0.578 c 0.386,0 1.449,0 2.328,0.449 l 0,-8.207 c 0,-0.535 0,-0.742 -1.61,-0.742 l -0.605,0 0,-0.579 c 0.285,0.012 2.265,0.063 2.863,0.063 0.5,0 2.528,-0.051 2.879,-0.063 l 0,0.579 -0.609,0 c -1.614,0 -1.614,0.207 -1.614,0.742 l 0,8.914 z"
         style="fill:#0000ff;fill-opacity:1;fill-rule:nonzero;stroke:none"
         id="path3898"
         inkscape:connector-curvature="0" /><path
         d="m 264.715,498.487 0.121,0.129 0.226,0.235 0.11,0.113 0.101,0.109 0.106,0.106 0.098,0.105 0.191,0.192 0.094,0.09 0.179,0.179 0.086,0.082 0.09,0.086 0.164,0.156 0.16,0.149 0.157,0.144 0.156,0.137 0.152,0.137 0.309,0.265 0.156,0.137 0.156,0.133 c 0,0.023 1.457,1.273 2.309,2.125 2.238,2.195 2.762,3.328 2.762,3.41 0,0.238 -0.219,0.238 -0.262,0.238 -0.168,0 -0.238,-0.043 -0.356,-0.253 -0.703,-1.133 -1.195,-1.512 -1.769,-1.512 -0.566,0 -0.848,0.355 -1.203,0.754 -0.446,0.547 -0.84,1.011 -1.629,1.011 -1.766,0 -2.848,-2.187 -2.848,-2.683 0,-0.117 0.067,-0.254 0.285,-0.254 0.211,0 0.254,0.117 0.301,0.254 0.449,1.09 1.817,1.113 2.004,1.113 0.496,0 0.945,-0.172 1.484,-0.355 0.946,-0.356 1.207,-0.356 1.825,-0.356 -0.852,-1.012 -2.836,-2.715 -3.278,-3.09 l -2.125,-1.98 c -1.601,-1.578 -2.433,-2.922 -2.433,-3.09 0,-0.234 0.238,-0.234 0.281,-0.234 0.195,0 0.238,0.047 0.379,0.3 0.547,0.829 1.25,1.469 2.008,1.469 0.543,0 0.781,-0.219 1.367,-0.894 0.406,-0.496 0.828,-0.875 1.504,-0.875 2.34,0 3.707,2.996 3.707,3.629 0,0.117 -0.098,0.238 -0.281,0.238 -0.219,0 -0.258,-0.141 -0.336,-0.309 -0.539,-1.535 -2.043,-1.972 -2.828,-1.972 -0.465,0 -0.895,0.136 -1.395,0.3 -0.793,0.305 -1.148,0.399 -1.645,0.399 -0.046,0 -0.421,0 -0.64,-0.067 z"
         style="fill:#0000ff;fill-opacity:1;fill-rule:nonzero;stroke:none"
         id="path3900"
         inkscape:connector-curvature="0" /><path
         d="m 278.066,503.495 0,0.164 -0.004,0.016 0,0.043 -0.003,0.012 0,0.023 -0.008,0.016 0,0.011 -0.004,0.012 0,0.012 -0.008,0.015 -0.004,0.02 -0.012,0.016 -0.007,0.015 -0.012,0.012 -0.008,0.016 -0.016,0.007 -0.011,0.012 -0.016,0.008 -0.019,0.004 -0.02,0.008 -0.023,0.007 -0.02,0 -0.012,0.004 -0.015,0 -0.008,0.004 -0.059,0 -0.019,0.008 -0.188,0 c -1.054,-1.043 -2.55,-1.059 -3.226,-1.059 l 0,-0.589 c 0.394,0 1.484,0 2.383,0.457 l 0,-8.41 c 0,-0.547 0,-0.762 -1.645,-0.762 l -0.621,0 0,-0.59 c 0.293,0.016 2.32,0.066 2.934,0.066 0.511,0 2.589,-0.05 2.949,-0.066 l 0,0.59 -0.625,0 c -1.653,0 -1.653,0.215 -1.653,0.762 l 0,9.136 z"
         style="fill:#0000ff;fill-opacity:1;fill-rule:nonzero;stroke:none"
         id="path3902"
         inkscape:connector-curvature="0" /><path
         d="m 268.199,522.331 0.11,0.117 0.105,0.114 0.106,0.109 0.101,0.105 0.094,0.098 0.097,0.098 0.094,0.097 0.172,0.18 0.09,0.082 0.082,0.086 0.086,0.082 0.078,0.074 0.082,0.078 0.152,0.145 0.153,0.141 0.144,0.132 0.145,0.129 0.14,0.125 0.286,0.246 0.144,0.129 0.145,0.121 c 0,0.024 1.351,1.18 2.14,1.969 2.075,2.039 2.559,3.086 2.559,3.164 0,0.219 -0.203,0.219 -0.242,0.219 -0.153,0 -0.219,-0.039 -0.328,-0.234 -0.653,-1.051 -1.11,-1.403 -1.641,-1.403 -0.527,0 -0.785,0.332 -1.117,0.7 -0.41,0.507 -0.778,0.937 -1.508,0.937 -1.637,0 -2.641,-2.023 -2.641,-2.484 0,-0.114 0.063,-0.239 0.262,-0.239 0.199,0 0.238,0.11 0.281,0.239 0.418,1.007 1.684,1.031 1.856,1.031 0.461,0 0.879,-0.16 1.379,-0.332 0.879,-0.328 1.117,-0.328 1.687,-0.328 -0.789,-0.938 -2.625,-2.52 -3.035,-2.864 l -1.969,-1.835 c -1.488,-1.465 -2.258,-2.711 -2.258,-2.868 0,-0.218 0.223,-0.218 0.262,-0.218 0.18,0 0.219,0.046 0.352,0.281 0.508,0.769 1.156,1.359 1.859,1.359 0.504,0 0.723,-0.199 1.266,-0.828 0.379,-0.461 0.769,-0.812 1.398,-0.812 2.168,0 3.434,2.777 3.434,3.367 0,0.109 -0.086,0.219 -0.258,0.219 -0.203,0 -0.242,-0.129 -0.313,-0.286 -0.5,-1.422 -1.894,-1.828 -2.625,-1.828 -0.429,0 -0.828,0.125 -1.289,0.281 -0.734,0.278 -1.066,0.368 -1.527,0.368 -0.043,0 -0.391,0 -0.59,-0.063 z"
         style="fill:#00ff00;fill-opacity:1;fill-rule:nonzero;stroke:none"
         id="path3904"
         inkscape:connector-curvature="0" /><path
         d="m 283.172,520.038 -0.516,0 c -0.043,-0.34 -0.203,-1.242 -0.398,-1.398 -0.121,-0.086 -1.297,-0.086 -1.512,-0.086 l -2.816,0 c 1.605,1.418 2.14,1.844 3.058,2.562 1.133,0.91 2.184,1.852 2.184,3.309 0,1.848 -1.613,2.98 -3.574,2.98 -1.895,0 -3.18,-1.332 -3.18,-2.734 0,-0.781 0.656,-0.859 0.816,-0.859 0.36,0 0.805,0.261 0.805,0.808 0,0.274 -0.109,0.809 -0.902,0.809 0.472,1.086 1.511,1.422 2.234,1.422 1.531,0 2.324,-1.188 2.324,-2.426 0,-1.336 -0.949,-2.387 -1.441,-2.938 l -3.68,-3.64 c -0.156,-0.137 -0.156,-0.172 -0.156,-0.598 l 6.301,0 0.453,2.789 z"
         style="fill:#00ff00;fill-opacity:1;fill-rule:nonzero;stroke:none"
         id="path3906"
         inkscape:connector-curvature="0" /><path
         d="m 319.375,526.288 0,0.028 -0.008,0.007 0,0.024 -0.004,0.004 0,0.004 -0.008,0.011 -0.003,0.012 0,0.012 -0.012,0.008 -0.004,0.007 -0.008,0.008 -0.004,0.012 -0.012,0.004 -0.007,0.008 -0.012,0.004 -0.008,0.007 -0.012,0.004 -0.007,0.004 -0.012,0 -0.012,0.008 -0.008,0.004 -0.019,0 -0.012,0.008 -0.031,0 -0.02,0.004 -0.062,0 c -0.485,0 -1.16,-0.422 -1.188,-0.422 -0.566,-0.364 -0.679,-0.567 -1.011,-1.043 -0.875,-1.328 -2.118,-2.278 -3.942,-2.278 -2.543,0 -4.828,1.825 -4.828,6.051 0,2.535 1.016,5.895 2.512,8.125 1.234,1.805 2.769,3.27 5.664,3.27 1.07,0 1.746,-0.399 1.746,-1.446 0,-0.988 -1.039,-2.984 -1.383,-3.55 -0.172,-0.313 -0.172,-0.364 -0.172,-0.426 0,-0.192 0.141,-0.192 0.313,-0.192 0.566,0 1.613,0.618 1.945,1.071 0.063,0.113 1.695,2.871 1.695,4.308 0,1.551 -1.269,1.778 -2.289,1.778 -4.086,0 -7.433,-2.676 -8.734,-4.258 -3.348,-4.059 -3.695,-8.426 -3.695,-9.891 0,-4.113 2.089,-6.398 5.359,-6.398 4.535,0 8.293,4.402 8.293,5.109 z"
         style="fill:#ff5700;fill-opacity:1;fill-rule:nonzero;stroke:none"
         id="path3908"
         inkscape:connector-curvature="0" /><path
         d="m 328.285,525.441 1.922,0 c 0.402,0 0.656,0 0.656,0.429 0,0.278 -0.254,0.278 -0.613,0.278 l -1.836,0 c 0.465,2.5 0.609,3.41 0.77,3.98 0.093,0.438 0.531,0.852 1.007,0.852 0.016,0 0.547,0 0.926,-0.239 -0.808,-0.254 -0.867,-0.972 -0.867,-1.086 0,-0.437 0.34,-0.726 0.789,-0.726 0.531,0 1.125,0.453 1.125,1.199 0,0.906 -0.969,1.398 -1.973,1.398 -0.867,0 -1.828,-0.492 -2.367,-1.476 -0.39,-0.731 -0.547,-1.617 -0.965,-3.902 l -1.558,0 c -0.395,0 -0.649,0 -0.649,-0.438 0,-0.269 0.254,-0.269 0.606,-0.269 l 1.457,0 c -0.016,-0.125 -1.254,-7.215 -1.731,-9.329 -0.093,-0.429 -0.433,-1.921 -1.379,-1.921 -0.015,0 -0.492,0 -0.867,0.222 0.805,0.262 0.867,0.977 0.867,1.086 0,0.438 -0.335,0.731 -0.785,0.731 -0.535,0 -1.121,-0.454 -1.121,-1.204 0,-0.882 0.926,-1.398 1.906,-1.398 1.266,0 2.133,1.301 2.372,1.731 0.707,1.332 1.16,3.75 1.203,3.988 l 1.105,6.094 z"
         style="fill:#ff5700;fill-opacity:1;fill-rule:nonzero;stroke:none"
         id="path3910"
         inkscape:connector-curvature="0" /><path
         d="m 240.551,557.523 1.926,0 c 0.449,0 0.671,0 0.671,0.449 0,0.246 -0.222,0.246 -0.601,0.246 l -1.859,0 0.464,2.555 c 0.094,0.468 0.41,2.054 0.547,2.324 0.199,0.426 0.578,0.765 1.051,0.765 0.086,0 0.668,0 1.094,-0.41 -0.985,-0.082 -1.207,-0.867 -1.207,-1.203 0,-0.512 0.398,-0.781 0.832,-0.781 0.578,0 1.226,0.492 1.226,1.34 0,1.031 -1.035,1.543 -1.945,1.543 -0.766,0 -2.176,-0.399 -2.844,-2.614 -0.133,-0.472 -0.203,-0.699 -0.738,-3.519 l -1.543,0 c -0.43,0 -0.672,0 -0.672,-0.422 0,-0.273 0.203,-0.273 0.625,-0.273 l 1.477,0 -1.684,-8.84 c -0.402,-2.168 -0.777,-4.215 -1.945,-4.215 -0.09,0 -0.645,0 -1.074,0.41 1.031,0.063 1.23,0.871 1.23,1.207 0,0.512 -0.398,0.789 -0.832,0.789 -0.578,0 -1.227,-0.496 -1.227,-1.351 0,-1.004 0.985,-1.543 1.903,-1.543 1.23,0 2.129,1.32 2.527,2.175 0.715,1.411 1.238,4.114 1.258,4.278 l 1.34,7.09 z"
         style="fill:#ff0000;fill-opacity:1;fill-rule:nonzero;stroke:none"
         id="path3912"
         inkscape:connector-curvature="0" /><path
         d="m 251.188,548.081 -0.532,0 c -0.043,-0.347 -0.207,-1.273 -0.41,-1.43 -0.121,-0.089 -1.324,-0.089 -1.543,-0.089 l -2.887,0 c 1.645,1.453 2.188,1.886 3.133,2.625 1.16,0.929 2.239,1.894 2.239,3.386 0,1.891 -1.653,3.051 -3.665,3.051 -1.941,0 -3.257,-1.359 -3.257,-2.797 0,-0.801 0.675,-0.883 0.836,-0.883 0.371,0 0.828,0.27 0.828,0.832 0,0.278 -0.114,0.829 -0.926,0.829 0.484,1.109 1.551,1.453 2.289,1.453 1.566,0 2.379,-1.215 2.379,-2.485 0,-1.363 -0.969,-2.445 -1.473,-3.004 l -3.769,-3.73 c -0.164,-0.141 -0.164,-0.176 -0.164,-0.609 l 6.453,0 0.469,2.851 z"
         style="fill:#ff0000;fill-opacity:1;fill-rule:nonzero;stroke:none"
         id="path3914"
         inkscape:connector-curvature="0" /><path
         d="m 266.586,548.769 -0.18,-0.141 -0.172,-0.137 -0.16,-0.14 -0.156,-0.149 -0.137,-0.144 -0.136,-0.149 -0.125,-0.148 -0.118,-0.149 -0.113,-0.148 -0.098,-0.141 -0.093,-0.148 -0.09,-0.145 -0.082,-0.144 -0.203,-0.406 -0.051,-0.129 -0.055,-0.121 -0.047,-0.121 -0.039,-0.114 -0.035,-0.105 -0.027,-0.102 -0.028,-0.094 -0.023,-0.085 -0.023,-0.075 -0.024,-0.133 -0.012,-0.046 -0.007,-0.043 -0.004,-0.032 0,-0.015 -0.004,-0.012 c 0,-0.227 0.156,-0.227 0.371,-0.227 0.285,0 0.332,0 0.41,0.266 0.098,0.395 0.34,1.391 1.16,2.254 0.91,0.953 1.688,1.191 2.348,1.398 0.09,0.028 0.156,0.118 0.156,0.204 0,0.152 -0.094,0.183 -0.293,0.246 -2.258,0.722 -3.058,2.312 -3.387,3.691 -0.062,0.191 -0.171,0.191 -0.394,0.191 -0.215,0 -0.371,0 -0.371,-0.234 0,-0.035 0.156,-1.078 0.918,-2.16 0.367,-0.535 0.8,-0.973 1.324,-1.352 l -12.578,0 c -0.25,0 -0.625,0 -0.625,-0.371 0,-0.39 0.359,-0.39 0.625,-0.39 l 12.578,0 z"
         style="fill:#ff0000;fill-opacity:1;fill-rule:nonzero;stroke:none"
         id="path3916"
         inkscape:connector-curvature="0" /><path
         d="m 275.27,555.183 0,0.078 -0.004,0.012 0,0.097 -0.004,0.012 0,0.027 -0.004,0.012 0,0.023 -0.008,0.012 0,0.012 -0.004,0.008 -0.004,0.019 -0.008,0.016 -0.004,0.015 -0.011,0.012 -0.008,0.016 -0.012,0.012 -0.015,0.011 -0.012,0.008 -0.016,0.008 -0.015,0.004 -0.02,0.004 -0.019,0.011 -0.02,0 -0.012,0.004 -0.011,0 -0.012,0.004 -0.055,0 -0.015,0.004 -0.18,0 c -1.004,-0.988 -2.422,-1 -3.067,-1 l 0,-0.562 c 0.375,0 1.411,0 2.27,0.437 l 0,-7.984 c 0,-0.524 0,-0.727 -1.57,-0.727 l -0.59,0 0,-0.558 c 0.285,0.011 2.207,0.062 2.793,0.062 0.48,0 2.453,-0.051 2.797,-0.062 l 0,0.558 -0.598,0 c -1.562,0 -1.562,0.203 -1.562,0.727 l 0,8.668 z"
         style="fill:#ff0000;fill-opacity:1;fill-rule:nonzero;stroke:none"
         id="path3918"
         inkscape:connector-curvature="0" /></g></g></svg>