<?xml version="1.0" encoding="UTF-8" standalone="no"?>
<!-- Created with Inkscape (http://www.inkscape.org/) -->

<svg
   xmlns:dc="http://purl.org/dc/elements/1.1/"
   xmlns:cc="http://creativecommons.org/ns#"
   xmlns:rdf="http://www.w3.org/1999/02/22-rdf-syntax-ns#"
   xmlns:svg="http://www.w3.org/2000/svg"
   xmlns="http://www.w3.org/2000/svg"
   xmlns:sodipodi="http://sodipodi.sourceforge.net/DTD/sodipodi-0.dtd"
   xmlns:inkscape="http://www.inkscape.org/namespaces/inkscape"
   id="svg3023"
   version="1.1"
   inkscape:version="0.48.4 r9939"
   width="705"
   height="339.375"
   xml:space="preserve"
   sodipodi:docname="manifold_modified.pdf"><metadata
     id="metadata3029"><rdf:RDF><cc:Work
         rdf:about=""><dc:format>image/svg+xml</dc:format><dc:type
           rdf:resource="http://purl.org/dc/dcmitype/StillImage" /><dc:title></dc:title></cc:Work></rdf:RDF></metadata><defs
     id="defs3027"><clipPath
       clipPathUnits="userSpaceOnUse"
       id="clipPath3037"><path
         d="m 8209.833,8286.833 c 25.667,-2.333 60.834,-30.833 93.834,-61.667 46.7871,-43.7148 74.333,-14.166 86.333,-0.666 -14.5,-46.5 -67.5176,-153.5254 -163.25,-155.75 -21.5,-0.5 -29,3 -45,6.5 -20,5 -19.5,6.25 -91.25,37.75 -78.4297,34.4326 -120.5,11.75 -170.5,-52.8335 51.667,81.8335 108.3516,119.813 144.6675,152.4995 C 8098,8242.667 8192,8288 8209.833,8286.833 z"
         id="path3039" /></clipPath><clipPath
       clipPathUnits="userSpaceOnUse"
       id="clipPath3045"><path
         d="m 7920,8060.1665 470,0 0,227.2495 -470,0 0,-227.2495 z"
         id="path3047" /></clipPath><clipPath
       clipPathUnits="userSpaceOnUse"
       id="clipPath3091"><path
         d="m 563,-313.84229 c 0,0 34.97754,0 34.97754,0 0,0 0,26.23291 0,26.23291 0,0 -34.97754,0 -34.97754,0 0,0 0,-26.23291 0,-26.23291 z"
         id="path3093" /></clipPath><clipPath
       clipPathUnits="userSpaceOnUse"
       id="clipPath3107"><path
         d="m 210.75,465.27539 499,0 0,-120.5 -499,0 0,120.5 z"
         id="path3109" /></clipPath><clipPath
       clipPathUnits="userSpaceOnUse"
       id="clipPath3125"><path
         d="m 334.46631,434.52295 277.81689,0 0,-37.99512 -277.81689,0 0,37.99512 z"
         id="path3127" /></clipPath><clipPath
       clipPathUnits="userSpaceOnUse"
       id="clipPath3141"><path
         d="m 334.16748,453.51123 227.16553,0 0,-79.97168 -227.16553,0 0,79.97168 z"
         id="path3143" /></clipPath></defs><sodipodi:namedview
     pagecolor="#ffffff"
     bordercolor="#666666"
     borderopacity="1"
     objecttolerance="10"
     gridtolerance="10"
     guidetolerance="10"
     inkscape:pageopacity="0"
     inkscape:pageshadow="2"
     inkscape:window-width="1920"
     inkscape:window-height="1035"
     id="namedview3025"
     showgrid="false"
     inkscape:zoom="1.2446808"
     inkscape:cx="148.02461"
     inkscape:cy="164.55274"
     inkscape:window-x="1600"
     inkscape:window-y="45"
     inkscape:window-maximized="0"
     inkscape:current-layer="g3083" /><g
     id="g3031"
     inkscape:groupmode="layer"
     inkscape:label="manifold"
     transform="matrix(1.25,0,0,-1.25,-185.625,586.59424)"><g
       id="g3033"
       transform="matrix(1,0,0,-1,-7770,8488.2754)"><g
         id="g3035"
         clip-path="url(#clipPath3037)"><g
           id="g3041"><g
             id="g3043"
             clip-path="url(#clipPath3045)"><path
               d="m 8209.833,8286.833 c 12.833,-1.167 28.042,-8.875 44.167,-20.1455 -16.708,-19.083 -35.8906,-35.4687 -58.7187,-50.8643 -16.6778,19.9327 -33.1353,36.6143 -52.2188,45.6143 29.8955,14.9375 57.8535,25.9785 66.7705,25.3955 z"
               style="fill:#e9e8e8;fill-opacity:1;fill-rule:nonzero;stroke:none"
               id="path3049" /><path
               d="m 8143.0625,8261.4375 c 19.0835,-9 35.541,-25.6816 52.2188,-45.6143 -22.8287,-15.3955 -49.3028,-29.8017 -80.5938,-44.9267 -12.104,13.937 -24.687,24.9365 -50.02,41.7695 16.6665,15 48.4995,33.834 78.395,48.7715 z"
               style="fill:#eaeaea;fill-opacity:1;fill-rule:nonzero;stroke:none"
               id="path3051" /><path
               d="m 8254,8266.6875 c 16.125,-11.2715 33.167,-26.1045 49.667,-41.5215 -24.5,-38.75 -37,-59.541 -54.8545,-74.4575 -19.959,22.0005 -36.8535,45.1821 -53.5312,65.1147 22.8281,15.3956 42.0107,31.7813 58.7187,50.8643 z"
               style="fill:#e7e6e7;fill-opacity:1;fill-rule:nonzero;stroke:none"
               id="path3053" /><path
               d="m 8195.2813,8215.8232 c 16.6777,-19.9326 33.5722,-43.1142 53.5312,-65.1147 -17.8545,-14.9165 -41.0625,-23.958 -86.979,-39.2085 -23.4175,28.584 -35.0425,45.459 -47.146,59.3965 31.291,15.125 57.7651,29.5312 80.5938,44.9267 z"
               style="fill:#f2f2f2;fill-opacity:1;fill-rule:nonzero;stroke:none"
               id="path3055" /><path
               d="m 8303.667,8225.166 c 23.3935,-21.8574 41.9766,-25.3984 56.2119,-21.7881 -15.875,-31 -30.7002,-59.5146 -53.2793,-82.3242 -16.2793,0.4844 -36.8164,7.4063 -57.7871,29.6548 17.8545,14.9165 30.3545,35.7075 54.8545,74.4575 z"
               style="fill:#e1e0e0;fill-opacity:1;fill-rule:nonzero;stroke:none"
               id="path3057" /><path
               d="m 8248.8125,8150.7085 c 20.9707,-22.2485 41.5078,-29.1704 57.7871,-29.6548 -11.2891,-11.4048 -24.5176,-21.3833 -40.7851,-29.5332 -13.2334,5.6226 -30.6641,17.1914 -49.9688,39.709 13.7734,6.0312 24.0391,12.0205 32.9668,19.479 z"
               style="fill:#f4f4f4;fill-opacity:1;fill-rule:nonzero;stroke:none"
               id="path3059" /><path
               d="m 8215.8457,8131.2295 c 19.3047,-22.5176 36.7354,-34.0864 49.9688,-39.709 -16.2666,-8.1504 -35.5723,-14.4717 -59.0176,-18.5625 -11.124,5.0899 -26.416,15.9024 -44.9634,38.542 22.9585,7.625 40.2397,13.6982 54.0122,19.7295 z"
               style="fill:#f8f8f8;fill-opacity:1;fill-rule:nonzero;stroke:none"
               id="path3061" /><path
               d="m 8359.8789,8203.3779 c 14.2344,3.6104 24.1211,14.3721 30.1211,21.1221 -7.25,-23.25 -24.1289,-61.6313 -51.1621,-94.4785 -3.9375,-3.5 -15.959,-9.4522 -32.2383,-8.9678 22.5791,22.8096 37.4043,51.3242 53.2793,82.3242 z"
               style="fill:#d6d6d6;fill-opacity:1;fill-rule:nonzero;stroke:none"
               id="path3063" /><path
               d="m 8306.5996,8121.0537 c 16.2793,-0.4844 28.3008,5.4678 32.2383,8.9678 -13.5176,-16.4234 -29.5723,-31.4629 -48.2315,-42.5361 -2.5195,-1.2657 -11.5566,-1.5884 -24.7919,4.0351 16.2675,8.1499 29.496,18.1284 40.7851,29.5332 z"
               style="fill:#eaeaea;fill-opacity:1;fill-rule:nonzero;stroke:none"
               id="path3065" /><path
               d="m 8265.8145,8091.5205 c 13.2353,-5.6235 22.2724,-5.3008 24.7919,-4.0351 -18.6591,-11.0733 -39.9228,-18.1792 -63.8564,-18.7354 -1.875,-0.25 -8.8301,-0.8823 -19.9531,4.208 23.4453,4.0908 42.751,10.4121 59.0176,18.5625 z"
               style="fill:#f1f1f1;fill-opacity:1;fill-rule:nonzero;stroke:none"
               id="path3067" /><path
               d="m 8064.6675,8212.666 c 25.333,-16.833 37.916,-27.8325 50.02,-41.7695 -18.5908,-11.3311 -39.751,-13.2725 -60.6953,-17.3081 -16.1367,8.3222 -30.7354,8.9873 -55.9014,1.2578 25.169,23.81 48.419,41.4761 66.5767,57.8198 z"
               style="fill:#ebebeb;fill-opacity:1;fill-rule:nonzero;stroke:none"
               id="path3069" /><path
               d="m 7998.0908,8154.8462 c -25.1694,-23.8101 -52.2573,-53.7632 -78.0908,-94.6797 12.5,16.146 24.5044,29.6729 36.7051,40.3433 23.3008,34.289 48.6377,49.4472 72.7226,59.7265 -8.8125,0.2408 -18.7539,-1.5254 -31.3369,-5.3901 z"
               style="fill:#e7e6e7;fill-opacity:1;fill-rule:nonzero;stroke:none"
               id="path3071" /><path
               d="m 8029.4277,8160.2363 c -24.0849,-10.2793 -49.4218,-25.4375 -72.7226,-59.7265 12.2011,10.6704 24.5981,18.4843 37.8838,23.2041 17.7295,19.709 38.459,25.8388 59.4033,29.8745 -8.0684,4.1611 -15.752,6.4077 -24.5645,6.6479 z"
               style="fill:#efefef;fill-opacity:1;fill-rule:nonzero;stroke:none"
               id="path3073" /><path
               d="m 8114.6875,8170.8965 c 12.1035,-13.9375 23.7285,-30.8125 47.146,-59.3965 -19.023,-6.3184 -32.0439,-6.6934 -42.7153,-5.1138 -31.316,22.8999 -48.9898,38.8799 -65.126,47.2022 20.9443,4.0356 42.1045,5.977 60.6953,17.3081 z"
               style="fill:#f6f6f6;fill-opacity:1;fill-rule:nonzero;stroke:none"
               id="path3075" /><path
               d="m 8053.9922,8153.5884 c 16.1362,-8.3223 33.81,-24.3023 65.126,-47.2022 -10.6714,1.5796 -18.9932,5.1138 -28.6182,6.6138 -39.2148,17.2163 -69.3398,20.1538 -95.9111,10.7139 17.7295,19.709 38.459,25.8388 59.4033,29.8745 z"
               style="fill:#f5f4f5;fill-opacity:1;fill-rule:nonzero;stroke:none"
               id="path3077" /><path
               d="m 8161.8335,8111.5 c -38.0464,-12.6362 -52.0835,-1.5 -71.3335,1.5 35.875,-15.75 53.6875,-23.9375 65.0312,-28.8125 17.6251,-3.25 21.4922,-17.7979 51.2657,-11.2295 -11.124,5.0899 -26.416,15.9024 -44.9634,38.542 z"
               style="fill:#fafafa;fill-opacity:1;fill-rule:nonzero;stroke:none"
               id="path3079" /><path
               d="m 8206.7969,8072.958 c -29.7735,-6.5684 -33.6406,7.9795 -51.2657,11.2295 11.3438,-4.875 16.2188,-6.4375 26.2188,-8.9375 16,-3.5 23.5,-7 45,-6.5 -1.875,-0.25 -8.8301,-0.8823 -19.9531,4.208 z"
               style="fill:#f4f4f4;fill-opacity:1;fill-rule:nonzero;stroke:none"
               id="path3081" /></g></g></g></g><g
       id="g3083"
       transform="scale(1,-1)"><path
         d="m 439,-201.27539 c 55,-9.5 89.5,-69 126.5,-82 19.88574,-6.98633 37.25,-0.75 55.25,20 -32,-90.5 -85.75,-143.75 -146,-155 -74.9043,-13.98633 -156.9165,60.8335 -215.4165,59.3335 -39.98975,-1.0254 -59.5835,-10.3335 -109.0835,-68.3335 29.6665,43.3335 46.25,63.75 66.41699,83 48.39112,46.19043 98.38819,89.24316 146.33301,112.5 67,32.5 76,30.5 76,30.5 z"
         style="fill:none;stroke:#363639;stroke-opacity:1;stroke-width:0.5;stroke-linecap:butt;stroke-linejoin:miter;stroke-miterlimit:4;stroke-dasharray:none"
         id="path3085" /><g
         id="g3087"><g
           id="g3089"
           clip-path="url(#clipPath3091)"><path
             d="m 576.28809,-307.46875 c 0.77343,3.78223 2.0498,10.02246 3.6875,13.39258 0.63867,1.22851 0.95507,1.86719 1.27734,1.86719 0.0898,0 0.18066,0 0.68164,-0.50098 2.2334,-2.1416 3.73242,-3.82861 5.73828,-6.14844 0,0 6.37403,-7.37842 6.37403,-7.37842 -0.40625,2.45948 -1.45704,8.96924 -1.45704,12.38721 0,0.77539 0.0469,1.54883 0.1377,2.32422 0,0.31836 0.13769,1.18066 1.36719,1.18066 1.22949,0 3.41504,-1.31738 3.41504,-1.86425 0,-0.18262 -0.1836,-0.22852 -0.27247,-0.22852 -0.36425,0 -0.95605,0.27148 -1.27441,0.45605 -0.68359,-0.0908 -0.72754,-0.5498 -0.82324,-1.18359 -0.0889,-0.95703 -0.0889,-1.82226 -0.0889,-1.91601 0,-3.23047 1.27637,-12.0669 2.13867,-15.667 0.0479,-0.17968 0.0479,-0.22509 0.0479,-0.49853 0,-0.0908 0,-0.40967 -0.22753,-0.40967 -0.0898,0 -0.13672,0 -0.68262,0.68311 -2.73438,3.27929 -11.20508,13.48144 -14.11914,15.89209 -0.72949,-1.5459 -1.22949,-2.63916 -2.23242,-6.6919 -0.86621,-3.2793 -1.36719,-5.6958 -1.86524,-8.51709 -0.0469,-0.40967 -0.23144,-1.18701 -0.23144,-1.27539 -0.0889,-0.13623 -0.22754,-0.13623 -0.31641,-0.13623 -0.50098,0 -1.73242,0.63721 -1.82227,1.27441 -0.36425,2.41407 -0.90918,6.23731 -2.96093,11.79639 -2.32129,6.19336 -2.95996,6.19336 -3.50782,6.19336 -0.36425,0 -1.45605,-0.22656 -2.09179,-0.82227 -0.13672,-0.13281 -0.23047,-0.13281 -0.27442,-0.13281 -0.41015,0 -1.04882,1.32031 -1.04882,2.13965 0,0.22754 0,0.59277 0.95898,1.09277 0.72852,0.36524 1.41113,0.41016 1.54687,0.41016 1.82227,0 3.50684,-4.14453 4.09864,-5.64746 1.36719,-3.27881 3.00488,-7.87891 3.82715,-12.07129 z"
             style="fill:#231f20;fill-opacity:1;fill-rule:nonzero;stroke:none"
             id="path3095" /></g></g><path
         d="m 323.51181,-318.1913 c 65.3335,-16.3335 91.32169,-96.75059 134.98819,-99.08409"
         style="fill:none;stroke:#ff0000;stroke-width:1;stroke-linecap:round;stroke-linejoin:miter;stroke-miterlimit:4;stroke-opacity:1;stroke-dasharray:none"
         id="path3099"
         inkscape:connector-curvature="0"
         sodipodi:nodetypes="cc" /><g
         id="g3103"
         transform="scale(1,-1)"><g
           id="g3105" /><g
           id="g3111"><g
             clip-path="url(#clipPath3107)"
             opacity="0.41"
             id="g3113"><g
               transform="scale(1,-1)"
               id="g3115"><path
                 d="m 210.75,-396.77539 c 0,0 227.5,-68.5 227.5,-68.5 0,0 271.5,26.75 271.5,26.75 0,0 -219.5,93.75 -219.5,93.75 0,0 -279.5,-52 -279.5,-52 z"
                 style="fill:#a7acb3;fill-opacity:1;fill-rule:nonzero;stroke:none"
                 id="path3117" /></g></g></g></g><path
         d="m 210.75,-396.77539 c 0,0 227.5,-68.5 227.5,-68.5 0,0 271.5,26.75 271.5,26.75 0,0 -219.5,93.75 -219.5,93.75 0,0 -279.5,-52 -279.5,-52 z"
         style="fill:none;stroke:#231f20;stroke-opacity:1;stroke-width:0.5;stroke-linecap:butt;stroke-linejoin:miter;stroke-miterlimit:4;stroke-dasharray:none"
         id="path3119" /><g
         id="g3121"
         transform="scale(1,-1)"><g
           id="g3123" /><g
           id="g3129"><g
             clip-path="url(#clipPath3125)"
             opacity="0.31"
             id="g3131"><g
               transform="scale(1,-1)"
               id="g3133"><path
                 d="m 334.5,-434.27539 c 0,0 277.75,37.5 277.75,37.5"
                 style="fill:none;stroke:#231f20;stroke-opacity:1;stroke-width:0.5;stroke-linecap:butt;stroke-linejoin:miter;stroke-miterlimit:4;stroke-dasharray:none"
                 id="path3135" /></g></g></g></g><g
         id="g3137"
         transform="scale(1,-1)"><g
           id="g3139" /><g
           id="g3145"><g
             clip-path="url(#clipPath3141)"
             opacity="0.31"
             id="g3147"><g
               transform="scale(1,-1)"
               id="g3149"><path
                 d="m 561.25,-453.27539 c 0,0 -227,79.5 -227,79.5"
                 style="fill:none;stroke:#231f20;stroke-opacity:1;stroke-width:0.5;stroke-linecap:butt;stroke-linejoin:miter;stroke-miterlimit:4;stroke-dasharray:none"
                 id="path3151" /></g></g></g></g><path
         d="m 324,-404.27539 c 0,0 134.75,-13 134.75,-13"
         style="fill:none;stroke:#176fc1;stroke-opacity:1;stroke-width:1;stroke-linecap:round;stroke-linejoin:miter;stroke-miterlimit:4;stroke-dasharray:none"
         id="path3153" /><path
         d="m 608.05469,-439.22119 c 0.23047,-0.83252 0.32226,-1.01416 0.6914,-1.10596 0.27637,-0.0464 1.24414,-0.0464 1.84375,-0.0464 2.99414,0 4.28321,0.0923 4.28321,2.39649 0,0.46045 -0.0908,1.60937 -0.22852,2.34668 0,0.1416 -0.0918,0.46387 -0.0918,0.55566 0,0.18213 0.0918,0.41504 0.36719,0.41504 0.32227,0 0.36914,-0.23291 0.46094,-0.6914 0,0 0.7832,-5.11426 0.7832,-5.11426 0.0449,-0.13819 0.0449,-0.41504 0.0449,-0.50684 0,-0.32324 -0.27246,-0.32324 -0.78222,-0.32324 0,0 -16.30957,0 -16.30957,0 -0.69336,0 -0.73731,0.0464 -0.97071,0.59912 0,0 -1.74804,5.16113 -1.74804,5.16113 0,0.0464 -0.18555,0.46045 -0.18555,0.55274 0,0.13818 0.18555,0.32275 0.36914,0.32275 0.27637,0 0.32324,-0.18457 0.50586,-0.64502 1.56641,-4.56201 2.35059,-5.06885 6.68359,-5.06885 0,0 1.14844,0 1.14844,0 0.83301,0 0.83301,0.0923 0.83301,0.36866 0,0.13818 -0.0957,0.50683 -0.13867,0.59912 0,0 -3.91699,15.7124 -3.91699,15.7124 -0.27735,1.06006 -0.36817,1.38232 -3.50293,1.38232 -1.05762,0 -1.24414,0 -1.24414,0.55323 0,0.36865 0.32421,0.36865 0.50683,0.36865 0.78516,0 1.61328,-0.0464 2.39746,-0.0464 0.82813,0 1.7041,-0.0464 2.53223,-0.0464 0.83008,0 1.61328,0.0464 2.44238,0.0464 0.82813,0 1.70508,0.0464 2.5332,0.0464 0.27735,0 0.64649,0 0.64649,-0.60205 0,-0.31983 -0.23047,-0.31983 -1.01563,-0.31983 -0.68945,0 -1.10546,0 -1.84277,-0.0488 -0.87207,-0.0894 -1.10547,-0.18164 -1.10547,-0.64209 0,-0.0464 0,-0.18457 0.1377,-0.59961 0,0 3.87207,-15.61963 3.87207,-15.61963 z"
         style="fill:#231f20;fill-opacity:1;fill-rule:nonzero;stroke:none"
         id="path3155" /><path
         d="m 617.80957,-419.14307 c -0.18164,0.69141 -0.87207,1.79639 -1.93262,1.79639 -0.0449,0 -0.6914,0 -1.10547,-0.27588 0.82715,-0.27637 0.92188,-1.01367 0.92188,-1.15185 0,-0.46094 -0.36816,-0.73731 -0.83106,-0.73731 -0.60058,0 -1.19726,0.46045 -1.19726,1.24414 0,1.01367 1.15234,1.47412 2.16699,1.47412 0.96777,0 1.7959,-0.55322 2.30176,-1.42871 0.50879,1.06006 1.61426,1.42871 2.44238,1.42871 2.39551,0 3.63867,-2.53369 3.63867,-3.1333 0,-0.27588 -0.27246,-0.27588 -0.32031,-0.27588 -0.32129,0 -0.32129,0.13819 -0.41699,0.36866 -0.41211,1.42773 -1.65723,2.4873 -2.80957,2.4873 -0.8291,0 -1.24414,-0.55225 -1.24414,-1.33594 0,-0.55273 0.50683,-2.39551 1.06152,-4.69922 0.41211,-1.56738 1.33496,-2.07421 2.02637,-2.07421 0.0469,0 0.64453,0 1.10644,0.27685 -0.64648,0.18457 -0.92089,0.78272 -0.92089,1.15137 0,0.41504 0.36816,0.73779 0.82812,0.73779 0.46094,0 1.1543,-0.36914 1.1543,-1.24414 0,-1.15186 -1.33985,-1.52051 -2.1211,-1.52051 -1.06152,0 -1.89062,0.69141 -2.30371,1.47412 -0.36816,-0.8291 -1.33886,-1.47412 -2.48925,-1.47412 -2.30176,0 -3.59375,2.53369 -3.59375,3.1792 0,0.22998 0.27636,0.22998 0.32128,0.22998 0.27832,0 0.27832,-0.0454 0.41602,-0.32226 0.50684,-1.6128 1.7959,-2.48828 2.81055,-2.48828 0.69238,0 1.24414,0.36865 1.24414,1.33642 0,0.41455 -0.27735,1.42871 -0.46094,2.16602 0,0 -0.69336,2.81054 -0.69336,2.81054 z"
         style="fill:#231f20;fill-opacity:1;fill-rule:nonzero;stroke:none"
         id="path3157" /><path
         d="m 638.81348,-437.84229 c 0.78125,3.82715 2.07324,10.14063 3.73047,13.54981 0.64453,1.24414 0.96582,1.88965 1.29101,1.88965 0.0908,0 0.18359,0 0.68945,-0.50733 2.26075,-2.16504 3.77832,-3.87304 5.80664,-6.22021 0,0 6.4502,-7.46436 6.4502,-7.46436 -0.41211,2.4878 -1.47559,9.07422 -1.47559,12.53272 0,0.78369 0.0479,1.5664 0.13965,2.3501 0,0.32275 0.13867,1.19482 1.38282,1.19482 1.24414,0 3.45605,-1.3335 3.45605,-1.88574 0,-0.18457 -0.18652,-0.23047 -0.27734,-0.23047 -0.36817,0 -0.96778,0.27344 -1.28809,0.46045 -0.69336,-0.0918 -0.7373,-0.55567 -0.83301,-1.19824 -0.0898,-0.9668 -0.0898,-1.84327 -0.0898,-1.93799 0,-3.26807 1.29101,-12.20752 2.16406,-15.85059 0.0469,-0.18115 0.0469,-0.22754 0.0469,-0.50342 0,-0.0928 0,-0.41504 -0.23047,-0.41504 -0.0908,0 -0.1377,0 -0.68946,0.69092 -2.76562,3.31739 -11.33691,13.63916 -14.28515,16.07813 -0.73633,-1.56348 -1.24414,-2.66944 -2.25781,-6.77051 -0.87696,-3.31738 -1.38379,-5.7627 -1.8877,-8.6167 -0.0479,-0.41455 -0.2334,-1.20068 -0.2334,-1.29004 -0.0908,-0.13818 -0.22949,-0.13818 -0.32129,-0.13818 -0.50683,0 -1.75195,0.64551 -1.84277,1.29053 -0.36914,2.44189 -0.91992,6.31005 -2.99609,11.93359 -2.34766,6.26709 -2.99415,6.26709 -3.54786,6.26709 -0.36914,0 -1.47461,-0.23096 -2.11718,-0.83252 -0.1377,-0.13574 -0.23438,-0.13574 -0.27832,-0.13574 -0.41407,0 -1.06055,1.33691 -1.06055,2.16601 0,0.23047 0,0.59912 0.96973,1.10596 0.73828,0.36865 1.42773,0.41406 1.56543,0.41406 1.84375,0 3.54785,-4.19287 4.14746,-5.71289 1.38183,-3.31738 3.03906,-7.97168 3.87207,-12.21387 z"
         style="fill:#231f20;fill-opacity:1;fill-rule:nonzero;stroke:none"
         id="path3159" /><path
         d="m 460.19531,-417.46289 c 0,0.62549 -0.50781,1.13281 -1.13281,1.13281 -0.625,0 -1.13281,-0.50732 -1.13281,-1.13281 0,-0.62549 0.50781,-1.13281 1.13281,-1.13281 0.625,0 1.13281,0.50732 1.13281,1.13281 z"
         style="fill:#242021;fill-opacity:1;fill-rule:nonzero;stroke:none"
         id="path3161" /><path
         d="m 464.6084,-432.04102 c 0.1709,-0.68457 0.81445,-3.20947 2.69531,-3.20947 0.12891,0 0.81445,0 1.36914,0.34229 -0.76953,0.17138 -1.28125,0.81299 -1.28125,1.49804 0,0.42774 0.29883,0.94141 1.02735,0.94141 0.5957,0 1.45312,-0.47119 1.45312,-1.5835 0,-1.41211 -1.58105,-1.79736 -2.52441,-1.79736 -1.58301,0 -2.52539,1.45508 -2.86719,2.0542 -0.68457,-1.79736 -2.13965,-2.0542 -2.95313,-2.0542 -2.82226,0 -4.40625,3.50928 -4.40625,4.19385 0,0.29931 0.29883,0.29931 0.34278,0.29931 0.21484,0 0.29883,-0.0854 0.34179,-0.29931 0.93946,-2.90967 2.73829,-3.59473 3.67774,-3.59473 0.51562,0 1.45801,0.25684 1.45801,1.84033 0,0.85303 -0.47168,2.65284 -1.45801,6.5044 -0.42676,1.66894 -1.41016,2.82422 -2.60938,2.82422 -0.16894,0 -0.76953,0 -1.36914,-0.34229 0.68555,-0.1709 1.28418,-0.72754 1.28418,-1.49805 0,-0.72753 -0.59863,-0.9414 -0.9834,-0.9414 -0.85742,0 -1.49804,0.68506 -1.49804,1.58349 0,1.24122 1.32617,1.79737 2.52539,1.79737 1.83789,0 2.82324,-1.92578 2.86523,-2.05371 0.3418,0.9834 1.32715,2.05371 2.95508,2.05371 2.82227,0 4.36133,-3.50928 4.36133,-4.19336 0,-0.29981 -0.21192,-0.29981 -0.29785,-0.29981 -0.25684,0 -0.29785,0.12842 -0.38672,0.29981 -0.89746,2.95215 -2.73926,3.59424 -3.59278,3.59424 -1.07031,0 -1.49804,-0.85596 -1.49804,-1.79737 0,-0.59912 0.12793,-1.20117 0.42773,-2.39648 0,0 0.94141,-3.76563 0.94141,-3.76563 z"
         style="fill:#231f20;fill-opacity:1;fill-rule:nonzero;stroke:none"
         id="path3163" /><path
         d="m 316.03241,-299.10989 c -0.064,0.29101 -0.0967,0.32324 -0.0967,0.42041 0,0.45166 0.38867,0.5791 0.61279,0.5791 0.0982,0 0.54981,-0.063 0.74463,-0.54737 0.0635,-0.16113 0.16016,-0.83886 0.7417,-3.74365 0.16064,0 0.32178,0.0317 0.67822,0.0317 3.41992,0 6.58594,-3.22998 6.58594,-6.48779 0,-1.61377 -0.80859,-2.83985 -2.35791,-2.83985 -2.96875,0 -4.22803,4.00147 -5.45654,8.00489 -2.22705,-0.42041 -3.3877,-1.54981 -3.3877,-3.03467 0,-0.58057 0.48389,-2.83985 1.70996,-4.26123 0.19532,-0.19287 0.19532,-0.22559 0.19532,-0.29199 0,-0.063 -0.0664,-0.1919 -0.25782,-0.1919 -0.58349,0 -2.16455,3.00244 -2.16455,4.9707 0,1.93506 1.35645,3.42237 3.55176,3.93897 0,0 -1.09912,3.45264 -1.09912,3.45264 z m 2.87402,-4.45411 c -0.19336,0 -0.22461,0 -0.38818,-0.0317 -0.25879,0 -0.25879,0 -0.25879,-0.0654 0,-0.0312 0.35498,-1.93848 0.38818,-2.22657 0.64502,-2.64697 2.26123,-4.61767 4.09864,-4.61767 1.42138,0 1.96923,1.09912 1.96923,2.1001 0,2.32421 -2.64599,4.8413 -5.80908,4.8413 z"
         style="fill:#ff0000;fill-opacity:1;fill-rule:nonzero;stroke:none;stroke-opacity:1"
         id="path3165"
         inkscape:connector-curvature="0" /><path
         d="m 331.30296,-292.96937 c 0,-0.0645 0,-0.0972 -0.35449,-0.45361 -2.5503,-2.58301 -3.22852,-6.48633 -3.22852,-9.64942 0,-3.58349 0.7749,-7.16601 3.3252,-9.71826 0.25781,-0.25781 0.25781,-0.28808 0.25781,-0.35303 0,-0.16308 -0.0635,-0.22558 -0.19434,-0.22558 -0.22412,0 -2.06543,1.41992 -3.28955,4.03467 -1.03369,2.25927 -1.29199,4.54931 -1.29199,6.2622 0,1.61377 0.2251,4.09864 1.35547,6.45606 1.25732,2.51709 3.00195,3.87304 3.22607,3.87304 0.13086,0 0.19434,-0.0649 0.19434,-0.22607 z"
         style="fill:#ff0000;fill-opacity:1;fill-rule:nonzero;stroke:none"
         id="path3169"
         inkscape:connector-curvature="0" /><path
         d="m 333.12113,-299.62074 c 1.09668,-1.19238 1.71045,-1.70898 2.45557,-2.354 0,0 1.25683,-1.09766 1.99853,-1.84033 1.97022,-1.9043 2.42139,-2.90479 2.42139,-3.00196 0,-0.19287 -0.19287,-0.19287 -0.22607,-0.19287 -0.16162,0 -0.19336,0.0317 -0.32178,0.2251 -0.61426,1.00098 -1.03174,1.32324 -1.51953,1.32324 -0.51563,0 -0.74072,-0.32226 -1.0625,-0.67773 -0.38916,-0.45361 -0.74414,-0.87061 -1.4209,-0.87061 -1.54932,0 -2.48633,1.9043 -2.48633,2.35547 0,0.0972 0.064,0.22608 0.22608,0.22608 0.19384,0 0.22558,-0.0986 0.2915,-0.22608 0.38769,-0.96826 1.58301,-0.96826 1.74268,-0.96826 0.42041,0 0.80615,0.12939 1.29199,0.29102 0.83838,0.32226 1.06347,0.32226 1.58008,0.32226 -0.7417,0.87207 -2.45166,2.35645 -2.84034,2.6792 0,0 -1.87207,1.74365 -1.87207,1.74365 -1.38818,1.38721 -2.13086,2.54932 -2.13086,2.71143 0,0.19287 0.22559,0.19287 0.25928,0.19287 0.16162,0 0.19385,-0.0317 0.32227,-0.25781 0.48584,-0.74268 1.09619,-1.29102 1.77636,-1.29102 0.45069,0 0.67823,0.19336 1.19434,0.77393 0.32227,0.45215 0.70801,0.7749 1.2915,0.7749 2.06446,0 3.25879,-2.61426 3.25879,-3.16357 0,-0.0957 -0.0967,-0.22608 -0.25879,-0.22608 -0.19189,0 -0.22607,0.13037 -0.28955,0.29151 -0.48388,1.32324 -1.80859,1.71044 -2.48535,1.71044 -0.38672,0 -0.7749,-0.12939 -1.19433,-0.2583 -0.70997,-0.25781 -1.03321,-0.35498 -1.45166,-0.35498 -0.0342,0 -0.35596,0 -0.5503,0.0625 z"
         style="fill:#ff0000;fill-opacity:1;fill-rule:nonzero;stroke:none"
         id="path3173"
         inkscape:connector-curvature="0" /><path
         d="m 346.80717,-303.0724 c 0,-1.58203 -0.22559,-4.06738 -1.35498,-6.42382 -1.22705,-2.51954 -3.00293,-3.87305 -3.19532,-3.87305 -0.12841,0 -0.22509,0.0972 -0.22509,0.22558 0,0.065 0,0.0952 0.38574,0.48487 2.03467,2.03271 3.19531,5.2915 3.19531,9.58642 0,3.55078 -0.74072,7.16553 -3.29297,9.74854 -0.28808,0.25732 -0.28808,0.29004 -0.28808,0.35449 0,0.1294 0.0967,0.22607 0.22509,0.22607 0.19239,0 2.06495,-1.42041 3.25879,-4.03662 1.06592,-2.25781 1.29151,-4.5498 1.29151,-6.29248 z"
         style="fill:#ff0000;fill-opacity:1;fill-rule:nonzero;stroke:none"
         id="path3175"
         inkscape:connector-curvature="0" /><path
         d="m 327.29443,-411.06445 c 1.46094,-1.58692 2.27735,-2.27442 3.2627,-3.13379 0,0 1.67871,-1.46143 2.66699,-2.44971 2.61817,-2.53516 3.22266,-3.86719 3.22266,-3.99609 0,-0.25782 -0.26074,-0.25782 -0.29785,-0.25782 -0.21485,0 -0.26075,0.043 -0.43555,0.30079 -0.81055,1.33203 -1.375,1.76171 -2.0166,1.76171 -0.6875,0 -0.98535,-0.42968 -1.4209,-0.90234 -0.5127,-0.604 -0.98535,-1.16016 -1.8877,-1.16016 -2.0625,0 -3.30859,2.53516 -3.30859,3.13672 0,0.12891 0.0859,0.30078 0.30078,0.30078 0.25781,0 0.30274,-0.13134 0.38672,-0.30078 0.5127,-1.28906 2.10254,-1.28906 2.32324,-1.28906 0.5586,0 1.07129,0.17188 1.71875,0.38672 1.11426,0.42969 1.41504,0.42969 2.10254,0.42969 -0.98828,1.16015 -3.26269,3.13672 -3.78125,3.5664 0,0 -2.49219,2.3208 -2.49219,2.3208 -1.84765,1.84766 -2.83398,3.39454 -2.83398,3.60938 0,0.25781 0.29883,0.25781 0.34375,0.25781 0.21289,0 0.25293,-0.043 0.42773,-0.34375 0.64161,-0.98828 1.46094,-1.71875 2.36036,-1.71875 0.60449,0 0.90234,0.25781 1.58984,1.03125 0.43457,0.60156 0.94824,1.03125 1.71875,1.03125 2.75,0 4.3457,-3.48047 4.3457,-4.21094 0,-0.1289 -0.1289,-0.30078 -0.34375,-0.30078 -0.26074,0 -0.30371,0.17188 -0.38965,0.38672 -0.6416,1.76172 -2.40625,2.27735 -3.30859,2.27735 -0.51855,0 -1.03125,-0.17188 -1.58789,-0.34375 -0.94727,-0.34375 -1.375,-0.47266 -1.93359,-0.47266 -0.0449,0 -0.47266,0 -0.73243,0.083 z"
         style="fill:#176fc1;fill-opacity:1;fill-rule:nonzero;stroke:none"
         id="path3201" /></g></g></svg>